<svg version="1.1" xmlns="http://www.w3.org/2000/svg">   
    <symbol id="cart" viewBox="0 0 28 29.56"><title>cart</title><path d="M27,11.85h-.1l-2,9.3-10.15.93-4.9,3.54H24v1H22.7a1.74,1.74,0,0,1,.3,1,2,2,0,0,1-4,0,1.74,1.74,0,0,1,.3-1H12.75a1.74,1.74,0,0,1,.3,1,2,2,0,0,1-4,0,2.3,2.3,0,0,1,.35-1.13A1.12,1.12,0,0,1,9,26a1.07,1.07,0,0,1,.3-1.13l3.6-2.56-4.75.44-2-10.87H6a1,1,0,0,1-1-1v-1A1,1,0,0,1,5.6,9L5.05,5.46H4v1H0V3.49H4v1H6l.7,4.42H27a1,1,0,0,1,1,1v1A1,1,0,0,1,27,11.85ZM20,27.59a1,1,0,1,0,1-1A1,1,0,0,0,20,27.59Zm-9,1a1,1,0,1,0-1-1A1,1,0,0,0,11,28.57ZM3,4.48H1v1H3ZM8.9,21.64l15.2-1.38,1.8-8.41H7.1ZM27,9.89H6v1H27Z" /><path d="M21,3h5V7.92H21Zm1,3.93h3V4H22Z" /><path d="M15,1.23,17.5,0,20,1.23V7.92H15Zm1,5.7h3V1.82l-1.5-.74L16,1.82Z" /><path d="M7.5,2H14v5.9H7.5Zm1,4.91H13V3H8.5Z" /><rect x="22" y="12.84" width="1" height="6.89" /><rect x="19" y="12.84" width="1" height="6.89" /><rect x="16" y="12.84" width="1" height="6.89" /><rect x="13" y="12.84" width="1" height="6.89" /><rect x="10" y="12.84" width="1" height="6.89" /><rect x="2" y="25.13" width="5" height="1" /><rect x="5" y="23.16" width="2" height="1" /></symbol>
    <symbol id="check" viewBox="0 0 32 32"><title>check</title><path d="M16,32A16,16,0,1,1,32,16,16,16,0,0,1,16,32ZM16,2A14,14,0,1,0,30,16,14,14,0,0,0,16,2Z" /><path d="M11.89,15.54l2.47,4.86c2.05-5.14,6.24-11.76,10.8-13.88a15,15,0,0,0,.24,7.29c-1.08.72-5.37,2.65-10.67,11.67-4-4.54-4.57-4.68-8.13-6.79l5.29-3.15Z" /></symbol>
    <symbol id="plus" viewBox="0 0 1024 1024"><title>Plus</title><path d="M512 0c-282.77 0-512 229.23-512 512s229.23 512 512 512c282.77 0 512-229.23 512-512v0c0-282.77-229.23-512-512-512v0zM754.526 585.297h-169.229v169.229h-146.594v-169.229h-169.229v-146.594h169.229v-169.229h146.594v169.229h169.229z"></path></symbol>
    <symbol id="trash" viewBox="0 0 18 19"><title>trash</title><path d="M2.08,6.79V17a2.06,2.06,0,0,0,2.07,2h9.7a2.06,2.06,0,0,0,2.07-2V6.79Zm4.15,8.82a.69.69,0,0,1-1.38,0V9.5a.69.69,0,0,1,1.38,0Zm3.46,0a.69.69,0,0,1-1.38,0V9.5a.69.69,0,0,1,1.38,0Zm3.46,0a.69.69,0,0,1-1.38,0V9.5a.69.69,0,0,1,1.38,0Z" /><path d="M16.62,2.71H12.46V2a2.06,2.06,0,0,0-2.08-2H7.62A2.06,2.06,0,0,0,5.54,2v.67H1.38A1.37,1.37,0,0,0,0,4.07v.68a.69.69,0,0,0,.69.68H17.31A.69.69,0,0,0,18,4.75V4.07A1.37,1.37,0,0,0,16.62,2.71ZM6.92,2a.69.69,0,0,1,.7-.68h2.76a.69.69,0,0,1,.7.68v.67H6.92Z" /></symbol>
</svg>