<?xml version="1.0" encoding="UTF-8"?>
<svg width="17px" height="19px" viewBox="0 0 17 19" version="1.1" xmlns="http://www.w3.org/2000/svg" xmlns:xlink="http://www.w3.org/1999/xlink">
    <!-- Generator: Sketch 53.2 (72643) - https://sketchapp.com -->
    <title>Group 3</title>
    <desc>Created with Sketch.</desc>
    <g id="Home" stroke="none" stroke-width="1" fill="none" fill-rule="evenodd">
        <g id="home-like" transform="translate(-1186.000000, -402.000000)" fill="color[0]">
            <g id="Hover-Carrinho" transform="translate(1067.000000, 67.000000)">
                <g id="Group-46" transform="translate(27.000000, 35.000000)">
                    <g id="Group-36" transform="translate(0.000000, 253.000000)">
                        <g id="Group-3" transform="translate(92.000000, 47.000000)">
                            <path d="M16.2437242,8.62949423 C16.3614165,7.72998874 16.268944,6.83888984 15.9705099,5.95998049 C15.6678725,5.07770852 15.2181198,4.27487885 14.6170484,3.54770852 C14.0159769,2.82053819 13.3640456,2.31193929 12.6620951,2.01350522 C11.9647681,1.71507115 11.2623973,1.70246126 10.5650703,1.96726896 C9.95138901,2.19845027 9.42177363,2.75328544 8.96781758,3.62757115 C8.87534505,3.80410962 8.63533681,3.81671951 8.52226813,3.66119753 C8.32008956,3.37957665 8.06831209,3.08114258 7.75726813,2.75748874 C7.30289176,2.28671951 6.79050989,1.84537335 6.22306484,1.43345027 C5.65561978,1.0215272 5.05454835,0.676856868 4.42825714,0.403642582 C3.79776264,0.130428297 3.20467747,-0.0040771978 2.64185604,0.000126098901 C2.08281758,0.000126098901 1.58682857,0.180867857 1.15388901,0.538148077 C0.720949451,0.899631593 0.409905495,1.50910962 0.208147253,2.36658214 C0.0778450549,2.94243379 0.0105923077,3.53089533 0.00638901099,4.13617005 C0.00638901099,4.13617005 -0.0104241758,4.25386236 0.0105923077,4.50185687 L0.0105923077,4.50563984 C0.0274054945,4.93899973 0.0736417582,5.28787335 0.157287363,5.55268104 C0.203943956,5.68298324 0.25018022,5.80908214 0.296416484,5.92677445 C0.603257143,6.96078544 1.22114176,8.46976896 2.4443011,10.5041646 C2.99913626,11.4162799 3.44048242,12.2695492 3.78935604,13.0387525 C3.78935604,13.0471591 3.79355934,13.0555657 3.79776264,13.059769 C5.09237802,15.9096041 5.17644396,17.7044118 5.18064725,17.8389173 C5.18485055,17.8473239 5.18064725,17.8511069 5.18064725,17.8511069 C5.27732308,18.2714365 5.51649066,18.4694118 5.90781758,18.4273788 C6.35336703,18.4273788 6.68963077,18.3811426 6.92501538,18.2928734 C7.15199341,18.2046041 7.36215824,18.0406755 7.5386967,17.7968843 C7.87075714,17.3050986 8.24863352,16.7586701 8.68199341,16.149192 C8.8207022,15.9516371 8.95941099,15.7624887 9.09811978,15.581747 C10.3044659,14.009714 11.8176527,12.5343569 13.2173505,11.8782223 C13.5536143,11.7189173 14.1630923,11.3528102 14.6380648,11.0589997 C15.4913341,10.525181 16.1092187,9.65089533 16.2437242,8.65471401 L16.2437242,8.62949423 Z" id="Fill-1"></path>
                        </g>
                    </g>
                </g>
            </g>
        </g>
    </g>
</svg>