<?xml version="1.0" encoding="UTF-8"?>
<svg width="38px" height="36px" viewBox="0 0 38 36" version="1.1" xmlns="http://www.w3.org/2000/svg" xmlns:xlink="http://www.w3.org/1999/xlink">
    <!-- Generator: Sketch 53.2 (72643) - https://sketchapp.com -->
    <title>box (42)</title>
    <desc>Created with Sketch.</desc>
    <g id="Home" stroke="none" stroke-width="1" fill="none" fill-rule="evenodd">
        <g id="home-like" transform="translate(-725.000000, -615.000000)" fill="color[0]">
            <g id="Régua" transform="translate(315.000000, 612.000000)">
                <g id="Group-11" transform="translate(410.666667, 3.000000)">
                    <g id="box-(42)">
                        <g>
                            <path d="M34.006252,26.2958138 C33.8652617,25.9106721 33.4414961,25.7136923 33.0595723,25.8557976 L25.3942129,28.7080324 C25.0122891,28.8501377 24.8169551,29.2775466 24.957873,29.6626883 C25.0677891,29.9629312 25.3495527,30.148834 25.6494551,30.148834 C25.7341504,30.148834 25.8203633,30.1339676 25.9045527,30.1027045 L33.5699121,27.2504696 C33.9518359,27.1083644 34.1471699,26.6809555 34.006252,26.2958138 Z" id="Path" fill-rule="nonzero"></path>
                            <path d="M24.2333379,29.9323239 C24.0924922,29.5471093 23.668582,29.3501296 23.2866582,29.4922348 L22.962041,29.6129879 C22.5801895,29.7550931 22.3847832,30.182502 22.5257012,30.5675709 C22.6355449,30.8678138 22.9173809,31.0537895 23.2172832,31.0537895 C23.3019785,31.0537895 23.3881914,31.0389231 23.4723809,31.0076599 L23.796998,30.8869069 C24.1788496,30.7448016 24.3742559,30.3174656 24.2333379,29.9323239 Z" id="Path" fill-rule="nonzero"></path>
                            <path d="M34.006252,23.2670769 C33.8652617,22.8819352 33.4414961,22.6851012 33.0595723,22.8270607 L27.0019062,25.0810688 C26.6199824,25.2231741 26.4246484,25.650583 26.5655664,26.0357247 C26.6754824,26.3359676 26.9572461,26.5218704 27.2571484,26.5218704 C27.3418437,26.5218704 27.4280566,26.507004 27.5122461,26.4757409 L33.5699121,24.2217328 C33.9518359,24.0796275 34.1471699,23.6522186 34.006252,23.2670769 Z" id="Path" fill-rule="nonzero"></path>
                            <path d="M34.006252,20.2698219 C33.8652617,19.8846802 33.4414961,19.6878462 33.0595723,19.8298057 L27.0019062,22.0838138 C26.6199824,22.225919 26.4246484,22.6533279 26.5655664,23.0384696 C26.6754824,23.3387126 26.9572461,23.5246154 27.2571484,23.5246154 C27.3418437,23.5246154 27.4280566,23.509749 27.5122461,23.4784858 L33.5699121,21.2244777 C33.9518359,21.0823725 34.1471699,20.6549636 34.006252,20.2698219 Z" id="Path" fill-rule="nonzero"></path>
                            <path d="M36.5181328,6.67005668 L18.7551699,0.0606315789 C18.5904766,-0.000582995951 18.4095234,-0.000582995951 18.2449023,0.0606315789 L0.481939453,6.67005668 L0.481794922,6.67063968 C0.423621094,6.69235628 0.3676875,6.72106883 0.31565625,6.75757895 C0.117865234,6.89662348 0,7.12435628 0,7.36739271 L0,28.6326073 C0,28.9438543 0.192298828,29.2221619 0.481867188,29.3299433 L18.2448301,35.9393684 C18.3276465,35.9701943 18.4140039,35.9852794 18.4999277,35.9852794 C18.5867187,35.9852794 18.6730762,35.9693927 18.7548809,35.9389312 L18.7551699,35.9393684 L36.5181328,29.3299433 C36.8077012,29.2221619 37,28.9439271 37,28.6326073 L37,7.36739271 C37,7.05607287 36.8077012,6.77783806 36.5181328,6.67005668 Z M17.7629629,34.175587 L1.47407422,28.1146154 L1.47407422,8.43391093 L4.79077734,9.66811336 L4.79077734,18.6737976 C4.79077734,18.9850445 4.98307617,19.2633522 5.27264453,19.3711336 L13.2327754,22.3331174 C13.3155918,22.3639433 13.4019492,22.3790283 13.487873,22.3790283 C13.6365957,22.3790283 13.7840176,22.3336275 13.9093984,22.2455223 C14.1071172,22.1065506 14.2249824,21.8788178 14.2249824,21.6357814 L14.2249824,13.1784777 L17.7628184,14.4948826 L17.7629629,34.175587 L17.7629629,34.175587 Z M12.7509805,12.6299514 L12.7509805,20.5691174 L6.26492383,18.1556599 L6.26492383,10.2164939 L12.7509805,12.6299514 Z M7.65704883,9.14407287 L13.4880176,6.97438057 L19.3189863,9.14407287 L13.4880176,11.3137652 L7.65704883,9.14407287 Z M18.5,13.1845992 L15.6093027,12.1089717 L21.7033906,9.84133603 C21.992959,9.73355466 22.1852578,9.45531984 22.1852578,9.144 C22.1852578,8.83268016 21.992959,8.55444534 21.7033906,8.44666397 L13.7431875,5.48475304 C13.5784941,5.42353846 13.3976133,5.42353846 13.2328477,5.48475304 L5.51986523,8.35484211 L2.86627148,7.36739271 L18.5,1.55025911 L34.1337285,7.36746559 L18.5,13.1845992 Z M35.5259258,28.1146154 L19.2371094,34.1755142 L19.2371094,14.4948826 L35.5259258,8.43391093 L35.5259258,28.1146154 Z" id="Shape" fill-rule="nonzero"></path>
                        </g>
                    </g>
                </g>
            </g>
        </g>
    </g>
</svg>