<?xml version="1.0" encoding="UTF-8"?>
<svg width="38px" height="37px" viewBox="0 0 38 37" version="1.1" xmlns="http://www.w3.org/2000/svg" xmlns:xlink="http://www.w3.org/1999/xlink">
    <!-- Generator: Sketch 53.2 (72643) - https://sketchapp.com -->
    <title>badge (8)</title>
    <desc>Created with Sketch.</desc>
    <g id="Home" stroke="none" stroke-width="1" fill="none" fill-rule="evenodd">
        <g id="home-like" transform="translate(-1090.000000, -614.000000)" fill="color[0]">
            <g id="Régua" transform="translate(315.000000, 612.000000)">
                <g id="Group-10" transform="translate(775.333333, 2.000000)">
                    <g id="badge-(8)">
                        <g id="Shape">
                            <path d="M36.82,30.4303846 L32.3227692,23.6820769 L33.1110769,23.4359231 C33.4355385,23.3346154 33.6163846,22.9895385 33.5150769,22.6650769 C33.5109231,22.6516923 33.5063077,22.6384615 33.5012308,22.6254615 L32.1184615,19.0691538 L34.9344615,16.4506923 C35.1832308,16.2191538 35.1972308,15.8297692 34.9656923,15.581 C34.9556923,15.5702308 34.9452308,15.5598462 34.9344615,15.5497692 L32.1184615,12.9319231 L33.5018462,9.37561538 C33.625,9.05884615 33.4680769,8.70223077 33.1513077,8.579 C33.1382308,8.57392308 33.125,8.56930769 33.1116923,8.56515385 L29.4095385,7.41069231 L29.0858462,3.61376923 C29.0715385,3.44476923 28.9886154,3.28907692 28.8563077,3.183 C28.7246923,3.07723077 28.5551538,3.03061538 28.388,3.05438462 L24.5350769,3.58792308 L22.5622308,0.299307692 C22.3875385,0.00776923077 22.0095385,-0.0869230769 21.7180769,0.0877692308 C21.7105385,0.0923076923 21.7031538,0.0969230769 21.6957692,0.101769231 L18.4619231,2.23038462 L15.2286923,0.101769231 C14.9449231,-0.0852307692 14.5632308,-0.00676923077 14.3762308,0.277 C14.3713846,0.284307692 14.3667692,0.291769231 14.3622308,0.299307692 L12.3893077,3.58915385 L8.537,3.05561538 C8.20038462,3.00884615 7.88953846,3.24384615 7.84276923,3.58046154 C7.84123077,3.59130769 7.84007692,3.60223077 7.83915385,3.61315385 L7.51484615,7.41007692 L3.81576923,8.56453846 C3.49130769,8.66584615 3.31046154,9.01092308 3.41176923,9.33538462 C3.41592308,9.34876923 3.42053846,9.362 3.42561538,9.375 L4.80838462,12.9313077 L1.98930769,15.5497692 C1.74053846,15.7813077 1.72653846,16.1706923 1.95807692,16.4194615 C1.96807692,16.4302308 1.97853846,16.4406154 1.98930769,16.4506923 L4.80530769,19.0685385 L3.42192308,22.6248462 C3.29876923,22.9416154 3.45569231,23.2982308 3.77246154,23.4214615 C3.78553846,23.4265385 3.79876923,23.4311538 3.81207692,23.4353077 L4.62869231,23.6894615 L0.0914615385,31.0623846 C-0.0866923077,31.3518462 0.00346153846,31.7308462 0.292923077,31.909 C0.422307692,31.9886154 0.576538462,32.0176154 0.725923077,31.9903846 L6.9,30.8679231 L8.01261538,36.431 C8.06138462,36.675 8.25223077,36.8656154 8.49630769,36.9140769 C8.53569231,36.9210769 8.57569231,36.9241538 8.61569231,36.9233077 C8.82138462,36.9233077 9.01353846,36.8206154 9.12769231,36.6494615 L13.4452308,30.1731538 L14.3615385,31.7011538 C14.4478462,31.8451538 14.5892308,31.9476154 14.7529231,31.9848462 C14.7987692,31.9953846 14.8456154,32.0005385 14.8926154,32.0002308 C15.0129231,32.0002308 15.1306154,31.9649231 15.2310769,31.8986923 L18.4618462,29.7700769 L21.6950769,31.8986923 C21.9788462,32.0856923 22.3605385,32.0072308 22.5475385,31.7234615 C22.5523846,31.7161538 22.557,31.7086923 22.5615385,31.7011538 L23.4784615,30.1725385 L27.796,36.6494615 C27.9101538,36.8206154 28.1023077,36.9233077 28.308,36.9233077 C28.3480769,36.9233846 28.3880769,36.9194615 28.4273846,36.9116154 C28.6714615,36.8631538 28.8623077,36.6725385 28.9110769,36.4285385 L30.0310769,30.8168462 L36.2526154,31.3848462 C36.5910769,31.4154615 36.8903077,31.1659231 36.921,30.8274615 C36.9336923,30.6874615 36.8980769,30.5473077 36.82,30.4303846 Z M8.92961538,34.7300769 L7.98807692,30.031 C7.92230769,29.7019231 7.60507692,29.4862308 7.27484615,29.5460769 L1.86253846,30.5306923 L5.841,24.0679231 L7.51423077,24.5897692 L7.83792308,28.3866923 C7.85223077,28.5556923 7.93515385,28.7113846 8.06746154,28.8174615 C8.19930769,28.9226923 8.36861538,28.9692308 8.53576923,28.9460769 L12.3886923,28.4125385 L12.745,29.007 L8.92961538,34.7300769 Z M23.6883846,27.4322308 L21.8360769,30.5202308 L18.8003846,28.519 C18.595,28.3837692 18.3288462,28.3837692 18.1234615,28.519 L15.0871538,30.5177692 L13.2348462,27.4291538 C13.1237692,27.2437692 12.9235385,27.1302308 12.7074615,27.1300769 C12.679,27.13 12.6506154,27.1320769 12.6225385,27.1362308 L9.00961538,27.6359231 L8.70561538,24.0734615 C8.68430769,23.824 8.514,23.6123077 8.27484615,23.5380769 L4.80838462,22.4562308 L6.10069231,19.1257692 C6.19215385,18.8906923 6.13092308,18.6236923 5.94623077,18.4519231 L3.31238462,16.0002308 L5.94930769,13.5485385 C6.134,13.3767692 6.19523077,13.1097692 6.10376923,12.8746923 L4.81146154,9.543 L8.27915385,8.46176923 C8.51830769,8.38753846 8.68861538,8.17584615 8.70992308,7.92638462 L9.01392308,4.36392308 L12.6268462,4.86423077 C12.8723846,4.89930769 13.115,4.78361538 13.2422308,4.57069231 L15.0945385,1.48269231 L18.1234615,3.48146154 C18.3288462,3.61669231 18.595,3.61669231 18.8003846,3.48146154 L21.8366923,1.48269231 L23.689,4.57130769 C23.8166923,4.782 24.0571538,4.897 24.3013077,4.86423077 L27.9142308,4.36453846 L28.2182308,7.927 C28.2395385,8.17646154 28.4098462,8.38815385 28.649,8.46238462 L32.1166923,9.54423077 L30.8206923,12.8746923 C30.7292308,13.1097692 30.7904615,13.3767692 30.9751538,13.5485385 L33.6114615,16.0002308 L30.9745385,18.4519231 C30.7898462,18.6236923 30.7286154,18.8906923 30.8200769,19.1257692 L32.1123846,22.4574615 L28.6477692,23.5386923 C28.4086154,23.6129231 28.2383077,23.8246154 28.217,24.0740769 L27.913,27.6365385 L24.3006923,27.1386923 C24.0563077,27.106 23.8159231,27.2213077 23.6883846,27.4322308 Z M29.5942308,29.5386923 C29.2823846,29.5145385 29.0008462,29.7250769 28.9357692,30.031 L27.9960769,34.7282308 L24.1806923,29.0051538 L24.5363846,28.4119231 L28.3886923,28.9454615 C28.7253077,28.9922308 29.0361538,28.7572308 29.0829231,28.4206154 C29.0844615,28.4097692 29.0856154,28.3988462 29.0865385,28.3879231 L29.4108462,24.591 L31.1000769,24.0642308 L35.0822308,30.0402308 L29.5942308,29.5386923 Z" fill-rule="nonzero"></path>
                            <path d="M27.6926154,12.9233077 C27.6926154,11.9036923 26.8660769,11.0771538 25.8464615,11.0771538 L21.5387692,11.0771538 L21.5387692,8.61561538 C21.5404615,6.918 20.1656154,5.54038462 18.468,5.53869231 C18.4659231,5.53869231 18.4639231,5.53869231 18.4618462,5.53869231 C18.122,5.53869231 17.8464615,5.81423077 17.8464615,6.15407692 L17.8464615,9.08576923 L16.7387692,11.2962308 L14.7584615,12.8808462 C14.7384615,12.5609231 14.4746923,12.3108462 14.1541538,12.3079231 L9.84646154,12.3079231 C9.50661538,12.3079231 9.23107692,12.5834615 9.23107692,12.9233077 L9.23107692,22.1540769 C9.23107692,22.4939231 9.50661538,22.7694615 9.84646154,22.7694615 L14.1541538,22.7694615 C14.494,22.7694615 14.7695385,22.4939231 14.7695385,22.1540769 L24.0003077,22.1540769 C25.0178462,22.149 25.8413846,21.3254615 25.8464615,20.3079231 C25.8443846,19.9905385 25.7595385,19.6791538 25.6003077,19.4045385 C25.7138462,19.3336923 25.8187692,19.2498462 25.9129231,19.1546923 C26.5096154,18.5743846 26.6344615,17.6623077 26.2156923,16.943 C26.3292308,16.8721538 26.4341538,16.7883077 26.5283077,16.6931538 C27.125,16.1128462 27.2498462,15.2007692 26.8310769,14.4814615 C26.9446154,14.4106154 27.0495385,14.3267692 27.1436923,14.2316154 C27.4969231,13.8882308 27.6951538,13.4158462 27.6926154,12.9233077 Z M13.5388462,21.5386923 L10.4619231,21.5386923 L10.4619231,13.5386923 L13.5388462,13.5386923 L13.5388462,21.5386923 Z M26.2735385,13.3614615 C26.1613077,13.4763077 26.007,13.5403077 25.8464615,13.5386923 L23.3849231,13.5386923 L23.3849231,14.7694615 L25.2310769,14.7694615 C25.5709231,14.7694615 25.8464615,15.045 25.8464615,15.3848462 C25.847,15.5506923 25.7788462,15.7093077 25.6581538,15.823 C25.5459231,15.9378462 25.3916154,16.0018462 25.2310769,16.0002308 L22.7695385,16.0002308 L22.7695385,17.231 L24.6156923,17.231 C24.9555385,17.231 25.2310769,17.5065385 25.2310769,17.8463846 C25.2316154,18.0122308 25.1634615,18.1708462 25.0427692,18.2845385 C24.9305385,18.3993846 24.7762308,18.4633846 24.6156923,18.4617692 L22.1541538,18.4617692 L22.1541538,19.6925385 L24.0003077,19.6925385 C24.3401538,19.6925385 24.6156923,19.9680769 24.6156923,20.3079231 C24.6162308,20.4737692 24.5480769,20.6323846 24.4273846,20.7460769 C24.3151538,20.8609231 24.1608462,20.9249231 24.0003077,20.9233077 L14.7695385,20.9233375 L14.7695385,14.4494615 L17.6156923,12.1731538 C17.6852308,12.1173846 17.7419231,12.0473077 17.7818462,11.9676154 L19.0126154,9.50607692 C19.0552308,9.42061538 19.0773077,9.32646154 19.0772308,9.231 L19.0772308,6.87469231 C19.8161538,7.134 20.31,7.83253846 20.308,8.61561538 L20.308,11.6925385 C20.308,12.0323846 20.5835385,12.3079231 20.9233846,12.3079231 L25.8464615,12.3079231 C26.1863077,12.3079231 26.4618462,12.5834615 26.4618462,12.9233077 C26.4624615,13.0890769 26.3942308,13.2476923 26.2735385,13.3614615 Z" fill-rule="nonzero"></path>
                        </g>
                    </g>
                </g>
            </g>
        </g>
    </g>
</svg>