<?xml version="1.0" encoding="UTF-8"?>
<svg width="30px" height="37px" viewBox="0 0 30 37" version="1.1" xmlns="http://www.w3.org/2000/svg" xmlns:xlink="http://www.w3.org/1999/xlink">
    <!-- Generator: Sketch 53.2 (72643) - https://sketchapp.com -->
    <title>secure-shield (1)</title>
    <desc>Created with Sketch.</desc>
    <g id="Home" stroke="none" stroke-width="1" fill="none" fill-rule="evenodd">
        <g id="home-like" transform="translate(-1447.000000, -612.000000)" fill="color[0]">
            <g id="Régua" transform="translate(315.000000, 612.000000)">
                <g id="Group-9" transform="translate(1132.000000, 0.000000)">
                    <g id="secure-shield-(1)">
                        <g>
                            <path d="M29.4106164,6.37662183 C24.5856164,4.98446979 19.7322603,2.81676023 15.3752055,0.107898635 C15.1437671,-0.0359902534 14.8565753,-0.0359902534 14.6252055,0.107898635 C10.1424658,2.89458285 5.55136986,4.94501754 0.589383562,6.37662183 C0.268835616,6.46901365 0.0466438356,6.77583236 0.0466438356,7.1258538 L0.0466438356,15.0628947 C0.0466438356,23.2362885 3.62739726,28.6465107 6.63136986,31.7457836 C9.86534247,35.0826355 13.6324658,36.9279474 15.0002055,36.9279474 C16.3678082,36.9279474 20.1349315,35.0826355 23.3689041,31.7457836 C26.3728082,28.6465828 29.9533562,23.2363606 29.9533562,15.0628947 L29.9533562,7.12578168 C29.9533562,6.77583236 29.7311644,6.46901365 29.4106164,6.37662183 Z M28.4780137,15.0628226 C28.4780137,22.6967232 25.1382192,27.7450955 22.3363014,30.636 C19.1560959,33.9173158 15.7558904,35.3742359 15.0002055,35.3742359 C14.2445205,35.3742359 10.8441096,33.9173158 7.66383562,30.636 C4.8619863,27.7450234 1.52205479,22.6967232 1.52205479,15.0628226 L1.52205479,7.71547368 C6.26712329,6.29677973 10.6861644,4.31688304 15.0003425,1.67690058 C19.2067808,4.2468499 23.8463014,6.32519688 28.4780137,7.71518519 L28.4780137,15.0628226 Z" id="Shape" fill-rule="nonzero"></path>
                            <path d="M8.46150685,7.62856335 C8.31219178,7.22935283 7.88390411,7.03324561 7.50472603,7.19054971 C6.18691781,7.73732749 4.83431507,8.24061404 3.48452055,8.68648928 C3.17691781,8.78818519 2.96760274,9.08822417 2.96760274,9.42764327 L2.96760274,12.427384 C2.96760274,12.8563821 3.29794521,13.2041676 3.70527397,13.2041676 C4.11260274,13.2041676 4.44294521,12.8563821 4.44294521,12.427384 L4.44294521,9.99533723 C5.65383562,9.58278363 6.86342466,9.12645029 8.04554795,8.63592982 C8.42465753,8.47876998 8.61089041,8.02777388 8.46150685,7.62856335 Z" id="Path" fill-rule="nonzero"></path>
                            <path d="M9.86280822,7.77591423 C9.96178082,7.77591423 10.0622603,7.75492593 10.1586301,7.71064133 L10.1721918,7.7044386 C10.545411,7.53220468 10.7134932,7.07471735 10.5499315,6.6818538 C10.3862329,6.288846 9.94931507,6.11105848 9.57650685,6.28314815 L9.56458904,6.2885575 C9.19116438,6.46028655 9.02253425,6.91741326 9.18561644,7.31049318 C9.30664384,7.60230994 9.57821918,7.77591423 9.86280822,7.77591423 Z" id="Path" fill-rule="nonzero"></path>
                            <path d="M23.7891781,25.0477018 C23.4482877,24.8130799 22.9911644,24.9139825 22.7680822,25.2730916 C22.1602055,26.2528343 21.4470548,27.1910331 20.6481507,28.0613626 C19.9911644,28.7769844 19.2792466,29.4439942 18.5321918,30.0437115 C18.2082877,30.3037934 18.1459589,30.7912125 18.3928767,31.1324347 C18.5381507,31.3328694 18.7578082,31.4383158 18.98,31.4383158 C19.1360274,31.4383158 19.2932192,31.3864581 19.4267808,31.2791365 C20.2326027,30.6321053 21.000411,29.9128051 21.7087671,29.1412144 C22.5725342,28.2004191 23.3444521,27.1849025 24.0032192,26.1228655 C24.2261644,25.7636842 24.1302055,25.2823236 23.7891781,25.0477018 Z" id="Path" fill-rule="nonzero"></path>
                            <path d="M16.8190411,31.2619708 L16.7767123,31.2882242 C16.4241781,31.5032281 16.3036986,31.978386 16.5078082,32.3496121 C16.644589,32.5984425 16.8921918,32.7373548 17.1469178,32.7373548 C17.2722603,32.7373548 17.3995205,32.7036725 17.5157534,32.6326296 L17.564589,32.6024094 C17.9161644,32.3856023 18.0342466,31.9097953 17.8283562,31.5395789 C17.6223288,31.1695068 17.170411,31.0453801 16.8190411,31.2619708 Z" id="Path" fill-rule="nonzero"></path>
                            <path d="M9.97184932,16.8785634 C9.51890411,16.4015302 8.91650685,16.1389961 8.27582192,16.1389961 C7.63513699,16.1389961 7.03267123,16.4016023 6.57952055,16.8785634 C5.64438356,17.863499 5.64438356,19.4661111 6.57952055,20.4509747 L10.935411,25.0376764 C11.3884247,25.5145653 11.9908219,25.7771715 12.6315753,25.7771715 C13.2723288,25.7771715 13.874726,25.5145653 14.3278082,25.0375322 L23.4210274,15.4621053 C24.3560959,14.4769532 24.3560959,12.8745575 23.4208904,11.8899825 C22.9678767,11.4129493 22.3654795,11.1504152 21.7246575,11.1504152 C21.0839041,11.1504152 20.4815068,11.4130214 20.0284247,11.8899825 L12.6315068,19.6790955 L9.97184932,16.8785634 Z M21.0717123,12.9885867 C21.2460274,12.8050292 21.4780137,12.7039825 21.724726,12.7039825 C21.9715753,12.7039825 22.2033562,12.8050292 22.3778082,12.9885867 C22.7377397,13.3676023 22.7377397,13.9845575 22.3776712,14.3637173 L13.284589,23.939 C13.110274,24.1225575 12.8782877,24.2236043 12.6315753,24.2236043 C12.384863,24.2236043 12.1528767,24.1225575 11.9784932,23.939 L7.62273973,19.3524425 C7.26267123,18.9732827 7.26267123,18.3563275 7.62260274,17.9773119 C7.7969863,17.7937544 8.0289726,17.6925634 8.27575342,17.6925634 C8.52253425,17.6925634 8.75438356,17.7936101 8.92869863,17.9771676 L12.109863,21.3270741 C12.2482877,21.472694 12.4358219,21.5545556 12.6315068,21.5545556 C12.8271918,21.5545556 13.014726,21.4727661 13.1530137,21.3270741 L21.0717123,12.9885867 Z" id="Shape" fill-rule="nonzero"></path>
                        </g>
                    </g>
                </g>
            </g>
        </g>
    </g>
</svg>