<?xml version="1.0" encoding="UTF-8"?>
<svg width="36px" height="26px" viewBox="0 0 36 26" version="1.1" xmlns="http://www.w3.org/2000/svg" xmlns:xlink="http://www.w3.org/1999/xlink">
    <!-- Generator: Sketch 53.2 (72643) - https://sketchapp.com -->
    <title>noun_Truck_863659</title>
    <desc>Created with Sketch.</desc>
    <g id="Home" stroke="none" stroke-width="1" fill="none" fill-rule="evenodd">
        <g id="home-like" transform="translate(-315.000000, -619.000000)" fill="color[0]">
            <g id="Régua" transform="translate(315.000000, 612.000000)">
                <g id="Group-13" transform="translate(0.000000, 6.000000)">
                    <g id="noun_Truck_863659" transform="translate(0.000000, 1.000000)">
                        <g id="Shape">
                            <path d="M32.9142857,0.0962962963 L15.4285714,0.0962962963 C13.8857143,0.0962962963 12.6,1.3 12.6,2.74444444 L12.6,3.46666667 L8.17714286,3.46666667 C6.27428571,3.46666667 4.47428571,4.33333333 3.34285714,5.82592593 L1.33714286,8.52222222 C0.617142857,9.48518519 0.257142857,10.5444444 0.257142857,11.7 L0.257142857,21.5222222 C0.257142857,21.9074074 0.617142857,22.2444444 1.02857143,22.2444444 L3.13714286,22.2444444 C3.39428571,24.2666667 5.24571429,25.8555556 7.45714286,25.8555556 C9.66857143,25.8555556 11.52,24.2666667 11.7771429,22.2444444 L13.3714286,22.2444444 L13.8857143,22.2444444 L23.1942857,22.2444444 C23.4514286,24.2666667 25.3028571,25.8555556 27.5142857,25.8555556 C29.7257143,25.8555556 31.5771429,24.2666667 31.8342857,22.2444444 L32.9142857,22.2444444 C34.4571429,22.2444444 35.7428571,21.0407407 35.7428571,19.5962963 L35.7428571,16.7074074 L35.7428571,15.262963 L35.7428571,2.74444444 C35.7428571,1.3 34.4571429,0.0962962963 32.9142857,0.0962962963 Z M7.45714286,23.0148148 C6.73714286,23.0148148 6.17142857,22.4851852 6.17142857,21.8111111 C6.17142857,21.137037 6.73714286,20.6074074 7.45714286,20.6074074 C8.17714286,20.6074074 8.74285714,21.137037 8.74285714,21.8111111 C8.74285714,22.437037 8.17714286,23.0148148 7.45714286,23.0148148 Z M12.6,20.8 L11.7257143,20.8 C11.2628571,19.0185185 9.51428571,17.6703704 7.45714286,17.6703704 C5.4,17.6703704 3.70285714,19.0185185 3.18857143,20.8 L1.8,20.8 L1.8,17.1888889 L4.26857143,17.1888889 L4.26857143,15.7444444 L1.8,15.7444444 L1.8,14.3 L6.42857143,14.3 C7.97142857,14.3 9.25714286,13.0962963 9.25714286,11.6518519 L9.25714286,9.24444444 C9.25714286,7.8 7.97142857,6.5962963 6.42857143,6.5962963 L4.68,6.5962963 C5.50285714,5.53703704 6.84,4.91111111 8.22857143,4.91111111 L12.6514286,4.91111111 L12.6514286,20.8 L12.6,20.8 Z M27.4114286,23.0148148 C26.6914286,23.0148148 26.1257143,22.4851852 26.1257143,21.8111111 C26.1257143,21.137037 26.6914286,20.6074074 27.4114286,20.6074074 C28.1314286,20.6074074 28.6971429,21.137037 28.6971429,21.8111111 C28.6971429,22.437037 28.1314286,23.0148148 27.4114286,23.0148148 Z M34.2,19.6444444 C34.2,20.3185185 33.6342857,20.8481481 32.9142857,20.8481481 L31.7828571,20.8481481 C31.32,19.0666667 29.5714286,17.7185185 27.5142857,17.7185185 C25.4571429,17.7185185 23.76,19.0666667 23.2457143,20.8481481 L14.1428571,20.8481481 L14.1428571,16.7555556 L34.2,16.7555556 L34.2,19.6444444 Z M34.2,15.3111111 L14.1428571,15.3111111 L14.1428571,11.9407407 L23.2971429,11.9407407 L23.2971429,10.4962963 L14.1428571,10.4962963 L14.1428571,9.05185185 L19.1828571,9.05185185 L19.1828571,7.60740741 L14.1428571,7.60740741 L14.1428571,2.79259259 C14.1428571,2.11851852 14.7085714,1.58888889 15.4285714,1.58888889 L32.9142857,1.58888889 C33.6342857,1.58888889 34.2,2.11851852 34.2,2.79259259 L34.2,15.3111111 Z" fill-rule="nonzero"></path>
                        </g>
                    </g>
                </g>
            </g>
        </g>
    </g>
</svg>