<svg width="40" height="33" xmlns="http://www.w3.org/2000/svg" viewBox="0 0 40.39 33.97"><title>envio-imediato</title><path d="M40,.46A1.41,1.41,0,0,0,38.9,0H15a1.38,1.38,0,0,0-1.05.46,1.49,1.49,0,0,0-.45,1.08V6.18H9.72a3.45,3.45,0,0,0-1.36.31,3.6,3.6,0,0,0-1.18.77L2.55,12a3.53,3.53,0,0,0-.53.72,4.48,4.48,0,0,0-.33.74,4.06,4.06,0,0,0-.15.89q0,.57-.06.84v.91c0,.44,0,.72,0,.85v7.72a1.42,1.42,0,0,0-1.06.46A1.5,1.5,0,0,0,0,26.25a2.06,2.06,0,0,0,.09.64.93.93,0,0,0,.32.45l.38.28a1.28,1.28,0,0,0,.55.14l.53,0a5.55,5.55,0,0,0,.6,0h2a6,6,0,0,0,1.75,4.36A5.67,5.67,0,0,0,10.47,34a5.67,5.67,0,0,0,4.23-1.81,6,6,0,0,0,1.76-4.36h9a6.06,6.06,0,0,0,1.75,4.36,5.86,5.86,0,0,0,8.47,0A6.06,6.06,0,0,0,37.4,27.8h.52a5.55,5.55,0,0,0,.6,0l.53,0a1.28,1.28,0,0,0,.55-.14l.38-.28a.93.93,0,0,0,.32-.45,2.06,2.06,0,0,0,.09-.64V1.54A1.52,1.52,0,0,0,40,.46ZM12.58,30a2.87,2.87,0,0,1-2.11.92A2.83,2.83,0,0,1,8.37,30a3.1,3.1,0,0,1,0-4.35,2.82,2.82,0,0,1,2.1-.91,2.86,2.86,0,0,1,2.11.91,3.13,3.13,0,0,1,0,4.35Zm.88-14.53h-9v-.72a.72.72,0,0,1,.21-.53L9.26,9.48a.69.69,0,0,1,.51-.21h3.69ZM33.52,30a2.87,2.87,0,0,1-4.21,0,3.1,3.1,0,0,1,0-4.35,2.89,2.89,0,0,1,4.21,0,3.1,3.1,0,0,1,0,4.35Z" fill="#434343"/></svg>