<svg width="29px" height="40px" viewBox="0 0 29 40" xmlns="http://www.w3.org/2000/svg" >
    <path d="M28.0979959,2.53578732 C27.7135378,1.60327198 26.5356237,0.0327198364 22.9528016,0 C22.9119018,0 22.879182,0 22.8382822,0 C20.6378732,0 18.0202863,0.580777096 15.4435992,1.64417178 C14.9691616,1.8404908 14.5110838,2.04498978 14.0693661,2.26584867 L14.0448262,2.24130879 C12.5724335,0.809815951 10.2247853,0.809815951 8.75239264,2.24130879 L1.53766871,9.25153374 C0.580613497,10.1758691 0.0407361963,11.4519427 0.0407361963,12.7852761 L0.0407361963,36.5316973 C0.0407361963,38.4458078 1.59492843,40 3.50903885,40 L19.2963599,40 C21.2104703,40 22.7646626,38.4458078 22.7646626,36.5316973 L22.7646626,12.7852761 C22.7646626,12.1063395 22.6256033,11.4355828 22.3556646,10.8302658 C23.885317,9.97137014 25.2186503,8.98977505 26.2411452,7.9591002 C28.7442127,5.41513292 28.482454,3.46830266 28.0979959,2.53578732 Z M4.37611452,23.3701431 C4.37611452,21.7177914 5.72580777,20.3680982 7.37815951,20.3680982 C9.03051125,20.3680982 10.3802045,21.7177914 10.3802045,23.3701431 C10.3802045,25.0224949 9.03051125,26.3721881 7.37815951,26.3721881 C5.72580777,26.3721881 4.38429448,25.0306748 4.37611452,23.3701431 Z M6.92826176,31.2229039 C6.61742331,30.9611452 6.57652352,30.5030675 6.83010225,30.192229 L14.7155828,20.6952965 C14.9773415,20.3844581 15.4354192,20.3435583 15.7462577,20.597137 C16.0570961,20.8588957 16.0979959,21.3169734 15.8444172,21.6278119 L7.95893661,31.1247444 C7.69717791,31.4355828 7.2391002,31.4764826 6.92826176,31.2229039 Z M15.3045399,31.4355828 C13.6521881,31.4355828 12.3024949,30.0858896 12.3024949,28.4335378 C12.3024949,26.7811861 13.6521881,25.4314928 15.3045399,25.4314928 C16.9568916,25.4314928 18.3065849,26.7811861 18.3065849,28.4335378 C18.3065849,30.0858896 16.9568916,31.4355828 15.3045399,31.4355828 Z M18.6337832,9.38241309 C17.1286708,10.00409 15.5826585,10.4458078 14.1757055,10.6584867 C14.1757055,10.7239264 14.1838855,10.7811861 14.1838855,10.8466258 C14.1838855,12.4335378 12.8996319,13.7177914 11.3127198,13.7177914 C9.72580777,13.7177914 8.44155419,12.4335378 8.44155419,10.8466258 C8.44155419,9.2597137 9.72580777,7.97546012 11.3127198,7.97546012 C12.2615951,7.97546012 13.0959509,8.43353783 13.6194683,9.13701431 C14.9528016,8.90797546 16.3924744,8.49079755 17.8076074,7.91002045 C18.3065849,7.70552147 18.7728425,7.49284254 19.2145603,7.27198364 L16.3188548,4.44989775 C16.4006544,4.41717791 16.482454,4.38445808 16.5642536,4.34355828 C18.7646626,3.43558282 21.0468712,2.9202454 22.8464622,2.9202454 C22.871002,2.9202454 22.9037219,2.9202454 22.9282618,2.9202454 C24.6542331,2.93660532 25.3004499,3.40286299 25.3986094,3.64826176 C25.7012679,4.400818 23.7789775,7.26380368 18.6337832,9.38241309 Z"></path>        
</svg>