<svg width="22px" height="22px" viewBox="0 0 22 22" version="1.1" xmlns="http://www.w3.org/2000/svg" xmlns:xlink="http://www.w3.org/1999/xlink">
    <g id="Symbols" stroke="none" stroke-width="1" fill="none" fill-rule="evenodd">
        <g id="Topo" transform="translate(-973.000000, -22.000000)" fill="color[0]">
            <g id="topo">
                <g transform="translate(315.000000, 0.000000)">
                    <g id="busca" transform="translate(175.000000, 5.000000)">
                        <g id="noun_Search_875352" transform="translate(483.000000, 17.000000)">
                            <g id="Shape">
                                <path d="M21.5707317,19.8536585 L17.6536585,15.9634146 C20.7121951,12.0463415 20.3902439,6.46585366 16.8756098,2.95121951 C15.0243902,1.1 12.5560976,0.0804878049 9.92682927,0.0804878049 C7.29756098,0.0804878049 4.82926829,1.1 2.97804878,2.95121951 C1.12682927,4.80243902 0.107317073,7.27073171 0.107317073,9.9 C0.107317073,12.5292683 1.12682927,14.997561 2.97804878,16.8487805 C4.82926829,18.7 7.29756098,19.7195122 9.92682927,19.7195122 C12.1,19.7195122 14.2463415,18.995122 15.9634146,17.6268293 L19.8536585,21.5707317 C20.095122,21.8121951 20.3902439,21.9195122 20.7121951,21.9195122 C21.0341463,21.9195122 21.3292683,21.7853659 21.5707317,21.5707317 C22.0536585,21.1146341 22.0536585,20.3365854 21.5707317,19.8536585 Z M17.3317073,9.9 C17.3317073,11.8853659 16.5536585,13.7365854 15.1585366,15.1317073 C13.7634146,16.5268293 11.8853659,17.304878 9.92682927,17.304878 C7.96829268,17.304878 6.0902439,16.5268293 4.69512195,15.1317073 C3.3,13.7365854 2.52195122,11.8585366 2.52195122,9.9 C2.52195122,7.91463415 3.3,6.06341463 4.69512195,4.66829268 C6.0902439,3.27317073 7.96829268,2.49512195 9.92682927,2.49512195 C11.9121951,2.49512195 13.7634146,3.27317073 15.1585366,4.66829268 C16.5536585,6.06341463 17.3317073,7.91463415 17.3317073,9.9 Z" fill-rule="nonzero" transform="translate(11.020122, 11.000000) scale(-1, 1) translate(-11.020122, -11.000000) "></path>
                            </g>
                        </g>
                    </g>
                </g>
            </g>
        </g>
    </g>
</svg>