<?xml version="1.0" encoding="UTF-8"?>
<svg width="25px" height="29px" viewBox="0 0 25 29" version="1.1" xmlns="http://www.w3.org/2000/svg" xmlns:xlink="http://www.w3.org/1999/xlink">
    <!-- Generator: Sketch 55.2 (78181) - https://sketchapp.com -->
    <title>1656850</title>
    <desc>Created with Sketch.</desc>
    <g id="Symbols" stroke="none" stroke-width="1" fill="none" fill-rule="evenodd">
        <g id="topo-taitapoema" transform="translate(-1553.000000, -32.000000)" fill="#FFFFFF">
            <g id="carrinho">
                <g transform="translate(1553.000000, 31.000000)">
                    <g id="1656850" transform="translate(0.000000, 1.000000)">
                        <g id="Shape">
                            <path d="M24.946773,28.0468445 L22.7556658,7.05728911 C22.709697,6.61788179 22.3415065,6.28423311 21.9022734,6.28423311 L17.7839949,6.28423311 L17.7839949,5.33970645 C17.7839949,2.3955002 15.4026341,-2.84217094e-14 12.4758059,-2.84217094e-14 C9.54875777,-2.84217094e-14 7.1673969,2.3955002 7.1673969,5.33970645 L7.1673969,6.28423311 L3.04911847,6.28423311 C2.60988525,6.28423311 2.24169482,6.61788179 2.19572601,7.05728911 L0.00461887387,28.0468445 C-0.020675,28.2900009 0.0578459459,28.5327148 0.220386374,28.7145844 C0.383146847,28.8962326 0.614970439,29 0.858011318,29 L24.0931605,29 C24.3364214,29 24.568245,28.8962326 24.7307855,28.7145844 C24.8937658,28.5327148 24.9720668,28.2900009 24.946773,28.0468445 Z M8.88341954,5.33970645 C8.88341954,3.34732817 10.4949676,1.72621152 12.4758059,1.72621152 C14.4564242,1.72621152 16.0679723,3.34732817 16.0679723,5.33970645 L16.0679723,6.28423311 L8.88341954,6.28423311 L8.88341954,5.33970645 Z M1.81081959,27.2737885 L3.82179054,8.01044463 L7.1673969,8.01044463 L7.1673969,9.91255185 C7.1673969,10.3891296 7.55164347,10.7756577 8.02540822,10.7756577 C8.49917297,10.7756577 8.88341954,10.3891296 8.88341954,9.91255185 L8.88341954,8.01044463 L16.0679723,8.01044463 L16.0679723,9.91255185 C16.0679723,10.3891296 16.4522188,10.7756577 16.9259836,10.7756577 C17.3997484,10.7756577 17.7839949,10.3891296 17.7839949,9.91255185 L17.7839949,8.01044463 L21.1296013,8.01044463 L23.1405722,27.2737885 L1.81081959,27.2737885 Z" fill-rule="nonzero"></path>
                        </g>
                    </g>
                </g>
            </g>
        </g>
    </g>
</svg>