<?xml version="1.0" encoding="UTF-8"?>
<svg width="23px" height="30px" viewBox="0 0 23 30" version="1.1" xmlns="http://www.w3.org/2000/svg" xmlns:xlink="http://www.w3.org/1999/xlink">
    <!-- Generator: Sketch 53.2 (72643) - https://sketchapp.com -->
    <title>noun_bag_808527</title>
    <desc>Created with Sketch.</desc>
    <defs>
        <linearGradient x1="0%" y1="1.3671875%" x2="100.397892%" y2="1.3671875%" id="linearGradient-1">
            <stop stop-color="color[0]" offset="0%"></stop>
            <stop stop-color="color[0]" offset="100%"></stop>
        </linearGradient>
        <linearGradient x1="0%" y1="1.3671875%" x2="100.397892%" y2="1.3671875%" id="linearGradient-2">
            <stop stop-color="color[0]" offset="0%"></stop>
            <stop stop-color="color[0]" offset="100%"></stop>
        </linearGradient>
    </defs>
    <g id="Symbols" stroke="none" stroke-width="1" fill="none" fill-rule="evenodd">
        <g id="Topo" transform="translate(-1554.000000, -18.000000)">
            <g id="topo">
                <g transform="translate(315.000000, 0.000000)">
                    <g id="cart" transform="translate(1239.000000, 16.000000)">
                        <g id="noun_bag_808527" transform="translate(0.000000, 2.000000)">
                            <g>
                                <polygon id="Rectangle" fill="#FFFFFF" points="3.44711581 9.82985924 19.0883512 9.82985924 21.9545455 27.4137931 1.04545455 27.4137931"></polygon>
                                <g id="Group" fill-rule="nonzero">
                                    <path d="M23,25.1896552 L20.3863636,9.67241379 C20.2818182,9.15517241 19.8636364,8.79310345 19.3409091,8.79310345 L17.7727273,8.79310345 L17.7727273,6.56896552 C17.7727273,3.15517241 14.95,0.362068966 11.5,0.362068966 C8.05,0.362068966 5.22727273,3.15517241 5.22727273,6.56896552 L5.22727273,8.79310345 L3.65909091,8.79310345 C3.13636364,8.79310345 2.71818182,9.15517241 2.61363636,9.67241379 L0,25.1896552 C0,25.2413793 0,25.2931034 0,25.3448276 C0,27.6206897 1.88181818,29.4827586 4.18181818,29.4827586 L18.8181818,29.4827586 C21.1181818,29.4827586 23,27.6206897 23,25.3448276 C23,25.2931034 23,25.2413793 23,25.1896552 Z M7.31818182,6.56896552 C7.31818182,4.29310345 9.2,2.43103448 11.5,2.43103448 C13.8,2.43103448 15.6818182,4.29310345 15.6818182,6.56896552 L15.6818182,8.79310345 L7.31818182,8.79310345 L7.31818182,6.56896552 Z M18.8181818,27.4137931 L4.18181818,27.4137931 C3.03181818,27.4137931 2.14318182,26.5344828 2.09090909,25.3965517 L4.54772727,10.862069 L18.4522727,10.862069 L20.9090909,25.3965517 C20.8568182,26.5344828 19.9681818,27.4137931 18.8181818,27.4137931 Z" id="Shape" fill="url(#linearGradient-1)"></path>
                                    <path d="M14.6363636,12.9310345 L8.36363636,12.9310345 C7.78863636,12.9310345 7.31818182,13.3965517 7.31818182,13.9655172 C7.31818182,14.5344828 7.78863636,15 8.36363636,15 L14.6363636,15 C15.2113636,15 15.6818182,14.5344828 15.6818182,13.9655172 C15.6818182,13.3965517 15.2113636,12.9310345 14.6363636,12.9310345 Z" id="Path" fill="url(#linearGradient-2)"></path>
                                </g>
                            </g>
                        </g>
                    </g>
                </g>
            </g>
        </g>
    </g>
</svg>