<svg width="31" height="21" viewBox="0 0 31 21" version="1.1" xmlns="http://www.w3.org/2000/svg" xmlns:xlink="http://www.w3.org/1999/xlink"><title>Amex</title><defs><path id="a" d="M0 0h31v21H0z"/></defs><g stroke="none" stroke-width="1" fill="none" fill-rule="evenodd"><path fill="#FFF" d="M19 9v.961h3.245v.991H19V12h3.344L24 10.398 22.344 9zM7 9l-1 2h2L7 9.064z"/><g><mask id="b" fill="#fff"><use xlink:href="#a"/></mask><path d="M26.487 11.547l1.413 1.647h-1.686l-1.575-1.796-1.606 1.765h-5.15V7.807h5.302l1.514 1.645 1.515-1.645H27.9l-1.413 1.586-.97 1.017.97 1.137zm-9.362 1.661h-1.332v-3.95l-1.818 3.95h-1.242l-1.787-4.04v4.04H8.219l-.515-1.227H5.008l-.484 1.227H3.1l2.363-5.416H7.25l2.363 5.207V7.792h2.09l1.636 3.62 1.636-3.62h2.15v5.416zM29.23 0H1.77A1.76 1.76 0 0 0 0 1.75v17.5C0 20.216.793 21 1.771 21H29.23A1.76 1.76 0 0 0 31 19.25V1.75A1.76 1.76 0 0 0 29.229 0z" fill="#FFF" mask="url(#b)"/></g></g></svg>