<svg width="29" height="20" viewBox="0 0 29 20" version="1.1" xmlns="http://www.w3.org/2000/svg" xmlns:xlink="http://www.w3.org/1999/xlink"><title>Page 1</title><defs><path id="a" d="M.063.169h28.806v8.822H.063z"/><path id="c" d="M.063.002h28.806v9.846H.063z"/></defs><g stroke="none" stroke-width="1" fill="none" fill-rule="evenodd"><g><mask id="b" fill="#fff"><use xlink:href="#a"/></mask><path d="M-1.067-.276v8.708C1.919 7.526 5.234 6.888 8.76 6.58c.914-2.16 3.129-3.684 5.718-3.684 2.663 0 4.933 1.613 5.794 3.87 3.533.43 6.824 1.194 9.745 2.225V-.276H-1.067z" fill="#FFF" mask="url(#b)"/></g><g transform="translate(0 10)"><mask id="d" fill="#fff"><use xlink:href="#c"/></mask><path d="M22.69 6.614a.582.582 0 0 1-.153-.293 3.833 3.833 0 0 1-.819.269 4.378 4.378 0 0 1-.843.078c-.496 0-.877-.064-1.143-.191-.267-.128-.4-.29-.4-.489 0-.116.05-.222.15-.318.102-.096.233-.174.396-.232.163-.058.347-.102.55-.132a9.85 9.85 0 0 1 .68-.06 12.843 12.843 0 0 0 1.365-.139l.004-.105a.354.354 0 0 0-.217-.347c-.195-.091-.485-.136-.871-.136-.36 0-.626.034-.797.1a.683.683 0 0 0-.38.352l-.748-.054a.874.874 0 0 1 .335-.408c.156-.104.381-.183.676-.24a5.561 5.561 0 0 1 1.025-.083c.385 0 .698.024.939.07.24.049.418.109.53.182a.582.582 0 0 1 .239.273c.025.069.038.193.038.371v.537c0 .374.017.611.05.71.031.1.096.195.192.285h-.799zM18.872 4.69a1.856 1.856 0 0 0-.561-.088 1.21 1.21 0 0 0-.45.08.557.557 0 0 0-.285.22.904.904 0 0 0-.128.47v1.243h-.765V4.24h.689v.36c.175-.168.338-.28.486-.333a1.43 1.43 0 0 1 .491-.08c.258 0 .52.043.786.13l-.263.373zm-3.379 1.925h-.684v-.348c-.351.268-.829.402-1.432.402a3.31 3.31 0 0 1-.746-.08c-.23-.054-.402-.121-.514-.203a.652.652 0 0 1-.236-.298 1.08 1.08 0 0 1-.047-.375V4.239h.765v1.318c0 .21.016.351.047.425.048.105.15.189.306.249s.348.09.578.09c.23 0 .445-.03.646-.092s.343-.147.427-.253c.084-.107.126-.262.126-.464V4.24h.764v2.375zm-5.142 0l-.728-.993H7.02l-.684.993H5.46l2.392-3.279h.889l2.55 3.28h-.94zM13.62.002c-5.347 0-10.362.775-14.687 2.13v8.219h31.084V2.71C25.328 1 19.687 0 13.62 0z" fill="#FFF" mask="url(#d)"/></g><path d="M20.35 15.25a.583.583 0 0 0-.259.14.286.286 0 0 0-.091.207c0 .114.066.21.199.287.133.077.327.116.583.116.254 0 .479-.037.677-.11a.915.915 0 0 0 .435-.298c.07-.098.106-.243.106-.434V15c-.239.064-.597.12-1.075.163a3.7 3.7 0 0 0-.574.087M7.965 14c-.074.264-.18.528-.317.789L7 16h2l-.616-1.144A9.304 9.304 0 0 1 7.965 14" fill="#FFF"/></g></svg>