<svg width="23" height="21" viewBox="0 0 23 21" version="1.1" xmlns="http://www.w3.org/2000/svg"><title>Fill 25</title><path d="M10.05 14.926l-2.072-1.375 8.107-5.63-4.668-3.201L9.38 6.15l1.374.925.283.19-4.463 3.076-3.805-2.493 8.77-6.011 8.957 5.987-10.445 7.102zm1.485 4.768l-8.888-5.987-.024-.024 10.468-7.116 2.036 1.376-8.178 5.61 4.708 3.172 2.014-1.367-1.64-1.126 4.47-3.111 3.815 2.531-8.781 6.042zm-8.628.003v-2.659l1.885-1.287 1.951 1.354-3.836 2.592zM20.104 1.813V4.47l-1.886 1.288-1.951-1.354 3.837-2.592zM0 21h23V0H0v21z" fill="#FEFEFE" stroke="none" stroke-width="1" fill-rule="evenodd"/></svg>