<?xml version="1.0" encoding="UTF-8"?>
<svg width="20px" height="20px" viewBox="0 0 20 20" version="1.1" xmlns="http://www.w3.org/2000/svg" xmlns:xlink="http://www.w3.org/1999/xlink">
    <!-- Generator: Sketch 48.2 (47327) - http://www.bohemiancoding.com/sketch -->
    <title>Fill 26</title>
    <desc>Created with Sketch.</desc>
    <defs></defs>
    <g id="rodape" stroke="none" stroke-width="1" fill="none" fill-rule="evenodd" transform="translate(-1004.000000, -113.000000)">
        <g transform="translate(-32.000000, -8.000000)" fill="#FEFEFE" id="Group-18">
            <g transform="translate(993.000000, 84.000000)">
                <g id="Page-1" transform="translate(0.000000, 36.000000)">
                    <path d="M58.811254,11.5895817 C58.0782184,12.95267 56.3822432,13.5050579 56.3822432,13.5050579 C56.1915763,13.5821021 56.1077891,13.4611203 56.1077891,13.4611203 C56.0074489,13.3062146 56.1928025,13.1981076 56.1928025,13.1981076 C57.3014499,12.4350234 57.5947051,11.5910122 57.5947051,11.5910122 C58.6052602,9.16115914 54.5906281,7.85120471 54.5906281,7.85120471 C52.2272165,6.96121227 49.4540652,7.34786341 49.4540652,7.34786341 C48.7257298,8.49616823 48.6339726,9.94406638 48.8287267,10.9928474 C49.0623091,12.2793003 49.6631244,13.1833936 49.6631244,13.1833936 C49.7452768,13.3215417 49.6289965,13.4061472 49.6289965,13.4061472 C49.4947326,13.4938181 49.3723216,13.3650706 49.3723216,13.3650706 C48.6186457,12.6833221 48.1257319,11.8350193 47.8557737,11.0016349 C47.2484188,9.13009625 47.8300244,7.62170723 47.8300244,7.62170723 C47.106798,7.78376556 46.3570049,8.04248667 46.3570049,8.04248667 C46.1477413,8.14139742 46.0704936,8.00815401 46.0704936,8.00815401 C45.9803713,7.82279852 46.219267,7.72797499 46.219267,7.72797499 C47.0266893,7.27531523 48.1042742,6.92687961 48.1042742,6.92687961 C48.8599937,5.38844951 50.2226593,4.82400425 50.2226593,4.82400425 C52.4366845,3.78114974 54.5912412,4.55302148 54.5912412,4.55302148 C56.1592876,5.04021826 56.954244,6.14213312 56.954244,6.14213312 C57.1034261,6.2996955 56.9691622,6.40473709 56.9691622,6.40473709 C56.8639174,6.5101874 56.7269968,6.38164429 56.7269968,6.38164429 C55.8022725,5.56093025 54.5959414,5.37332679 54.5959414,5.37332679 C51.8556919,4.85036683 50.2300162,6.43988719 50.2300162,6.43988719 C52.3598455,6.11883596 54.5912412,6.67061084 54.5912412,6.67061084 C55.8298609,6.94588519 56.7934135,7.46107944 56.7934135,7.46107944 C60.2969438,9.31606482 58.811254,11.5895817 58.811254,11.5895817 Z M52.993154,18.1890135 L54.6063637,18.1890135 L54.6063637,11.2630127 L52.993154,11.2630127 L52.993154,18.1890135 Z M52.0974486,18.1890135 L51.1130514,18.1890135 L51.1134601,13.1435432 L52.0978573,13.1435432 L52.0974486,18.1890135 Z M43,1 L43,20.9997956 L63,21 L63,1 L43,1 Z" id="Fill-26"></path>
                </g>
            </g>
        </g>
    </g>
</svg>