<svg width="24" height="17" viewBox="0 0 24 17" version="1.1" xmlns="http://www.w3.org/2000/svg" xmlns:xlink="http://www.w3.org/1999/xlink"><title>Page 1</title><defs><path id="a" d="M0 .028h23.977V17H0z"/></defs><g stroke="none" stroke-width="1" fill="none" fill-rule="evenodd"><g><mask id="b" fill="#fff"><use xlink:href="#a"/></mask><path d="M8.558 16.81C3.938 16.81.19 13.097.19 8.515.191 3.931 3.937.219 8.558.218c4.62 0 8.366 3.713 8.366 8.296 0 4.582-3.747 8.297-8.366 8.297M16.632.028H7.346C3.29.028 0 3.828 0 8.514 0 13.201 3.29 17 7.346 17h9.286c4.057.001 7.345-3.799 7.345-8.486 0-4.687-3.288-8.486-7.345-8.486" fill="#FFF" mask="url(#b)"/></g><path d="M5.991 4C4.25 4.65 3 6.42 3 8.498 3 10.583 4.253 12.353 6 13l-.009-9zM13 8.498c0 2.084-1.253 3.855-3 4.502l.01-9C11.75 4.65 13 6.42 13 8.498" fill="#FFF"/></g></svg>