<svg width="25" height="25" viewBox="0 0 25 25" version="1.1" xmlns="http://www.w3.org/2000/svg"><title>Page 1</title><g stroke="none" stroke-width="1" fill="none" fill-rule="evenodd"><path d="M7.285 11c-.096 0-.19.004-.284.014C5.873 11.126 5 11.898 5 12.832c0 .057.004.112.01.168l1.991-.688L9 11.621C8.582 11.24 7.968 11 7.285 11" fill="#FFF"/><path d="M7.285 11c-.096 0-.19.004-.284.014C5.873 11.126 5 11.898 5 12.832c0 .057.004.112.01.168l1.991-.688L9 11.621C8.582 11.24 7.968 11 7.285 11z"/><path d="M19.908 13.72a2.177 2.177 0 0 0-3.472-2.46l-1.086-1.202a3.796 3.796 0 0 1 5.992 4.422l-1.434-.76zM17.94 16.73a3.796 3.796 0 0 1-3.415-5.456l1.431.76a2.177 2.177 0 0 0 3.492 2.468l1.087 1.202a3.787 3.787 0 0 1-2.595 1.026zm-4.441-.109l-1.402-.593c-.532-.225-.718-.552-.72-1.24l-.009-7.265h1.376v7.068c0 .068.009.127.098.162l1.197.466-.54 1.402zm-4.183-3.856l-.001-.004-1.584.696-.876.383-2.924 1.279a3.843 3.843 0 0 1 3.197-5.97 3.843 3.843 0 0 1 3.736 2.939l-1.548.677zM5.02 16.202l.902-1.373c.91.544 1.825.455 2.742-.266l1.15 1.177c-1.376 1.305-3.195 1.433-4.794.462zM12.5 0C5.615 0 0 5.615 0 12.5 0 19.384 5.615 25 12.5 25S25 19.384 25 12.5C25 5.615 19.385 0 12.5 0z" fill="#FFF"/><path d="M19.908 13.72a2.177 2.177 0 0 0-3.472-2.46l-1.086-1.202a3.796 3.796 0 0 1 5.992 4.422l-1.434-.76zM17.94 16.73a3.796 3.796 0 0 1-3.415-5.456l1.431.76a2.177 2.177 0 0 0 3.492 2.468l1.087 1.202a3.787 3.787 0 0 1-2.595 1.026zm-4.441-.109l-1.402-.593c-.532-.225-.718-.552-.72-1.24l-.009-7.265h1.376v7.068c0 .068.009.127.098.162l1.197.466-.54 1.402zm-4.183-3.856l-.001-.004-1.584.696-.876.383-2.924 1.279a3.843 3.843 0 0 1 3.197-5.97 3.843 3.843 0 0 1 3.736 2.939l-1.548.677zM5.02 16.202l.902-1.373c.91.544 1.825.455 2.742-.266l1.15 1.177c-1.376 1.305-3.195 1.433-4.794.462zM12.5 0C5.615 0 0 5.615 0 12.5 0 19.384 5.615 25 12.5 25S25 19.384 25 12.5C25 5.615 19.385 0 12.5 0z"/></g></svg>