<svg width="38" height="17" viewBox="0 0 38 17" version="1.1" xmlns="http://www.w3.org/2000/svg" xmlns:xlink="http://www.w3.org/1999/xlink"><title>Page 1</title><defs><path id="a" d="M0 .216h37.89V17H0z"/></defs><g stroke="none" stroke-width="1" fill="none" fill-rule="evenodd"><path d="M11.303 8.377c-.057.304-.1.636-.157.983-.057.342-.174.689-.14 1.02.077.76 1.065.767 1.466.315.333-.374.609-1.3.506-2.04-.117-.854-1.28-.792-1.675-.278M11.043 7L11 7.035c.024-.002.047-.006.043-.035M24.009 10.088c-.123 1.182 1.08 1.042 1.508.547.326-.376.41-1.058.483-1.595-.983-.142-1.89.067-1.991 1.048" fill="#FEFEFE"/><g><mask id="b" fill="#fff"><use xlink:href="#a"/></mask><path d="M33.586 11.417h-.749c.004-.224.047-.408.077-.606-.015-.05-.1.127-.153.196-.072.09-.182.22-.289.293-.554.37-1.651.265-2.035-.176-.222-.256-.283-.615-.288-.976-.022-1.871 1.22-3.387 3.245-2.734.122-.579.217-1.186.287-1.817h.826c-.331 1.916-.777 3.715-.921 5.82zm-4.819-1.465c-.082.528-.186.926-.192 1.465h-.844c.276-1.314.513-2.667.71-4.062h.73c-.064.196-.067.453-.135.644.237-.373.845-.996 1.574-.624-.054.178-.072.395-.115.585-1.292-.371-1.551.865-1.728 1.992zm-1.497-.41c-.105.623-.204 1.183-.212 1.875h-.71a2.59 2.59 0 0 1 .058-.625c-.34.554-1.323.958-2.13.605-.42-.182-.64-.838-.442-1.503.294-.995 1.412-1.226 2.783-1.094.061-.172.145-.405.096-.625-.146-.661-1.662-.28-2.15-.156.05-.222.113-.432.154-.664.977-.029 2.722-.408 2.784.664.026.468-.142.993-.23 1.523zM23.2 11.3c-1.078.379-2.41.325-2.706-.664-.254-.845.105-2.19.652-2.774.56-.596 1.615-.711 2.726-.527-.03.225-.075.432-.096.664-.678-.24-1.527-.312-1.958.118-.312.31-.514.998-.556 1.562-.02.25 0 .58.076.781.262.688 1.388.526 1.977.215-.042.204-.067.426-.114.625zm-3.935-2.5c-.257.758-.307 1.825-.422 2.617h-.826c.25-1.334.513-2.655.692-4.062h.729c-.05.224-.074.472-.135.683.267-.476.842-.984 1.575-.683-.022.212-.086.382-.097.605-.774-.281-1.31.234-1.516.84zm-1.478.43a47.246 47.246 0 0 0-2.707 0c-.138.6-.136 1.29.288 1.562.561.36 1.508.071 2.054-.137-.036.224-.092.427-.115.664-1.324.328-2.98.377-3.13-.976-.103-.949.253-1.99.692-2.461.358-.384.863-.558 1.46-.605.68-.054 1.348.09 1.534.644.142.42-.02.883-.076 1.309zm-5.049 2.07c-.519.285-1.75.427-1.939-.313-.166.703-.245 1.495-.364 2.246h-.826a137.1 137.1 0 0 0 1.018-5.878h.71c-.006.13-.051.22-.057.351v.004c.369-.303 1.22-.622 1.919-.355 1.438.55.611 3.355-.46 3.945zm-4.377.117c.264-1.302.51-2.62.692-4.003-.002-.028-.004-.056.019-.06h.825a56.506 56.506 0 0 0-.71 4.063h-.826zm-1.765 0c.148-.956.34-1.868.498-2.812-.77-.075-1.731-.04-2.534-.02-.194.91-.332 1.876-.48 2.832h-.94c.368-1.865.668-3.799.998-5.703h.921c-.154.748-.266 1.54-.422 2.285.825.063 1.698.029 2.554.02.133-.763.265-1.526.383-2.305h.96c-.377 1.855-.696 3.771-.998 5.703h-.94zM9.34 5.832c.065-.09.16-.148.326-.176.179-.03.307-.01.384.058.242.219.03.744-.135.86-.104.073-.457.157-.614 0-.161-.162-.066-.598.039-.742zM6.315.216S3.3.158 2.731 3.226C2.162 6.292 0 16.941 0 16.941L31.404 17s2.959.058 3.585-2.836C35.614 11.27 37.89.274 37.89.274L6.315.216z" fill="#FEFEFE" mask="url(#b)"/></g><path d="M32.124 8.012c-.765.095-1.143 1.161-1.123 2.121.01.548.249.878.727.867 1.119-.027 1.032-1.763 1.272-2.841-.261-.1-.519-.192-.876-.147M16.106 8.002A1.17 1.17 0 0 0 15 9h1.96c.177-.771-.253-1.022-.854-.998" fill="#FEFEFE"/></g></svg>