<svg width="20" height="20" viewBox="0 0 20 20" version="1.1" xmlns="http://www.w3.org/2000/svg"><title>Fill 28</title><path d="M18.32 16.677h-1.372v-.79c-.37.599-.94.905-1.716.905-.56 0-.992-.153-1.335-.485-.37-.38-.573-.954-.573-1.73v-2.89h1.552v2.623c0 .826.304 1.247.904 1.247.468 0 .776-.229.953-.65a.954.954 0 0 0 .038-.304v-2.916h1.55v4.99zm-5.873 0h-1.424v-.522h-.038c-.357.42-.864.637-1.55.637-.51 0-.929-.153-1.26-.458-.279-.294-.444-.65-.444-1.045 0-.636.292-1.132.839-1.462.533-.332 1.31-.485 2.326-.485v-.051c0-.46-.33-.675-1.017-.675-.547 0-1.043.127-1.475.394l-.292-.98c.534-.332 1.22-.484 2.033-.484.788 0 1.388.229 1.794.65.33.37.508.877.508 1.54v2.94zm-7.36-.343c-.294-.294-.42-.803-.42-1.49v-2.013l-.713.002v-1.146h.712V9.993h1.5v1.694h.954v1.144h-.954v1.772c0 .33.039.56.128.686.114.179.292.268.535.268.152 0 .24-.026.291-.064l.013 1.171c-.242.089-.51.128-.839.128-.509 0-.927-.153-1.208-.458zm11.137-6.341h1.461l-1.335 1.35h-1.08l.954-1.35zM1.652 16.677H3.23V9.993H1.652v6.684zM16.67 0H3.33C2.403 0 1.615.33.966.967A3.272 3.272 0 0 0 0 3.335v13.342c0 .917.33 1.706.966 2.356A3.27 3.27 0 0 0 3.33 20h13.338c.928 0 1.704-.332 2.34-.967.66-.65.991-1.44.991-2.356V3.335c0-.93-.331-1.72-.992-2.368A3.183 3.183 0 0 0 16.668 0z" fill="#FEFEFE" stroke="none" stroke-width="1" fill-rule="evenodd"/></svg>