<svg xmlns="http://www.w3.org/2000/svg" width="30" height="19" viewBox="0 0 30.97 19"><defs><style>.cls-1{fill:#020202;}</style></defs><title>mastercard</title><g id="Camada_2" data-name="Camada 2"><g id="Camada_1-2" data-name="Camada 1"><path class="cls-1" d="M21.7,18.93a9.16,9.16,0,0,1-6.22-2.45,9.12,9.12,0,0,1-6.21,2.45A9.37,9.37,0,0,1,0,9.46V19H31V9.46A9.37,9.37,0,0,1,21.7,18.93Z"/><path class="cls-1" d="M24.87,8.05l0,.29h-.26c-.12,1.2-.35,2.43-.52,3.64l0,.26h1l0-.28h.25a15.17,15.17,0,0,1,.45-2.37.6.6,0,0,1,.44-.17A3.5,3.5,0,0,0,26,10.69c0,1,.48,1.62,1.21,1.62a1.19,1.19,0,0,0,.93-.43l-.05.36H29l.05-.28h.24l.77-4.8h-1L29,7.44h-.24l-.14.87a1,1,0,0,0-.76-.3,1.25,1.25,0,0,0-.8.32,1.93,1.93,0,0,0-.76.83h0A3.94,3.94,0,0,1,26.7,8c-.42-.09-.65.15-1,.61a3.93,3.93,0,0,0,.06-.59Zm2.35,1A.59.59,0,0,1,27.48,9c.34,0,.52.3.52.85a2.18,2.18,0,0,1-.23,1.07.5.5,0,0,1-.27.08c-.33,0-.5-.29-.5-.86A2.33,2.33,0,0,1,27.22,9.07Z"/><path class="cls-1" d="M30.15,11.39h0Z"/><path class="cls-1" d="M21.7,0A9.37,9.37,0,0,1,31,9.46V0Z"/><path class="cls-1" d="M23,8a3.94,3.94,0,0,0-1.2.21l0,.21-.25.08-.14.87a3.46,3.46,0,0,1,1.06-.17c.43,0,.62.08.64.3H23a1.79,1.79,0,0,0-1.51.61,1.34,1.34,0,0,0-.51.79,1.81,1.81,0,0,1-.72.18c-.58,0-.94-.44-.94-1.17a2.2,2.2,0,0,1,.38-1.32,1.08,1.08,0,0,1,.61-.19,2,2,0,0,1,.9.26l.06-.39.23.11.16-1A3.3,3.3,0,0,0,20.51,7a2,2,0,0,0-1,.29,2.09,2.09,0,0,0-.9.75l-.16,0h-.08c-.37,0-.6.19-.88.62a3.93,3.93,0,0,0,.06-.59h-.93l0,.29H16.3c-.12,1.2-.34,2.43-.52,3.64l0,.26h1l0-.28H17a18.79,18.79,0,0,1,.41-2.25c0-.21.23-.29.58-.28a5.29,5.29,0,0,0-.07.8,2.44,2.44,0,0,0,.35,1.34,1.6,1.6,0,0,0,1.41.74,3.18,3.18,0,0,0,.89-.14l0-.22.25-.07.05-.29a.89.89,0,0,0,.87.72,1.24,1.24,0,0,0,1.05-.47l0,.4h.84l0-.28H24c0-.3.21-1.51.3-2.08a5.28,5.28,0,0,0,.08-.77C24.35,8.36,23.89,8,23,8Zm-.24,4a.67.67,0,0,1-.34.09c-.27,0-.45-.22-.45-.56a1.13,1.13,0,0,1,.05-.32,1.58,1.58,0,0,1,.67-.12L23,11A2,2,0,0,1,22.79,11.91Z"/><path class="cls-1" d="M30,11.35h0a.31.31,0,0,0-.3.31A.32.32,0,0,0,30,12a.31.31,0,0,0,.3-.31.31.31,0,0,0-.06-.16h0A.24.24,0,0,1,30,11.35Z"/><path class="cls-1" d="M9.27,0H0V9.46A9.37,9.37,0,0,1,9.27,0Z"/><path class="cls-1" d="M15.82,10.89a2.34,2.34,0,0,1-1,.25c-.47,0-.78-.16-.85-.52h1.69a2.74,2.74,0,0,0,.05-.28h.24a4.8,4.8,0,0,0,.12-1A1.3,1.3,0,0,0,14.68,8a1.55,1.55,0,0,0-1.21.61,2.49,2.49,0,0,0-.83,2,2.56,2.56,0,0,0,0,.47.71.71,0,0,1-.23,0c-.23,0-.34-.09-.34-.29s.13-.83.24-1.51h.36l0-.28h.16L13,8.05h-.51l.12-.59h-1l-.05.28h-.24l-.44,2.67v0a1.07,1.07,0,0,0-.69-.81c-.42-.2-.47-.24-.47-.42v0l.2,0a4.37,4.37,0,0,1,.72.06l.05-.31L11,9,11.12,8A7,7,0,0,0,10.24,8a1.47,1.47,0,0,0-1.3.54,1.12,1.12,0,0,0-.44.59C8.5,8.35,8,8,7.18,8A3.94,3.94,0,0,0,6,8.17l0,.21-.26.08-.14.87a3.46,3.46,0,0,1,1.06-.17c.44,0,.62.08.65.3H7.1a1.75,1.75,0,0,0-1.5.62,1.23,1.23,0,0,0-.5.73l.59-3.64H4.13L4,7.44H3.79l-.65,2,0-2.27H1.67l0,.29H1.38l-.79,4.8h.94L1.58,12h.24l.35-2.1.05,2.38h.69L3,12H3.2L4,9.54l-.42,2.7h1l0-.28h.24l.14-.86v.14A1,1,0,0,0,6,12.31a1.24,1.24,0,0,0,1-.47l0,.4h.83a2.36,2.36,0,0,1,0-.28h.2l-.07,0c.05-.58.11-1.31.15-1.73V10a1.5,1.5,0,0,0,.52,1.14c.28.24.32.31.32.53v.05a.59.59,0,0,1-.2,0,1.17,1.17,0,0,1-.61-.19l0,.43-.06,0,0,.22a4.55,4.55,0,0,0,1,.12,1.5,1.5,0,0,0,1.36-.53.93.93,0,0,0,.33-.35v0c0,.56.28.86.79.86a2.48,2.48,0,0,0,.72-.13l0-.21.25-.07.12-.73a1.47,1.47,0,0,0,1.63,1.14,3.31,3.31,0,0,0,1-.16l0-.22h0l.26-.07ZM14.16,9.05A.86.86,0,0,1,14.43,9a.53.53,0,0,1,.57.5H14A1.69,1.69,0,0,1,14.16,9.05ZM6.79,11.91a.63.63,0,0,1-.33.09c-.28,0-.46-.22-.46-.56a1.13,1.13,0,0,1,0-.32A1.58,1.58,0,0,1,6.72,11L7,11A2,2,0,0,1,6.79,11.91Z"/><path class="cls-1" d="M21.7,0H9.27a9.12,9.12,0,0,1,6.21,2.45A9.14,9.14,0,0,1,21.7,0Z"/><path class="cls-1" d="M30.5,11.25a.25.25,0,0,0-.5,0s0,.06,0,.1.06,0,.1,0v-.28h.19a.08.08,0,0,1,0,.07.1.1,0,0,1-.05.08l.05.12H30.3l0-.11h-.05v.11h-.06a.4.4,0,0,1,.12.1A.24.24,0,0,0,30.5,11.25Z"/><path class="cls-1" d="M30,12.19h.09a.2.2,0,0,0,.11,0,.1.1,0,0,0,0-.16H30Z"/><path class="cls-1" d="M8.07,12h0Z"/></g></g></svg>