<svg xmlns="http://www.w3.org/2000/svg" width="18" height="18" viewBox="0 0 121 121"><defs><style>.cls-1{fill:#deb94c;}</style></defs><title>quickview</title><g id="Camada_2" data-name="Camada 2"><g id="Camada_1-2" data-name="Camada 1"><g id="zoom-in-button-_3_" data-name="zoom-in-button-(3)"><g id="Shape"><path class="cls-1" d="M118.67,105.41,101.23,88a8.12,8.12,0,0,0-6.13-2.33l-8.39-8.4a48.24,48.24,0,1,0-9.46,9.46l8.4,8.39A8.11,8.11,0,0,0,88,101.25l17.41,17.41a8,8,0,0,0,11.31,0l1.93-1.93A8,8,0,0,0,118.67,105.41ZM71.9,71.92a33.47,33.47,0,1,1,0-47.37A33.5,33.5,0,0,1,71.9,71.92Z"/></g></g><g id="zoom-in-button-_3_2" data-name="zoom-in-button-(3)"><g id="Shape-2" data-name="Shape"><path class="cls-1" d="M61.15,43.17H53.33V35.35a5.09,5.09,0,1,0-10.18,0v7.82H35.33a5.09,5.09,0,1,0,0,10.17h7.82v7.81a5.08,5.08,0,1,0,10.16,0V53.34h7.82a5.09,5.09,0,1,0,0-10.17Z"/></g></g></g></g></svg>