<?xml version="1.0" encoding="UTF-8"?>
<svg width="12px" height="12px" viewBox="0 0 12 12" version="1.1" xmlns="http://www.w3.org/2000/svg" xmlns:xlink="http://www.w3.org/1999/xlink">
    <!-- Generator: Sketch 53.2 (72643) - https://sketchapp.com -->
    <title>32178</title>
    <desc>Created with Sketch.</desc>
    <defs>
        <linearGradient x1="0%" y1="1.3671875%" x2="100.397892%" y2="1.3671875%" id="linearGradient-1">
            <stop stop-color="color[0]" offset="0%"></stop>
            <stop stop-color="color[0]" offset="100%"></stop>
        </linearGradient>
    </defs>
    <g id="Home" stroke="none" stroke-width="1" fill="none" fill-rule="evenodd">
        <g id="home-mobile-like" transform="translate(-260.000000, -39.000000)" fill="url(#linearGradient-1)" fill-rule="nonzero">
            <g id="Hover-menu">
                <g id="fechar" transform="translate(251.000000, 31.000000)">
                    <g id="32178" transform="translate(9.000000, 8.000000)">
                        <path d="M11.5722292,2.35911748 L7.94324355,5.98848138 L11.5722292,9.61767335 C12.1120229,10.1576734 12.1120229,11.0324011 11.5722292,11.5724011 C11.3025215,11.8421089 10.9489169,11.9770659 10.5954842,11.9770659 C10.241467,11.9770659 9.88782808,11.8423152 9.61832665,11.5724011 L5.98855014,7.94279656 L2.35904871,11.5723668 C2.08937536,11.8420745 1.73573639,11.9770315 1.38199427,11.9770315 C1.0283553,11.9770315 0.67495702,11.8422808 0.40504298,11.5723668 C-0.134750716,11.0326074 -0.134750716,10.1578453 0.40504298,9.61763897 L4.0339255,5.98844699 L0.404836676,2.35911748 C-0.13495702,1.81932378 -0.13495702,0.944389685 0.404836676,0.404595989 C0.944527221,-0.1347851 1.81894556,-0.1347851 2.35884241,0.404595989 L5.98851576,4.03395989 L9.61791404,0.404595989 C10.157914,-0.1347851 11.0324355,-0.1347851 11.5720229,0.404595989 C12.1120229,0.944389685 12.1120229,1.81932378 11.5722292,2.35911748 Z" id="Path"></path>
                    </g>
                </g>
            </g>
        </g>
    </g>
</svg>