<!-- Generated by IcoMoon.io -->
<svg version="1.1" xmlns="http://www.w3.org/2000/svg" width="768" height="768" viewBox="0 0 768 768">
<title></title>
<g id="icomoon-ignore">
</g>
<path d="M704 348.8c-9.6-153.6-131.2-278.4-288-284.8h-16c0 0 0 0 0 0-48 0-92.8 9.6-134.4 32-105.6 51.2-169.6 156.8-169.6 272 0 41.6 9.6 86.4 25.6 124.8l-57.6 169.6c-3.2 12.8 0 25.6 6.4 32 9.6 6.4 16 9.6 25.6 9.6 3.2 0 6.4 0 9.6-3.2l169.6-57.6c38.4 16 80 25.6 124.8 25.6 115.2 0 220.8-64 272-166.4 22.4-41.6 32-89.6 32-137.6v-16zM640 368c0 0 0 0 0 0 0 38.4-9.6 73.6-25.6 108.8-41.6 83.2-121.6 131.2-214.4 131.2-38.4 0-73.6-9.6-105.6-25.6-6.4-3.2-16-3.2-25.6-3.2l-121.6 41.6 41.6-121.6c3.2-9.6 3.2-16-3.2-25.6-16-32-25.6-70.4-25.6-105.6 0-92.8 51.2-172.8 134.4-214.4 32-16 70.4-25.6 105.6-25.6 0 0 0 0 0 0h12.8c121.6 6.4 217.6 102.4 227.2 224v16z"></path>
</svg>
