<!-- Generated by IcoMoon.io -->
<svg version="1.1" xmlns="http://www.w3.org/2000/svg" width="768" height="768" viewBox="0 0 768 768">
    <path d="M640 96h-512c-54.4 0-96 41.6-96 96v384c0 54.4 41.6 96 96 96h512c54.4 0 96-41.6 96-96v-384c0-54.4-41.6-96-96-96zM128 160h512c12.8 0 22.4 6.4 28.8 19.2l-284.8 198.4-284.8-198.4c6.4-12.8 16-19.2 28.8-19.2zM640 608h-512c-19.2 0-32-12.8-32-32v-323.2l268.8 188.8c6.4 3.2 12.8 6.4 19.2 6.4s12.8-3.2 19.2-6.4l268.8-188.8v323.2c0 19.2-12.8 32-32 32z"></path>
</svg>
