<?xml version="1.0" encoding="UTF-8"?>
<svg width="22px" height="22px" viewBox="0 0 22 22" version="1.1" xmlns="http://www.w3.org/2000/svg" xmlns:xlink="http://www.w3.org/1999/xlink">
    <!-- Generator: Sketch 53.2 (72643) - https://sketchapp.com -->
    <title>noun_menu_1115269</title>
    <desc>Created with Sketch.</desc>
    <g id="Symbols" stroke="none" stroke-width="1" fill="none" fill-rule="evenodd">
        <g id="Topo" transform="translate(-315.000000, -96.000000)" fill="#FFFFFF">
            <g id="menu">
                <g transform="translate(0.000000, 80.000000)">
                    <g id="Group-12" transform="translate(315.000000, 16.000000)">
                        <g id="noun_menu_1115269">
                            <g id="Group">
                                <g fill-rule="nonzero">
                                    <g id="Shape">
                                        <path d="M11,22 C4.92486777,22 0,17.0751322 0,11 C0,4.92486777 4.92486777,0 11,0 C17.0751322,0 22,4.92486777 22,11 C22,17.0751322 17.0751322,22 11,22 Z M6.11111111,14.6666667 C6.11111111,14.4400931 6.2936403,14.2592593 6.5188015,14.2592593 L15.4811985,14.2592593 C15.7065866,14.2592593 15.8888889,14.4416618 15.8888889,14.6666667 C15.8888889,14.8932403 15.7063597,15.0740741 15.4811985,15.0740741 L6.5188015,15.0740741 C6.29341338,15.0740741 6.11111111,14.8916715 6.11111111,14.6666667 Z M6.11111111,11.2037037 C6.11111111,10.9771301 6.2936403,10.7962963 6.5188015,10.7962963 L15.4811985,10.7962963 C15.7065866,10.7962963 15.8888889,10.9786988 15.8888889,11.2037037 C15.8888889,11.4302773 15.7063597,11.6111111 15.4811985,11.6111111 L6.5188015,11.6111111 C6.29341338,11.6111111 6.11111111,11.4287086 6.11111111,11.2037037 Z M6.11111111,7.74074074 C6.11111111,7.51416714 6.2936403,7.33333333 6.5188015,7.33333333 L15.4811985,7.33333333 C15.7065866,7.33333333 15.8888889,7.51573586 15.8888889,7.74074074 C15.8888889,7.96731434 15.7063597,8.14814815 15.4811985,8.14814815 L6.5188015,8.14814815 C6.29341338,8.14814815 6.11111111,7.96574562 6.11111111,7.74074074 Z M11,21.1851852 C16.6251224,21.1851852 21.1851852,16.6251224 21.1851852,11 C21.1851852,5.37487757 16.6251224,0.814814815 11,0.814814815 C5.37487757,0.814814815 0.814814815,5.37487757 0.814814815,11 C0.814814815,16.6251224 5.37487757,21.1851852 11,21.1851852 Z"></path>
                                    </g>
                                </g>
                            </g>
                        </g>
                    </g>
                </g>
            </g>
        </g>
    </g>
</svg>