<!-- Generated by IcoMoon.io -->
<svg version="1.1" xmlns="http://www.w3.org/2000/svg" width="768" height="768" viewBox="0 0 768 768">
<title></title>
<g id="icomoon-ignore">
</g>
<path d="M681.6 147.2l-256-128c0 0 0 0 0 0-25.6-12.8-57.6-12.8-86.4 0l-256 128c-32 16-51.2 48-51.2 83.2v304c0 35.2 19.2 70.4 54.4 86.4l256 128c12.8 6.4 28.8 9.6 41.6 9.6 16 0 28.8-3.2 41.6-9.6l256-128c32-16 54.4-48 54.4-86.4v-304c0-35.2-19.2-67.2-54.4-83.2zM371.2 73.6c3.2-3.2 9.6-3.2 12.8-3.2 6.4 0 9.6 0 12.8 3.2l236.8 118.4-89.6 44.8-249.6-124.8 76.8-38.4zM384 316.8l-249.6-124.8 89.6-44.8 249.6 124.8-89.6 44.8zM112 566.4c-9.6-6.4-16-19.2-16-28.8v-294.4l256 128v313.6l-240-118.4zM652.8 566.4l-236.8 118.4v-313.6l256-128v294.4c0 12.8-6.4 22.4-19.2 28.8z"></path>
</svg>
