<?xml version="1.0" encoding="UTF-8"?>
<svg width="30px" height="30px" viewBox="0 0 30 30" version="1.1" xmlns="http://www.w3.org/2000/svg" xmlns:xlink="http://www.w3.org/1999/xlink">
    <!-- Generator: Sketch 53.2 (72643) - https://sketchapp.com -->
    <title>noun_User_894931</title>
    <desc>Created with Sketch.</desc>
    <g id="Symbols" stroke="none" stroke-width="1" fill="none" fill-rule="evenodd">
        <g id="Topo" transform="translate(-1074.000000, -18.000000)" fill="color[0]">
            <g id="topo">
                <g transform="translate(315.000000, 0.000000)">
                    <g id="login" transform="translate(759.000000, 17.000000)">
                        <g id="noun_User_894931" transform="translate(0.000000, 1.000000)">
                            <g id="Shape">
                                <path d="M15,0 C6.729,0 0,6.729 0,15 C0,19.5186667 2.01133333,23.5736667 5.182,26.326 C5.21666667,26.3686667 5.25933333,26.4046667 5.30733333,26.4346667 C7.924,28.656 11.307,30 15,30 C18.6933333,30 22.077,28.6553333 24.6936667,26.4336667 C24.7406667,26.404 24.783,26.369 24.817,26.3266667 C27.9883333,23.5743333 30,19.519 30,15 C30,6.729 23.271,0 15,0 Z M6.158,25.845 C7.43633333,22.1053333 11.02,19.5176667 14.998,19.517 C14.9986667,19.517 14.9993333,19.517 14.9996667,19.517 C15.0003333,19.517 15.0006667,19.517 15.0013333,19.517 C18.9796667,19.5176667 22.563,22.1053333 23.8413333,25.8453333 C21.429,27.8156667 18.3506667,29 15,29 C11.6493333,29 8.57066667,27.8156667 6.158,25.845 Z M14.9983333,18.5166667 C11.9796667,18.5156667 9.52366667,16.0593333 9.52366667,13.0403333 C9.52366667,10.0206667 11.9803333,7.564 15,7.564 C18.0196667,7.564 20.4763333,10.0206667 20.4763333,13.0403333 C20.4763333,16.0593333 18.0206667,18.5156667 15.0016667,18.5166667 C15.001,18.5166667 15.0003333,18.5166667 14.9996667,18.5166667 C14.9993333,18.5166667 14.9986667,18.5166667 14.9983333,18.5166667 Z M24.6503333,25.128 C23.461,22.0666667 20.8523333,19.768 17.7406667,18.9 C19.9436667,17.8653333 21.4763333,15.6313333 21.4763333,13.0406667 C21.4763333,9.46966667 18.571,6.56433333 15,6.56433333 C11.429,6.56433333 8.52366667,9.46966667 8.52366667,13.0406667 C8.52366667,15.6313333 10.0563333,17.8653333 12.2593333,18.9 C9.14766667,19.768 6.539,22.0666667 5.34966667,25.128 C2.673,22.5763333 1,18.981 1,15 C1,7.28033333 7.28033333,1 15,1 C22.7196667,1 29,7.28033333 29,15 C29,18.981 27.327,22.5766667 24.6503333,25.128 Z" fill-rule="nonzero"></path>
                            </g>
                        </g>
                    </g>
                </g>
            </g>
        </g>
    </g>
</svg>