
<svg width="14px" height="10px" viewBox="0 0 14 10" version="1.1" xmlns="http://www.w3.org/2000/svg" xmlns:xlink="http://www.w3.org/1999/xlink">
    <title>1077971</title>
    <desc>Created with Sketch.</desc>
    <g id="Home" stroke="none" stroke-width="1" fill="none" fill-rule="evenodd">
        <g id="produto-like" transform="translate(-1315.000000, -373.000000)">
            <g id="Meio" transform="translate(313.000000, 168.000000)">
                <g id="Porduto" transform="translate(2.000000, 0.000000)">
                    <g id="Group-31" transform="translate(990.000000, 42.000000)">
                        <g id="Group-23" transform="translate(10.000000, 76.000000)">
                            <g id="Group-12">
                                <g id="Group-9" transform="translate(0.000000, 85.000000)">
                                    <g id="1077971" transform="translate(0.000000, 2.000000)">
                                        <path d="M7.92641716,7.06776888 C8.18313953,7.06776888 8.39135172,7.27616279 8.39135172,7.53288516 C8.39135172,7.78942586 8.18313953,7.99781977 7.92641716,7.99781977 C7.66969479,7.99781977 7.46148256,7.78942586 7.46148256,7.53288516 C7.46148256,7.27616279 7.66969479,7.06776888 7.92641716,7.06776888 Z M1.41660609,9.85773981 C0.647347395,9.85773981 0.0216206512,9.23201307 0.0216206512,8.46275437 L0.0216206512,1.39498549 C0.0216206512,0.625726744 0.647347395,-1.33226763e-14 1.41660609,-1.33226763e-14 L12.5763081,-1.33226763e-14 C13.3455669,-1.33226763e-14 13.9712936,0.625726744 13.9712936,1.39498549 C13.9712936,2.23782702 13.9712936,7.29069767 13.9712936,8.46275437 C13.9712936,9.23201307 13.3455669,9.85773981 12.5763081,9.85773981 L1.41660609,9.85773981 Z M13.0412427,3.71984009 L13.0412427,2.78997093 L0.951671535,2.78997093 L0.951671535,3.71984009 L13.0412427,3.71984009 Z M12.5763081,8.92787065 C12.8326672,8.92787065 13.0412427,8.7191134 13.0412427,8.46275437 L13.0412427,4.64989098 L0.951671535,4.64989098 L0.951671535,8.46275437 C0.951671535,8.7191134 1.16024707,8.92787065 1.41660609,8.92787065 L12.5763081,8.92787065 Z M1.41660609,0.930050884 C1.16024707,0.930050884 0.951671535,1.13862647 0.951671535,1.39498549 L0.951671535,1.85992005 L13.0412427,1.85992005 L13.0412427,1.39498549 C13.0412427,1.13862647 12.8326672,0.930050884 12.5763081,0.930050884 L1.41660609,0.930050884 Z M11.6462573,7.06776888 C11.9031613,7.06776888 12.1113735,7.27598112 12.1113735,7.53288516 C12.1113735,7.78960753 11.9031613,7.99781977 11.6462573,7.99781977 L9.78633721,7.99781977 C9.52961484,7.99781977 9.3214026,7.78960753 9.3214026,7.53288516 C9.3214026,7.27598112 9.52961484,7.06776888 9.78633721,7.06776888 L11.6462573,7.06776888 Z" id="Combined-Shape"></path>
                                    </g>
                                </g>
                            </g>
                        </g>
                    </g>
                </g>
            </g>
        </g>
    </g>
</svg>