<?xml version="1.0" encoding="UTF-8"?>
<svg width="20px" height="23px" viewBox="0 0 20 23" version="1.1" xmlns="http://www.w3.org/2000/svg" xmlns:xlink="http://www.w3.org/1999/xlink">
    <!-- Generator: Sketch 51.3 (57544) - http://www.bohemiancoding.com/sketch -->
    <title>shopping-bag (34)</title>
    <desc>Created with Sketch.</desc>
    <defs></defs>
    <g id="Symbols" stroke="none" stroke-width="1" fill="none" fill-rule="evenodd">
        <g id="topo-waw" transform="translate(-1514.000000, -31.000000)" fill="#FFB200">
            <g id="carrinho">
                <g transform="translate(1514.000000, 31.000000)">
                    <g id="shopping-bag-(34)">
                        <g id="Shape">
                            <path d="M13.9647577,6.73828125 C13.5946696,6.73828125 13.3039648,7.0347207 13.3039648,7.41210938 C13.3039648,7.7894082 13.5946696,8.0859375 13.9647577,8.0859375 C14.3348458,8.0859375 14.6255507,7.7894082 14.6255507,7.41210938 C14.6255507,7.0347207 14.3348458,6.73828125 13.9647577,6.73828125 Z" fill-rule="nonzero"></path>
                            <path d="M6.03524229,6.73828125 C5.66515419,6.73828125 5.37444934,7.0347207 5.37444934,7.41210938 C5.37444934,7.7894082 5.66515419,8.0859375 6.03524229,8.0859375 C6.4053304,8.0859375 6.69603524,7.7894082 6.69603524,7.41210938 C6.69603524,7.0347207 6.4053304,6.73828125 6.03524229,6.73828125 Z" fill-rule="nonzero"></path>
                            <path d="M18.537489,4.04296875 L14.5727313,4.04296875 C14.6123348,4.25854883 14.6255507,4.48774023 14.6255507,4.71679688 L14.6255507,5.51186914 C15.3921145,5.78140039 15.9471366,6.53608789 15.9471366,7.41210938 C15.9471366,8.53061914 15.0617181,9.43359375 13.9647577,9.43359375 C12.8677974,9.43359375 11.9823789,8.53061914 11.9823789,7.41210938 C11.9823789,6.53608789 12.5374009,5.78140039 13.3039648,5.51186914 L13.3039648,4.71679688 C13.3039648,4.48774023 13.277489,4.25854883 13.2378855,4.04296875 L6.76211454,4.04296875 C6.72251101,4.25854883 6.69603524,4.48774023 6.69603524,4.71679688 L6.69603524,5.51186914 C7.46259912,5.78140039 8.01762115,6.53608789 8.01762115,7.41210938 C8.01762115,8.53061914 7.13220264,9.43359375 6.03524229,9.43359375 C4.93828194,9.43359375 4.05286344,8.53061914 4.05286344,7.41210938 C4.05286344,6.53608789 4.60788546,5.78140039 5.37444934,5.51186914 L5.37444934,4.71679688 C5.37444934,4.48774023 5.3876652,4.25854883 5.42726872,4.04296875 L1.46251101,4.04296875 L0.339207048,18.9570312 L19.660793,18.9570312 L18.537489,4.04296875 Z" fill-rule="nonzero"></path>
                            <polygon fill-rule="nonzero" points="19.7665198 20.3046875 0.233480176 20.3046875 0.0352863436 23 19.9647137 23"></polygon>
                            <path d="M10,0 C7.67400881,0 5.74453744,1.76542969 5.42726872,4.04296875 L6.76207048,4.04296875 C7.0660793,2.50664063 8.400837,1.34765625 9.99995595,1.34765625 C11.5990749,1.34765625 12.9338326,2.50664063 13.2378414,4.04296875 L14.5726432,4.04296875 C14.2554626,1.76542969 12.3259912,0 10,0 Z" fill-rule="nonzero"></path>
                        </g>
                    </g>
                </g>
            </g>
        </g>
    </g>
</svg>