<svg xmlns="http://www.w3.org/2000/svg" viewBox="0 0 358.89 314.8"><title>cart</title><g id="Camada_2" data-name="Camada 2"><g id="Capa_1" data-name="Capa 1"><path d="M352,103H329.17a7.42,7.42,0,0,0-1.09-1.39L233.72,7.25a24.74,24.74,0,0,0-35,0l-.26.26a24.77,24.77,0,0,0,0,35l41.08,41.08a7.42,7.42,0,1,0,10.49-10.49L209,32a9.92,9.92,0,0,1,0-14l.26-.26a9.91,9.91,0,0,1,14,0L308.5,103H99.89l60.52-60.52a24.77,24.77,0,0,0,0-35l-.24-.24a24.74,24.74,0,0,0-35,0L29.41,103H6.84A6.84,6.84,0,0,0,0,109.85v38.58a6.84,6.84,0,0,0,6.84,6.84h83v98.62a6.84,6.84,0,0,0,13.69,0V155.27h27.71v98.62a6.84,6.84,0,0,0,13.69,0V155.27H172.6v98.62a6.84,6.84,0,0,0,13.69,0V155.27H214v98.62a6.84,6.84,0,0,0,13.69,0V155.27h27.71v98.62a6.84,6.84,0,1,0,13.69,0V155.27h45.86L293.19,268.53a40.21,40.21,0,0,1-39.44,32.58H105.14A40.21,40.21,0,0,1,65.7,268.53L49.48,184.07A6.84,6.84,0,0,0,36,186.65l16.22,84.45a53.91,53.91,0,0,0,52.88,43.69H253.75a53.91,53.91,0,0,0,52.88-43.69l22.24-115.84H352a6.84,6.84,0,0,0,6.84-6.84V109.85A6.84,6.84,0,0,0,352,103ZM135.66,17.74a9.91,9.91,0,0,1,14,0l.24.24a9.92,9.92,0,0,1,0,14l-71,71H50.39ZM345.2,141.58H13.69v-24.9H345.2v24.9Z"/></g></g></svg>