<svg width="15px" height="15px" viewBox="0 0 15 15" version="1.1" xmlns="http://www.w3.org/2000/svg"><path d="M9.28273868,7.49953521 L14.6307963,2.15147763 C15.1230914,1.65918251 15.1230914,0.861016466 14.6307963,0.368791771 C14.1385011,-0.123503352 13.3404055,-0.123503352 12.8481104,0.368791771 L7.49998239,5.71691978 L2.15185438,0.368721343 C1.65955926,-0.123573781 0.861463645,-0.123573781 0.369168521,0.368721343 C-0.123056174,0.861016466 -0.123056174,1.65918251 0.369168521,2.1514072 L5.71729653,7.49946479 L0.369168521,12.8475928 C-0.123056174,13.3398879 -0.123056174,14.138054 0.369168521,14.6302787 C0.861463645,15.1225738 1.65955926,15.1225738 2.15185438,14.6302787 L7.49998239,9.28215065 L12.8481104,14.6302787 C13.3403351,15.1225738 14.1385011,15.1225738 14.6307963,14.6302787 C15.1230914,14.1379835 15.1230914,13.3398879 14.6307963,12.8475928 L9.28273868,7.49953521 Z"></path></svg>