<?xml version="1.0" encoding="UTF-8"?>
<svg width="29px" height="21px" viewBox="0 0 29 21" version="1.1" xmlns="http://www.w3.org/2000/svg" xmlns:xlink="http://www.w3.org/1999/xlink">
    <!-- Generator: Sketch 53.2 (72643) - https://sketchapp.com -->
    <title>mail (26)</title>
    <desc>Created with Sketch.</desc>
    <g id="Home" stroke="none" stroke-width="1" fill="none" fill-rule="evenodd">
        <g id="home-like" transform="translate(-340.000000, -4224.000000)" fill="#FFFFFF">
            <g id="newsletter" transform="translate(315.000000, 4189.000000)">
                <g id="Novidades" transform="translate(25.000000, 25.000509)">
                    <g id="mail-(26)" transform="translate(0.000000, 10.000000)">
                        <g>
                            <g id="Group" transform="translate(4.531250, 10.043478)" fill-rule="nonzero">
                                <path d="M18.2237813,5.94391304 C18.1123125,5.94391304 18.0008438,5.90282609 17.9138438,5.81973913 L12.6992813,0.891130435 C12.517125,0.719478261 12.5080625,0.430043478 12.6793438,0.246521739 C12.850625,0.061173913 13.1360938,0.0529565217 13.3200625,0.226434783 L18.534625,5.15504348 C18.7167813,5.32669565 18.7258438,5.61613043 18.5545625,5.79965217 C18.4648438,5.89552174 18.3452188,5.94391304 18.2237813,5.94391304 Z" id="Path"></path>
                                <path d="M0.8174375,5.94391304 C0.69690625,5.94391304 0.576375,5.89552174 0.48665625,5.79965217 C0.315375,5.61613043 0.3244375,5.32669565 0.50659375,5.15504348 L5.72296875,0.226434783 C5.90603125,0.0547826087 6.1933125,0.0620869565 6.3636875,0.246521739 C6.53496875,0.430043478 6.52590625,0.719478261 6.34375,0.891130435 L1.127375,5.81973913 C1.040375,5.90282609 0.92890625,5.94391304 0.8174375,5.94391304 Z" id="Path"></path>
                            </g>
                            <path d="M25.839,20.5699565 L2.265625,20.5699565 C1.0168125,20.5699565 0,19.5464348 0,18.2873478 L0,2.72269565 C0,1.4636087 1.0168125,0.440086957 2.265625,0.440086957 L25.839,0.440086957 C27.0878125,0.440086957 28.104625,1.4636087 28.104625,2.72269565 L28.104625,18.2873478 C28.104625,19.5464348 27.0878125,20.5699565 25.839,20.5699565 Z M2.265625,1.35313043 C1.51615625,1.35313043 0.90625,1.9676087 0.90625,2.72269565 L0.90625,18.2873478 C0.90625,19.0424348 1.51615625,19.656913 2.265625,19.656913 L25.839,19.656913 C26.5884687,19.656913 27.198375,19.0424348 27.198375,18.2873478 L27.198375,2.72269565 C27.198375,1.9676087 26.5884687,1.35313043 25.839,1.35313043 L2.265625,1.35313043 Z" id="Shape" fill-rule="nonzero"></path>
                            <path d="M14.0523125,12.7990435 C13.4496563,12.7990435 12.847,12.5972609 12.3884375,12.1946087 L0.7521875,1.9676087 C0.5636875,1.80234783 0.54375,1.51382609 0.70778125,1.323 C0.873625,1.13308696 1.15909375,1.11573913 1.34759375,1.27917391 L12.9838438,11.5052609 C13.5629375,12.0138261 14.5416875,12.0138261 15.119875,11.5052609 L26.741625,1.2956087 C26.9292188,1.13034783 27.2146875,1.1486087 27.3814375,1.33943478 C27.5454688,1.53026087 27.5264375,1.81786957 27.3379375,1.98404348 L15.7161875,12.1936957 C15.2567188,12.5972609 14.6549688,12.7990435 14.0523125,12.7990435 Z" id="Path" fill-rule="nonzero"></path>
                        </g>
                    </g>
                </g>
            </g>
        </g>
    </g>
</svg>