<?xml version="1.0" encoding="utf-8"?>
<!-- Generator: Adobe Illustrator 21.1.0, SVG Export Plug-In . SVG Version: 6.00 Build 0)  -->
<svg version="1.1" id="Camada_1" xmlns="http://www.w3.org/2000/svg" xmlns:xlink="http://www.w3.org/1999/xlink" x="0px" y="0px"
	 viewBox="0 0 894.2 71" style="enable-background:new 0 0 894.2 71;" xml:space="preserve">
<style type="text/css">
	.st0{display:none;}
	.st1{display:none;fill:#FFA800;}
	.st2{display:none;fill:#FFE5B2;}
	.st3{filter:url(#Adobe_OpacityMaskFilter);}
	.st4{fill:#FFFFFF;}
	.st5{mask:url(#mask-2_1_);fill:#F3D52C;}
	.st6{filter:url(#Adobe_OpacityMaskFilter_1_);}
	.st7{mask:url(#mask-2_2_);fill:#F3D52C;}
	.st8{filter:url(#Adobe_OpacityMaskFilter_2_);}
	.st9{mask:url(#mask-2_3_);fill:#F3D52C;}
	.st10{filter:url(#Adobe_OpacityMaskFilter_3_);}
	.st11{mask:url(#mask-2_4_);fill:#F3D52C;}
	.st12{filter:url(#Adobe_OpacityMaskFilter_4_);}
	.st13{mask:url(#mask-2_5_);fill:#F3D52C;}
	.st14{filter:url(#Adobe_OpacityMaskFilter_5_);}
	.st15{mask:url(#mask-2_6_);fill:#F8EDAD;}
	.st16{filter:url(#Adobe_OpacityMaskFilter_6_);}
	.st17{mask:url(#mask-2_7_);fill:#F8EDAD;}
	.st18{filter:url(#Adobe_OpacityMaskFilter_7_);}
	.st19{mask:url(#mask-2_8_);fill:#F8EDAD;}
	.st20{filter:url(#Adobe_OpacityMaskFilter_8_);}
	.st21{mask:url(#mask-2_9_);fill:#F8EDAD;}
	.st22{filter:url(#Adobe_OpacityMaskFilter_9_);}
	.st23{mask:url(#mask-2_10_);fill:#F8EDAD;}
</style>
<title></title>
<g id="icomoon-ignore" class="st0">
</g>
<path class="st0" d="M1386.5,117.9c0,4.5-3.2,8.8-6.5,12l-90.8,88.5l21.5,125c0.2,1.8,0.2,3.2,0.2,5c0,6.5-3,12.5-10.2,12.5
	c-3.5,0-7-1.2-10-3l-112.2-59l-112.2,59c-3.2,1.8-6.5,3-10,3c-7.2,0-10.5-6-10.5-12.5c0-1.8,0.2-3.2,0.5-5l21.5-125l-91-88.5
	c-3-3.2-6.2-7.5-6.2-12c0-7.5,7.8-10.5,14-11.5L1110,88.2l56.2-113.8c2.2-4.8,6.5-10.2,12.2-10.2s10,5.5,12.2,10.2L1247,88.2
	l125.5,18.2C1378.5,107.4,1386.5,110.4,1386.5,117.9z"/>
<path class="st1" d="M74.3,27.6c0,0.8-0.6,1.5-1.1,2.1l-16,15.6l3.8,22c0,0.3,0,0.6,0,0.9c0,1.1-0.5,2.2-1.8,2.2
	c-0.6,0-1.2-0.2-1.8-0.5L37.7,59.5L17.9,69.9c-0.6,0.3-1.1,0.5-1.8,0.5c-1.3,0-1.9-1.1-1.9-2.2c0-0.3,0-0.6,0.1-0.9l3.8-22l-16-15.6
	C1.6,29.2,1,28.4,1,27.6c0-1.3,1.4-1.9,2.5-2l22.1-3.2l9.9-20.1c0.4-0.8,1.1-1.8,2.2-1.8c1,0,1.8,1,2.2,1.8l9.9,20.1l22.1,3.2
	C72.9,25.8,74.3,26.3,74.3,27.6z"/>
<path class="st1" d="M165.2,27.6c0,0.8-0.6,1.5-1.1,2.1l-16,15.6l3.8,22c0,0.3,0,0.6,0,0.9c0,1.1-0.5,2.2-1.8,2.2
	c-0.6,0-1.2-0.2-1.8-0.5l-19.8-10.4l-19.8,10.4c-0.6,0.3-1.1,0.5-1.8,0.5c-1.3,0-1.9-1.1-1.9-2.2c0-0.3,0-0.6,0.1-0.9l3.8-22
	L93,29.7c-0.5-0.6-1.1-1.3-1.1-2.1c0-1.3,1.4-1.9,2.5-2l22.1-3.2l9.9-20.1c0.4-0.8,1.1-1.8,2.2-1.8c1,0,1.8,1,2.2,1.8l9.9,20.1
	l22.1,3.2C163.8,25.8,165.2,26.3,165.2,27.6z"/>
<path class="st1" d="M256.1,27.6c0,0.8-0.6,1.5-1.1,2.1l-16,15.6l3.8,22c0,0.3,0,0.6,0,0.9c0,1.1-0.5,2.2-1.8,2.2
	c-0.6,0-1.2-0.2-1.8-0.5l-19.8-10.4l-19.8,10.4c-0.6,0.3-1.1,0.5-1.8,0.5c-1.3,0-1.9-1.1-1.9-2.2c0-0.3,0-0.6,0.1-0.9l3.8-22
	l-16-15.6c-0.5-0.6-1.1-1.3-1.1-2.1c0-1.3,1.4-1.9,2.5-2l22.1-3.2l9.9-20.1c0.4-0.8,1.1-1.8,2.2-1.8c1,0,1.8,1,2.2,1.8l9.9,20.1
	l22.1,3.2C254.7,25.8,256.1,26.3,256.1,27.6z"/>
<path class="st1" d="M347,27.6c0,0.8-0.6,1.5-1.1,2.1l-16,15.6l3.8,22c0,0.3,0,0.6,0,0.9c0,1.1-0.5,2.2-1.8,2.2
	c-0.6,0-1.2-0.2-1.8-0.5l-19.8-10.4l-19.8,10.4c-0.6,0.3-1.1,0.5-1.8,0.5c-1.3,0-1.9-1.1-1.9-2.2c0-0.3,0-0.6,0.1-0.9l3.8-22
	l-16-15.6c-0.5-0.6-1.1-1.3-1.1-2.1c0-1.3,1.4-1.9,2.5-2l22.1-3.2l9.9-20.1c0.4-0.8,1.1-1.8,2.2-1.8s1.8,1,2.2,1.8l9.9,20.1
	l22.1,3.2C345.6,25.8,347,26.3,347,27.6z"/>
<path class="st1" d="M437.8,27.6c0,0.8-0.6,1.5-1.1,2.1l-16,15.6l3.8,22c0,0.3,0,0.6,0,0.9c0,1.1-0.5,2.2-1.8,2.2
	c-0.6,0-1.2-0.2-1.8-0.5l-19.8-10.4l-19.8,10.4c-0.6,0.3-1.1,0.5-1.8,0.5c-1.3,0-1.9-1.1-1.9-2.2c0-0.3,0-0.6,0.1-0.9l3.8-22
	l-16-15.6c-0.5-0.6-1.1-1.3-1.1-2.1c0-1.3,1.4-1.9,2.5-2l22.1-3.2l10-20.1c0.4-0.8,1.1-1.8,2.2-1.8s1.8,1,2.2,1.8l9.9,20.1l22.1,3.2
	C436.4,25.8,437.8,26.3,437.8,27.6z"/>
<path class="st2" d="M528.7,27.6c0,0.8-0.6,1.5-1.1,2.1l-16,15.6l3.8,22c0,0.3,0,0.6,0,0.9c0,1.1-0.5,2.2-1.8,2.2
	c-0.6,0-1.2-0.2-1.8-0.5L492,59.5l-19.8,10.4c-0.6,0.3-1.1,0.5-1.8,0.5c-1.3,0-1.9-1.1-1.9-2.2c0-0.3,0-0.6,0.1-0.9l3.8-22l-16-15.6
	c-0.5-0.6-1.1-1.3-1.1-2.1c0-1.3,1.4-1.9,2.5-2l22.1-3.2l9.9-20.1c0.4-0.8,1.1-1.8,2.2-1.8s1.8,1,2.2,1.8l9.9,20.1l22.1,3.2
	C527.3,25.8,528.7,26.3,528.7,27.6z"/>
<path class="st2" d="M619.6,27.6c0,0.8-0.6,1.5-1.1,2.1l-16,15.6l3.8,22c0,0.3,0,0.6,0,0.9c0,1.1-0.5,2.2-1.8,2.2
	c-0.6,0-1.2-0.2-1.8-0.5l-19.8-10.4l-19.8,10.4c-0.6,0.3-1.1,0.5-1.8,0.5c-1.3,0-1.9-1.1-1.9-2.2c0-0.3,0-0.6,0.1-0.9l3.8-22
	l-16-15.6c-0.5-0.6-1.1-1.3-1.1-2.1c0-1.3,1.4-1.9,2.5-2l22.1-3.2l9.9-20.1c0.4-0.8,1.1-1.8,2.2-1.8c1,0,1.8,1,2.2,1.8l9.9,20.1
	l22.1,3.2C618.2,25.8,619.6,26.3,619.6,27.6z"/>
<path class="st2" d="M710.5,27.6c0,0.8-0.6,1.5-1.1,2.1l-16,15.6l3.8,22c0,0.3,0,0.6,0,0.9c0,1.1-0.5,2.2-1.8,2.2
	c-0.6,0-1.2-0.2-1.8-0.5l-19.8-10.4L654,69.9c-0.6,0.3-1.1,0.5-1.8,0.5c-1.3,0-1.9-1.1-1.9-2.2c0-0.3,0-0.6,0.1-0.9l3.8-22l-16-15.6
	c-0.5-0.6-1.1-1.3-1.1-2.1c0-1.3,1.4-1.9,2.5-2l22.1-3.2l9.9-20.1c0.4-0.8,1.1-1.8,2.2-1.8c1,0,1.8,1,2.2,1.8l9.9,20.1l22.1,3.2
	C709,25.8,710.5,26.3,710.5,27.6z"/>
<path class="st2" d="M801.3,27.6c0,0.8-0.6,1.5-1.1,2.1l-16,15.6l3.8,22c0,0.3,0,0.6,0,0.9c0,1.1-0.5,2.2-1.8,2.2
	c-0.6,0-1.2-0.2-1.8-0.5l-19.8-10.4l-19.8,10.4c-0.6,0.3-1.1,0.5-1.8,0.5c-1.3,0-1.9-1.1-1.9-2.2c0-0.3,0-0.6,0.1-0.9l3.8-22
	l-16-15.6c-0.5-0.6-1.1-1.3-1.1-2.1c0-1.3,1.4-1.9,2.5-2l22.1-3.2l9.9-20.1c0.4-0.8,1.1-1.8,2.2-1.8c1,0,1.8,1,2.2,1.8l9.9,20.1
	l22.1,3.2C799.9,25.8,801.3,26.3,801.3,27.6z"/>
<path class="st2" d="M892.2,27.6c0,0.8-0.6,1.5-1.1,2.1l-16,15.6l3.8,22c0,0.3,0,0.6,0,0.9c0,1.1-0.5,2.2-1.8,2.2
	c-0.6,0-1.2-0.2-1.8-0.5l-19.8-10.4l-19.8,10.4c-0.6,0.3-1.1,0.5-1.8,0.5c-1.3,0-1.9-1.1-1.9-2.2c0-0.3,0-0.6,0.1-0.9l3.8-22
	l-16-15.6c-0.5-0.6-1.1-1.3-1.1-2.1c0-1.3,1.4-1.9,2.5-2l22.1-3.2l9.9-20.1c0.4-0.8,1.1-1.8,2.2-1.8c1,0,1.8,1,2.2,1.8l9.9,20.1
	l22.1,3.2C890.8,25.8,892.2,26.3,892.2,27.6z"/>
<g id="preco" transform="translate(0.000000, -2.000000)">
	<g id="Group-2">
		<g>
			<g id="Page-1" transform="translate(0.000000, 2.000000)">
				<g id="Clip-2">
				</g>
				<defs>
					<filter id="Adobe_OpacityMaskFilter" filterUnits="userSpaceOnUse" x="-0.1" y="-0.4" width="75.7" height="70.7">
						<feColorMatrix  type="matrix" values="1 0 0 0 0  0 1 0 0 0  0 0 1 0 0  0 0 0 1 0"/>
					</filter>
				</defs>
				<mask maskUnits="userSpaceOnUse" x="-0.1" y="-0.4" width="75.7" height="70.7" id="mask-2_1_">
					<g class="st3">
						<polygon id="path-1_1_" class="st4" points="-0.1,-0.4 75.6,-0.4 75.6,70.3 -0.1,70.3 						"/>
					</g>
				</mask>
				<path id="Fill-1" class="st5" d="M72.3,23.7l-20.9-1.9c-1.3-0.1-2.5-0.9-3-2.2L41,1.8c-1.2-2.9-5.4-2.9-6.6,0l-7.4,17.8
					c-0.5,1.2-1.7,2.1-3,2.2L3.1,23.7c-3.1,0.3-4.4,4.1-2,6.2l15.7,13.6c1,0.9,1.4,2.2,1.1,3.5l-4.7,19c-0.7,3,2.6,5.5,5.3,3.9
					l17.4-10c1.1-0.6,2.5-0.6,3.6,0l17.4,10c2.7,1.6,6-0.8,5.3-3.9l-4.7-19c-0.3-1.3,0.1-2.6,1.1-3.5l15.7-13.6
					C76.7,27.8,75.4,24,72.3,23.7"/>
			</g>
		</g>
	</g>
</g>
<g id="preco_1_" transform="translate(0.000000, -2.000000)">
	<g id="Group-2_1_">
		<g>
			<g id="Page-1_1_" transform="translate(0.000000, 2.000000)">
				<g id="Clip-2_1_">
				</g>
				<defs>
					<filter id="Adobe_OpacityMaskFilter_1_" filterUnits="userSpaceOnUse" x="90.9" y="-0.4" width="75.7" height="70.7">
						<feColorMatrix  type="matrix" values="1 0 0 0 0  0 1 0 0 0  0 0 1 0 0  0 0 0 1 0"/>
					</filter>
				</defs>
				<mask maskUnits="userSpaceOnUse" x="90.9" y="-0.4" width="75.7" height="70.7" id="mask-2_2_">
					<g class="st6">
						<polygon id="path-1_2_" class="st4" points="90.9,-0.4 166.6,-0.4 166.6,70.3 90.9,70.3 						"/>
					</g>
				</mask>
				<path id="Fill-1_1_" class="st7" d="M163.3,23.7l-20.9-1.9c-1.3-0.1-2.5-0.9-3-2.2L132,1.8c-1.2-2.9-5.4-2.9-6.6,0l-7.4,17.8
					c-0.5,1.2-1.7,2.1-3,2.2l-20.9,1.9c-3.1,0.3-4.4,4.1-2,6.2l15.7,13.6c1,0.9,1.4,2.2,1.1,3.5l-4.7,19c-0.7,3,2.6,5.5,5.3,3.9
					l17.4-10c1.1-0.6,2.5-0.6,3.6,0l17.4,10c2.7,1.6,6-0.8,5.3-3.9l-4.7-19c-0.3-1.3,0.1-2.6,1.1-3.5l15.7-13.6
					C167.7,27.8,166.4,24,163.3,23.7"/>
			</g>
		</g>
	</g>
</g>
<g id="preco_2_" transform="translate(0.000000, -2.000000)">
	<g id="Group-2_2_">
		<g>
			<g id="Page-1_2_" transform="translate(0.000000, 2.000000)">
				<g id="Clip-2_2_">
				</g>
				<defs>
					<filter id="Adobe_OpacityMaskFilter_2_" filterUnits="userSpaceOnUse" x="181.9" y="-0.4" width="75.7" height="70.7">
						<feColorMatrix  type="matrix" values="1 0 0 0 0  0 1 0 0 0  0 0 1 0 0  0 0 0 1 0"/>
					</filter>
				</defs>
				<mask maskUnits="userSpaceOnUse" x="181.9" y="-0.4" width="75.7" height="70.7" id="mask-2_3_">
					<g class="st8">
						<polygon id="path-1_3_" class="st4" points="181.9,-0.4 257.6,-0.4 257.6,70.3 181.9,70.3 						"/>
					</g>
				</mask>
				<path id="Fill-1_2_" class="st9" d="M254.3,23.7l-20.9-1.9c-1.3-0.1-2.5-0.9-3-2.2L223,1.8c-1.2-2.9-5.4-2.9-6.6,0l-7.4,17.8
					c-0.5,1.2-1.7,2.1-3,2.2l-20.9,1.9c-3.1,0.3-4.4,4.1-2,6.2l15.7,13.6c1,0.9,1.4,2.2,1.1,3.5l-4.7,19c-0.7,3,2.6,5.5,5.3,3.9
					l17.4-10c1.1-0.6,2.5-0.6,3.6,0l17.4,10c2.7,1.6,6-0.8,5.3-3.9l-4.7-19c-0.3-1.3,0.1-2.6,1.1-3.5l15.7-13.6
					C258.7,27.8,257.4,24,254.3,23.7"/>
			</g>
		</g>
	</g>
</g>
<g id="preco_3_" transform="translate(0.000000, -2.000000)">
	<g id="Group-2_3_">
		<g>
			<g id="Page-1_3_" transform="translate(0.000000, 2.000000)">
				<g id="Clip-2_3_">
				</g>
				<defs>
					<filter id="Adobe_OpacityMaskFilter_3_" filterUnits="userSpaceOnUse" x="272.9" y="-0.4" width="75.7" height="70.7">
						<feColorMatrix  type="matrix" values="1 0 0 0 0  0 1 0 0 0  0 0 1 0 0  0 0 0 1 0"/>
					</filter>
				</defs>
				<mask maskUnits="userSpaceOnUse" x="272.9" y="-0.4" width="75.7" height="70.7" id="mask-2_4_">
					<g class="st10">
						<polygon id="path-1_4_" class="st4" points="272.9,-0.4 348.6,-0.4 348.6,70.3 272.9,70.3 						"/>
					</g>
				</mask>
				<path id="Fill-1_3_" class="st11" d="M345.3,23.7l-20.9-1.9c-1.3-0.1-2.5-0.9-3-2.2L314,1.8c-1.2-2.9-5.4-2.9-6.6,0l-7.4,17.8
					c-0.5,1.2-1.7,2.1-3,2.2l-20.9,1.9c-3.1,0.3-4.4,4.1-2,6.2l15.7,13.6c1,0.9,1.4,2.2,1.1,3.5l-4.7,19c-0.7,3,2.6,5.5,5.3,3.9
					l17.4-10c1.1-0.6,2.5-0.6,3.6,0l17.4,10c2.7,1.6,6-0.8,5.3-3.9l-4.7-19c-0.3-1.3,0.1-2.6,1.1-3.5l15.7-13.6
					C349.7,27.8,348.4,24,345.3,23.7"/>
			</g>
		</g>
	</g>
</g>
<g id="preco_4_" transform="translate(0.000000, -2.000000)">
	<g id="Group-2_4_">
		<g>
			<g id="Page-1_4_" transform="translate(0.000000, 2.000000)">
				<g id="Clip-2_4_">
				</g>
				<defs>
					<filter id="Adobe_OpacityMaskFilter_4_" filterUnits="userSpaceOnUse" x="363.9" y="-0.4" width="75.7" height="70.7">
						<feColorMatrix  type="matrix" values="1 0 0 0 0  0 1 0 0 0  0 0 1 0 0  0 0 0 1 0"/>
					</filter>
				</defs>
				<mask maskUnits="userSpaceOnUse" x="363.9" y="-0.4" width="75.7" height="70.7" id="mask-2_5_">
					<g class="st12">
						<polygon id="path-1_5_" class="st4" points="363.9,-0.4 439.6,-0.4 439.6,70.3 363.9,70.3 						"/>
					</g>
				</mask>
				<path id="Fill-1_4_" class="st13" d="M436.3,23.7l-20.9-1.9c-1.3-0.1-2.5-0.9-3-2.2L405,1.8c-1.2-2.9-5.4-2.9-6.6,0l-7.4,17.8
					c-0.5,1.2-1.7,2.1-3,2.2l-20.9,1.9c-3.1,0.3-4.4,4.1-2,6.2l15.7,13.6c1,0.9,1.4,2.2,1.1,3.5l-4.7,19c-0.7,3,2.6,5.5,5.3,3.9
					l17.4-10c1.1-0.6,2.5-0.6,3.6,0l17.4,10c2.7,1.6,6-0.8,5.3-3.9l-4.7-19c-0.3-1.3,0.1-2.6,1.1-3.5l15.7-13.6
					C440.7,27.8,439.4,24,436.3,23.7"/>
			</g>
		</g>
	</g>
</g>
<g id="preco_5_" transform="translate(0.000000, -2.000000)">
	<g id="Group-2_5_">
		<g>
			<g id="Page-1_5_" transform="translate(0.000000, 2.000000)">
				<g id="Clip-2_5_">
				</g>
				<defs>
					<filter id="Adobe_OpacityMaskFilter_5_" filterUnits="userSpaceOnUse" x="454.9" y="-0.4" width="75.7" height="70.7">
						<feColorMatrix  type="matrix" values="1 0 0 0 0  0 1 0 0 0  0 0 1 0 0  0 0 0 1 0"/>
					</filter>
				</defs>
				<mask maskUnits="userSpaceOnUse" x="454.9" y="-0.4" width="75.7" height="70.7" id="mask-2_6_">
					<g class="st14">
						<polygon id="path-1_6_" class="st4" points="454.9,-0.4 530.6,-0.4 530.6,70.3 454.9,70.3 						"/>
					</g>
				</mask>
				<path id="Fill-1_5_" class="st15" d="M527.3,23.7l-20.9-1.9c-1.3-0.1-2.5-0.9-3-2.2L496,1.8c-1.2-2.9-5.4-2.9-6.6,0l-7.4,17.8
					c-0.5,1.2-1.7,2.1-3,2.2l-20.9,1.9c-3.1,0.3-4.4,4.1-2,6.2l15.7,13.6c1,0.9,1.4,2.2,1.1,3.5l-4.7,19c-0.7,3,2.6,5.5,5.3,3.9
					l17.4-10c1.1-0.6,2.5-0.6,3.6,0l17.4,10c2.7,1.6,6-0.8,5.3-3.9l-4.7-19c-0.3-1.3,0.1-2.6,1.1-3.5l15.7-13.6
					C531.7,27.8,530.4,24,527.3,23.7"/>
			</g>
		</g>
	</g>
</g>
<g id="preco_6_" transform="translate(0.000000, -2.000000)">
	<g id="Group-2_6_">
		<g>
			<g id="Page-1_6_" transform="translate(0.000000, 2.000000)">
				<g id="Clip-2_6_">
				</g>
				<defs>
					<filter id="Adobe_OpacityMaskFilter_6_" filterUnits="userSpaceOnUse" x="545.9" y="-0.4" width="75.7" height="70.7">
						<feColorMatrix  type="matrix" values="1 0 0 0 0  0 1 0 0 0  0 0 1 0 0  0 0 0 1 0"/>
					</filter>
				</defs>
				<mask maskUnits="userSpaceOnUse" x="545.9" y="-0.4" width="75.7" height="70.7" id="mask-2_7_">
					<g class="st16">
						<polygon id="path-1_7_" class="st4" points="545.9,-0.4 621.6,-0.4 621.6,70.3 545.9,70.3 						"/>
					</g>
				</mask>
				<path id="Fill-1_6_" class="st17" d="M618.3,23.7l-20.9-1.9c-1.3-0.1-2.5-0.9-3-2.2L587,1.8c-1.2-2.9-5.4-2.9-6.6,0l-7.4,17.8
					c-0.5,1.2-1.7,2.1-3,2.2l-20.9,1.9c-3.1,0.3-4.4,4.1-2,6.2l15.7,13.6c1,0.9,1.4,2.2,1.1,3.5l-4.7,19c-0.7,3,2.6,5.5,5.3,3.9
					l17.4-10c1.1-0.6,2.5-0.6,3.6,0l17.4,10c2.7,1.6,6-0.8,5.3-3.9l-4.7-19c-0.3-1.3,0.1-2.6,1.1-3.5l15.7-13.6
					C622.7,27.8,621.4,24,618.3,23.7"/>
			</g>
		</g>
	</g>
</g>
<g id="preco_7_" transform="translate(0.000000, -2.000000)">
	<g id="Group-2_7_">
		<g>
			<g id="Page-1_7_" transform="translate(0.000000, 2.000000)">
				<g id="Clip-2_7_">
				</g>
				<defs>
					<filter id="Adobe_OpacityMaskFilter_7_" filterUnits="userSpaceOnUse" x="636.9" y="-0.4" width="75.7" height="70.7">
						<feColorMatrix  type="matrix" values="1 0 0 0 0  0 1 0 0 0  0 0 1 0 0  0 0 0 1 0"/>
					</filter>
				</defs>
				<mask maskUnits="userSpaceOnUse" x="636.9" y="-0.4" width="75.7" height="70.7" id="mask-2_8_">
					<g class="st18">
						<polygon id="path-1_8_" class="st4" points="636.9,-0.4 712.6,-0.4 712.6,70.3 636.9,70.3 						"/>
					</g>
				</mask>
				<path id="Fill-1_7_" class="st19" d="M709.3,23.7l-20.9-1.9c-1.3-0.1-2.5-0.9-3-2.2L678,1.8c-1.2-2.9-5.4-2.9-6.6,0l-7.4,17.8
					c-0.5,1.2-1.7,2.1-3,2.2l-20.9,1.9c-3.1,0.3-4.4,4.1-2,6.2l15.7,13.6c1,0.9,1.4,2.2,1.1,3.5l-4.7,19c-0.7,3,2.6,5.5,5.3,3.9
					l17.4-10c1.1-0.6,2.5-0.6,3.6,0l17.4,10c2.7,1.6,6-0.8,5.3-3.9l-4.7-19c-0.3-1.3,0.1-2.6,1.1-3.5l15.7-13.6
					C713.7,27.8,712.4,24,709.3,23.7"/>
			</g>
		</g>
	</g>
</g>
<g id="preco_8_" transform="translate(0.000000, -2.000000)">
	<g id="Group-2_8_">
		<g>
			<g id="Page-1_8_" transform="translate(0.000000, 2.000000)">
				<g id="Clip-2_8_">
				</g>
				<defs>
					<filter id="Adobe_OpacityMaskFilter_8_" filterUnits="userSpaceOnUse" x="727.9" y="-0.4" width="75.7" height="70.7">
						<feColorMatrix  type="matrix" values="1 0 0 0 0  0 1 0 0 0  0 0 1 0 0  0 0 0 1 0"/>
					</filter>
				</defs>
				<mask maskUnits="userSpaceOnUse" x="727.9" y="-0.4" width="75.7" height="70.7" id="mask-2_9_">
					<g class="st20">
						<polygon id="path-1_9_" class="st4" points="727.9,-0.4 803.6,-0.4 803.6,70.3 727.9,70.3 						"/>
					</g>
				</mask>
				<path id="Fill-1_8_" class="st21" d="M800.3,23.7l-20.9-1.9c-1.3-0.1-2.5-0.9-3-2.2L769,1.8c-1.2-2.9-5.4-2.9-6.6,0l-7.4,17.8
					c-0.5,1.2-1.7,2.1-3,2.2l-20.9,1.9c-3.1,0.3-4.4,4.1-2,6.2l15.7,13.6c1,0.9,1.4,2.2,1.1,3.5l-4.7,19c-0.7,3,2.6,5.5,5.3,3.9
					l17.4-10c1.1-0.6,2.5-0.6,3.6,0l17.4,10c2.7,1.6,6-0.8,5.3-3.9l-4.7-19c-0.3-1.3,0.1-2.6,1.1-3.5l15.7-13.6
					C804.7,27.8,803.4,24,800.3,23.7"/>
			</g>
		</g>
	</g>
</g>
<g id="preco_9_" transform="translate(0.000000, -2.000000)">
	<g id="Group-2_9_">
		<g>
			<g id="Page-1_9_" transform="translate(0.000000, 2.000000)">
				<g id="Clip-2_9_">
				</g>
				<defs>
					<filter id="Adobe_OpacityMaskFilter_9_" filterUnits="userSpaceOnUse" x="818.9" y="-0.4" width="75.7" height="70.7">
						<feColorMatrix  type="matrix" values="1 0 0 0 0  0 1 0 0 0  0 0 1 0 0  0 0 0 1 0"/>
					</filter>
				</defs>
				<mask maskUnits="userSpaceOnUse" x="818.9" y="-0.4" width="75.7" height="70.7" id="mask-2_10_">
					<g class="st22">
						<polygon id="path-1_10_" class="st4" points="818.9,-0.4 894.6,-0.4 894.6,70.3 818.9,70.3 						"/>
					</g>
				</mask>
				<path id="Fill-1_9_" class="st23" d="M891.3,23.7l-20.9-1.9c-1.3-0.1-2.5-0.9-3-2.2L860,1.8c-1.2-2.9-5.4-2.9-6.6,0l-7.4,17.8
					c-0.5,1.2-1.7,2.1-3,2.2l-20.9,1.9c-3.1,0.3-4.4,4.1-2,6.2l15.7,13.6c1,0.9,1.4,2.2,1.1,3.5l-4.7,19c-0.7,3,2.6,5.5,5.3,3.9
					l17.4-10c1.1-0.6,2.5-0.6,3.6,0l17.4,10c2.7,1.6,6-0.8,5.3-3.9l-4.7-19c-0.3-1.3,0.1-2.6,1.1-3.5l15.7-13.6
					C895.7,27.8,894.4,24,891.3,23.7"/>
			</g>
		</g>
	</g>
</g>
</svg>
