<?xml version="1.0" encoding="UTF-8"?>
<svg width="15px" height="13px" viewBox="0 0 15 13" version="1.1" xmlns="http://www.w3.org/2000/svg" xmlns:xlink="http://www.w3.org/1999/xlink">
    <!-- Generator: Sketch 52.5 (67469) - http://www.bohemiancoding.com/sketch -->
    <title>left-arrow (44)</title>
    <desc>Created with Sketch.</desc>
    <defs>
        <linearGradient x1="0%" y1="1.3671875%" x2="100.397892%" y2="1.3671875%" id="linearGradient-1">
            <stop stop-color="color[0]" offset="0%"></stop>
            <stop stop-color="color[0]" offset="100%"></stop>
        </linearGradient>
    </defs>
    <g id="Home" stroke="none" stroke-width="1" fill="none" fill-rule="evenodd">
        <g id="catalogo-like" transform="translate(-1590.000000, -507.000000)" fill="url(#linearGradient-1)">
            <g id="paginação-topo" transform="translate(574.000000, 500.000000)">
                <g id="Group-25">
                    <g transform="translate(900.000000, 0.000000)">
                        <g id="left-arrow-(44)" transform="translate(123.500000, 13.136364) rotate(-180.000000) translate(-123.500000, -13.136364) translate(116.000000, 7.000000)">
                            <g id="Path">
                                <path d="M14.1568293,4.87077073 L14.1802439,4.8756878 L4.14292683,4.8756878 L7.29829268,1.83986341 C7.45280488,1.69164878 7.53756098,1.49086829 7.53756098,1.28013659 C7.53756098,1.06940488 7.45280488,0.870029268 7.29829268,0.721463415 L6.80731707,0.249892683 C6.65292683,0.101678049 6.44719512,0.0197268293 6.22780488,0.0197268293 C6.00829268,0.0197268293 5.80243902,0.101092683 5.64804878,0.249307317 L0.239146341,5.44138537 C0.0841463415,5.59018537 -0.000609756098,5.78839024 1.69406589e-21,5.99923902 C-0.000609756098,6.21125854 0.0841463415,6.40958049 0.239146341,6.55814634 L5.64804878,11.7506927 C5.80243902,11.8987902 6.00817073,11.9802732 6.22780488,11.9802732 C6.44719512,11.9802732 6.65292683,11.8986732 6.80731707,11.7506927 L7.29829268,11.279122 C7.45280488,11.1311415 7.53756098,10.933522 7.53756098,10.7227902 C7.53756098,10.5121756 7.45280488,10.3249756 7.29829268,10.176878 L4.10731707,7.12407805 L14.1680488,7.12407805 C14.620122,7.12407805 15,6.75002927 15,6.31627317 L15,5.64930732 C15,5.21555122 14.6089024,4.87077073 14.1568293,4.87077073 Z" fill-rule="nonzero"></path>
                            </g>
                        </g>
                    </g>
                </g>
            </g>
        </g>
    </g>
</svg>