<?xml version="1.0" encoding="UTF-8"?>
<svg width="20px" height="20px" viewBox="0 0 20 20" version="1.1" xmlns="http://www.w3.org/2000/svg" xmlns:xlink="http://www.w3.org/1999/xlink">
    <!-- Generator: Sketch 51.3 (57544) - http://www.bohemiancoding.com/sketch -->
    <title>discount</title>
    <desc>Created with Sketch.</desc>
    <defs></defs>
    <g id="Page-1" stroke="none" stroke-width="1" fill="none" fill-rule="evenodd">
        <g id="home-wawcadeiras" transform="translate(-770.000000, -2315.000000)" fill="#FF7000">
            <g id="meio" transform="translate(431.000000, 136.000000)">
                <g id="surpreenda-se" transform="translate(0.000000, 1867.000000)">
                    <g id="opcoes" transform="translate(2.000000, 294.000000)">
                        <g id="desconto-imperdivel" transform="translate(284.000000, 0.000000)">
                            <g id="txt" transform="translate(53.000000, 18.000000)">
                                <g id="discount">
                                    <g id="Shape">
                                        <path d="M18.9344667,7.87810384 C18.8300649,7.7155051 18.7780404,7.52486596 18.7856236,7.33175792 L18.8577526,5.9909354 C18.8981377,5.27458379 18.5098053,4.60267354 17.8691098,4.27994497 L16.6817156,3.67945824 C16.5099464,3.59339729 16.3704501,3.45407729 16.2843891,3.28213178 L15.6839024,2.09473761 C15.3613502,1.45404203 14.6892636,1.06570966 13.972912,1.10609481 L12.6320894,1.17840009 C12.4386287,1.18862867 12.2471078,1.13642777 12.0857435,1.02938063 L10.9752398,0.298038916 C10.3726368,-0.0992875395 9.59121047,-0.0992875395 8.98878384,0.298038916 L7.87810384,1.02938063 C7.7155051,1.13378244 7.52486596,1.185807 7.33175792,1.17840009 L5.9909354,1.10609481 C5.27458379,1.06570966 4.60267354,1.45404203 4.27994497,2.09473761 L3.67945824,3.28213178 C3.59339729,3.45407729 3.45407729,3.59339729 3.28213178,3.67945824 L2.09473761,4.27994497 C1.45404203,4.60267354 1.06570966,5.27458379 1.10609481,5.9909354 L1.17840009,7.33175792 C1.18915774,7.52521869 1.13695684,7.71691594 1.02938063,7.87810384 L0.298038916,8.98878384 C-0.0992875395,9.59121047 -0.0992875395,10.3726368 0.298038916,10.9752398 L1.02938063,12.0857435 C1.13378244,12.2483423 1.185807,12.4389814 1.17840009,12.6320894 L1.10609481,13.972912 C1.06570966,14.6892636 1.45404203,15.3613502 2.09473761,15.6839024 L3.28213178,16.2843891 C3.45407729,16.3704501 3.59339729,16.5099464 3.67945824,16.6817156 L4.27994497,17.8691098 C4.60267354,18.5098053 5.27458379,18.8981377 5.9909354,18.8577526 L7.33175792,18.7856236 C7.52521869,18.7752187 7.71673955,18.8275959 7.87810384,18.9344667 L8.98878384,19.6659847 C9.59121047,20.0631349 10.3726368,20.0631349 10.9752398,19.6659847 L12.0857435,18.9344667 C12.2483423,18.8300649 12.4389814,18.7780404 12.6320894,18.7856236 L13.972912,18.8577526 C14.6892636,18.8981377 15.3613502,18.5098053 15.6839024,17.8691098 L16.2843891,16.6817156 C16.3704501,16.5099464 16.5099464,16.3704501 16.6817156,16.2843891 L17.8691098,15.6839024 C18.5098053,15.3613502 18.8981377,14.6892636 18.8577526,13.972912 L18.7856236,12.6320894 C18.7746896,12.4386287 18.8268905,12.2469314 18.9344667,12.0857435 L19.6659847,10.9752398 C20.0631349,10.3726368 20.0631349,9.59121047 19.6659847,8.98878384 L18.9344667,7.87810384 Z M18.9118934,10.4786258 L18.1805516,11.5891295 C17.9678682,11.9123871 17.8650536,12.2954289 17.8870979,12.6816451 L17.9594032,14.0226439 C17.977215,14.3813488 17.7826961,14.7171275 17.4627892,14.8804317 L16.275395,15.4807421 C15.9300931,15.6544512 15.6500423,15.9346783 15.4763332,16.2799802 L14.8758465,17.4671981 C14.7134241,17.7879867 14.3771163,17.9828583 14.0180587,17.9638121 L12.6772362,17.8916831 C12.2911964,17.8717551 11.9086837,17.9743933 11.5847206,18.1851368 L10.4786258,18.9118934 C10.1772362,19.1106447 9.7866112,19.1106447 9.48539783,18.9118934 L8.37471783,18.1805516 C8.07826609,17.9862091 7.73155332,17.882689 7.37690465,17.882689 C7.34374998,17.8819837 7.3105954,17.8833945 7.27761711,17.8870979 L5.93679458,17.9594032 C5.57808975,17.977215 5.24213458,17.7826961 5.07900677,17.4627892 L4.47852005,16.275395 C4.30481093,15.9300931 4.02476018,15.6500423 3.67945824,15.4763332 L2.49206406,14.8758465 C2.1712754,14.7134241 1.97658014,14.3771163 1.99545007,14.0180587 L2.06775535,12.6772362 C2.08768343,12.2911964 1.9848688,11.9086837 1.77430163,11.5847206 L1.051954,10.4786258 C0.853202619,10.1772362 0.853202619,9.7866112 1.051954,9.48539783 L1.78329571,8.37471783 C1.99597914,8.05146023 2.09879372,7.66841847 2.07674944,7.2822023 L2.00444415,5.94137977 C1.98680867,5.5824986 2.18115124,5.24671982 2.50105815,5.08359196 L3.68845233,4.48310524 C4.03375422,4.30939616 4.3139814,4.02916903 4.48751413,3.68404343 L5.08800086,2.49664926 C5.25042325,2.17586059 5.58673111,1.98098898 5.94578867,2.00003526 L7.2866112,2.07216424 C7.67265097,2.09209228 8.05516366,1.989454 8.37930302,1.77871052 L9.48539783,1.051954 C9.7866112,0.853202619 10.1772362,0.853202619 10.4786258,1.051954 L11.5891295,1.78329571 C11.9123871,1.99597914 12.2954289,2.09879372 12.6816451,2.07674944 L14.0226439,2.00444415 C14.3813488,1.98680867 14.7171275,2.18115124 14.8804317,2.50105815 L15.4807421,3.68845233 C15.6544512,4.03375422 15.9346783,4.3139814 16.2799802,4.48751413 L17.4671981,5.08800086 C17.7879867,5.25042325 17.9828583,5.58673111 17.9638121,5.94578867 L17.8916831,7.2866112 C17.8717551,7.67265097 17.9743933,8.05516366 18.1851368,8.37930302 L18.9164786,9.48980673 C19.1115265,9.79102005 19.109763,10.1791761 18.9118934,10.4786258 Z" fill-rule="nonzero"></path>
                                        <path d="M7.72116842,9.71461039 C8.82220399,9.71461039 9.71461039,8.82220399 9.71461039,7.72116842 C9.71461039,6.62035979 8.82220399,5.72772645 7.72116842,5.72772645 C6.62035979,5.72772645 5.72772645,6.62035979 5.72772645,7.72116842 C5.72954259,8.82129592 6.62104086,9.71279425 7.72116842,9.71461039 Z M7.72116842,6.88438133 C8.18019808,6.88438133 8.55228002,7.25646328 8.55228002,7.71549294 C8.55228002,8.17429565 8.18019808,8.54637759 7.72116842,8.54637759 C7.2621387,8.54637759 6.89005682,8.17429565 6.89005682,7.71549294 C6.89005682,7.25646328 7.2621387,6.88438133 7.72116842,6.88438133 Z" fill-rule="nonzero"></path>
                                        <path d="M12.2426789,10.249237 C11.1416434,10.249237 10.249237,11.1416434 10.249237,12.2426789 C10.249237,13.3434875 11.1416434,14.2361209 12.2426789,14.2361209 C13.3434875,14.2361209 14.2361209,13.3434875 14.2361209,12.2426789 C14.2343048,11.1425514 13.3428065,10.2510531 12.2426789,10.249237 Z M12.2426789,13.079466 C11.7836492,13.079466 11.4115673,12.7073841 11.4115673,12.2485814 C11.4115673,11.7895517 11.7836492,11.4174698 12.2426789,11.4174698 C12.7017087,11.4174698 13.0737905,11.7895517 13.0737905,12.2485814 C13.0737905,12.7073841 12.7017087,13.079466 12.2426789,13.079466 Z" fill-rule="nonzero"></path>
                                        <path d="M13.7130722,6.25077512 C13.6043308,6.14203365 13.4569963,6.08096586 13.3033054,6.08096586 C13.1496145,6.08096586 13.002053,6.14203365 12.8935386,6.25077512 L6.44260502,12.7017087 C6.33386355,12.8104501 6.27256881,12.9577846 6.27256881,13.1114755 C6.27256881,13.2651664 6.33386355,13.4127279 6.44260502,13.5212423 C6.55157349,13.6311189 6.70049707,13.6919596 6.85532307,13.6896895 C7.00946807,13.6892354 7.15748358,13.6286217 7.26781419,13.5212423 L13.7187477,7.0703088 C13.940998,6.84147501 13.9382738,6.47665763 13.7130722,6.25077512 Z" fill-rule="nonzero"></path>
                                    </g>
                                </g>
                            </g>
                        </g>
                    </g>
                </g>
            </g>
        </g>
    </g>
</svg>