<?xml version="1.0" encoding="UTF-8"?>
<svg width="20px" height="20px" viewBox="0 0 20 20" version="1.1" xmlns="http://www.w3.org/2000/svg" xmlns:xlink="http://www.w3.org/1999/xlink">
    <!-- Generator: Sketch 51.3 (57544) - http://www.bohemiancoding.com/sketch -->
    <title>premiado</title>
    <desc>Created with Sketch.</desc>
    <defs></defs>
    <g id="Page-1" stroke="none" stroke-width="1" fill="none" fill-rule="evenodd">
        <g id="home-wawcadeiras" transform="translate(-1061.000000, -2315.000000)" fill="#FF7000">
            <g id="meio" transform="translate(431.000000, 136.000000)">
                <g id="surpreenda-se" transform="translate(0.000000, 1867.000000)">
                    <g id="opcoes" transform="translate(2.000000, 294.000000)">
                        <g id="dica" transform="translate(568.000000, 0.000000)">
                            <g id="txt" transform="translate(60.000000, 18.000000)">
                                <g id="premiado">
                                    <g id="badge">
                                        <path d="M19.9027027,16.4488565 L17.4717672,12.8011227 L17.8978794,12.6680665 C18.073264,12.6133056 18.1710187,12.4267775 18.1162578,12.2513929 C18.1140125,12.244158 18.1115177,12.2370062 18.1087734,12.2299792 L17.3613306,10.3076507 L18.8834927,8.89226611 C19.0179626,8.76711019 19.0255301,8.55663202 18.9003742,8.42216216 C18.8949688,8.41634096 18.8893139,8.41072765 18.8834927,8.40528067 L17.3613306,6.99022869 L18.109106,5.06790021 C18.1756757,4.8966736 18.0908524,4.70390852 17.9196258,4.6372973 C17.9125572,4.63455301 17.9054054,4.63205821 17.8982121,4.62981289 L15.8970478,4.00577963 L15.722079,1.95338877 C15.7143451,1.86203742 15.6695218,1.77787942 15.5980042,1.72054054 C15.5268607,1.66336798 15.4352183,1.63817048 15.3448649,1.65101871 L13.2622037,1.93941788 L12.1958004,0.161787942 C12.1013721,0.0041995842 11.8970478,-0.046985447 11.739501,0.0474428274 C11.7354262,0.0498960499 11.7314345,0.0523908524 11.7274428,0.055010395 L9.97941788,1.20561331 L8.23172557,0.055010395 C8.0783368,-0.0460706861 7.87201663,-0.00365904366 7.77093555,0.14972973 C7.76831601,0.153679834 7.76582121,0.157713098 7.76336798,0.161787942 L6.69692308,1.94008316 L4.61459459,1.65168399 C4.43264033,1.62640333 4.26461538,1.75343035 4.23933472,1.93538462 C4.23850312,1.9412474 4.23787942,1.94715177 4.23738046,1.95305613 L4.062079,4.00544699 L2.06257796,4.62948025 C1.88719335,4.68424116 1.78943867,4.87076923 1.84419958,5.04615385 C1.84644491,5.05338877 1.84893971,5.06054054 1.85168399,5.06756757 L2.59912682,6.98989605 L1.07530146,8.40528067 C0.940831601,8.53043659 0.933264033,8.74091476 1.05841996,8.87538462 C1.06382536,8.88120582 1.06948025,8.88681913 1.07530146,8.89226611 L2.59746362,10.3073181 L1.84968815,12.2296466 C1.7831185,12.4008732 1.86794179,12.5936383 2.0391684,12.6602495 C2.04623701,12.6629938 2.05338877,12.6654886 2.06058212,12.6677339 L2.50199584,12.8051143 L0.0494386694,16.7904782 C-0.0468607069,16.9469439 0.00187110187,17.1518087 0.158336798,17.2481081 C0.228274428,17.2911435 0.311642412,17.3068191 0.392390852,17.2920998 L3.72972973,16.6853638 L4.33114345,19.6924324 C4.3575052,19.8243243 4.46066528,19.9273597 4.59259875,19.9535551 C4.61388773,19.9573389 4.63550936,19.9590021 4.65713098,19.9585447 C4.76831601,19.9585447 4.87218295,19.9030353 4.93388773,19.8105198 L7.26769231,16.3098129 L7.76299376,17.1357588 C7.80964657,17.2135967 7.88607069,17.2689813 7.97455301,17.289106 C7.99933472,17.2948025 8.02465696,17.2975884 8.05006237,17.297422 C8.11509356,17.297422 8.17871102,17.2783368 8.23301455,17.2425364 L9.9793763,16.0919335 L11.7270686,17.2425364 C11.8804574,17.3436175 12.0867775,17.3012058 12.1878586,17.147817 C12.1904782,17.1438669 12.192973,17.1398337 12.1954262,17.1357588 L12.6910603,16.3094802 L15.0248649,19.8105198 C15.0865696,19.9030353 15.1904366,19.9585447 15.3016216,19.9585447 C15.3232848,19.9585863 15.3449064,19.9564657 15.3661538,19.9522245 C15.4980873,19.9260291 15.6012474,19.8229938 15.6276091,19.6911019 L16.2330146,16.6577547 L19.5960083,16.9647817 C19.7789605,16.9813306 19.9407069,16.8464449 19.9572973,16.6634927 C19.964158,16.587817 19.9449064,16.5120582 19.9027027,16.4488565 Z M4.82681913,18.7730146 L4.31787942,16.232973 C4.28232848,16.0550936 4.11085239,15.9385031 3.93234927,15.9708524 L1.00677755,16.5030769 L3.1572973,13.0096881 L4.06174636,13.2917672 L4.23671518,15.344158 C4.24444906,15.4355094 4.28927235,15.5196674 4.36079002,15.5770062 C4.43205821,15.6338877 4.52357588,15.6590437 4.61392931,15.6465281 L6.69659044,15.3581289 L6.88918919,15.6794595 L4.82681913,18.7730146 Z M12.8045322,14.8282328 L11.8032848,16.497422 L10.1623701,15.4156757 C10.0513514,15.342578 9.90748441,15.342578 9.7964657,15.4156757 L8.1552183,16.4960915 L7.15397089,14.8265696 C7.09392931,14.7263617 6.98569647,14.6649896 6.86889813,14.6649064 C6.85351351,14.6648649 6.83817048,14.6659875 6.82299376,14.6682328 L4.87006237,14.9383368 L4.70573805,13.0126819 C4.69422037,12.8778378 4.60216216,12.7634096 4.47288981,12.7232848 L2.59912682,12.1385031 L3.29767152,10.3382536 C3.34711019,10.211185 3.31401247,10.0668607 3.21417879,9.97401247 L1.79047817,8.64877339 L3.215842,7.3235343 C3.31567568,7.23068607 3.34877339,7.08636175 3.29933472,6.95929314 L2.60079002,5.15837838 L4.4752183,4.57392931 C4.60449064,4.53380457 4.69654886,4.4193763 4.70806653,4.28453222 L4.87239085,2.35887734 L6.82532225,2.62931393 C6.95804574,2.64827443 7.08918919,2.58573805 7.15796258,2.47064449 L8.15920998,0.801455301 L9.7964657,1.8818711 C9.90748441,1.95496881 10.0513514,1.95496881 10.1623701,1.8818711 L11.8036175,0.801455301 L12.8048649,2.47097713 C12.8738877,2.58486486 13.0038669,2.64702703 13.135842,2.62931393 L15.0887734,2.35920998 L15.2530977,4.28486486 C15.2646154,4.41970894 15.3566736,4.53413721 15.4859459,4.57426195 L17.3603742,5.15904366 L16.6598337,6.95929314 C16.610395,7.08636175 16.6434927,7.23068607 16.7433264,7.3235343 L18.1683576,8.64877339 L16.7429938,9.97401247 C16.6431601,10.0668607 16.6100624,10.211185 16.659501,10.3382536 L17.3580457,12.1391684 L15.4852807,12.7236175 C15.3560083,12.7637422 15.2639501,12.8781705 15.2524324,13.0130146 L15.0881081,14.9386694 L13.1355094,14.6695634 C13.0034096,14.6518919 12.8734719,14.7142204 12.8045322,14.8282328 Z M15.9968815,15.9668607 C15.828316,15.9538046 15.6761331,16.0676091 15.6409563,16.232973 L15.1330146,18.7720166 L13.0706445,15.6784615 L13.2629106,15.3577963 L15.3452391,15.6461954 C15.5271933,15.6714761 15.6952183,15.5444491 15.720499,15.3624948 C15.7213306,15.356632 15.7219543,15.3507277 15.7224532,15.3448233 L15.8977547,13.2924324 L16.8108524,13.0076923 L18.963368,16.2379626 L15.9968815,15.9668607 Z" id="Shape" fill-rule="nonzero"></path>
                                        <path d="M14.9689813,6.98557173 C14.9689813,6.43442827 14.5222037,5.98765073 13.9710603,5.98765073 L11.642578,5.98765073 L11.642578,4.6570894 C11.6434927,3.73945946 10.9003326,2.99480249 9.9827027,2.99388773 C9.98158004,2.99388773 9.98049896,2.99388773 9.9793763,2.99388773 C9.79567568,2.99388773 9.64673597,3.14282744 9.64673597,3.32652807 L9.64673597,4.91122661 L9.04798337,6.10607069 L7.97754678,6.96261954 C7.96673597,6.78968815 7.824158,6.65451143 7.65089397,6.65293139 L5.32241164,6.65293139 C5.13871102,6.65293139 4.98977131,6.8018711 4.98977131,6.98557173 L4.98977131,11.9751767 C4.98977131,12.1588773 5.13871102,12.307817 5.32241164,12.307817 L7.65089397,12.307817 C7.83459459,12.307817 7.9835343,12.1588773 7.9835343,11.9751767 L12.9731393,11.9751767 C13.5231601,11.9724324 13.968316,11.5272765 13.9710603,10.9772557 C13.9699376,10.8056965 13.9240748,10.6373805 13.8380042,10.4889397 C13.8993763,10.4506445 13.9560915,10.4053222 14.0069854,10.3538877 C14.3295218,10.0402079 14.3970062,9.54719335 14.1706445,9.15837838 C14.2320166,9.12008316 14.2887318,9.07476091 14.3396258,9.0233264 C14.6621622,8.70964657 14.7296466,8.21663202 14.5032848,7.82781705 C14.564657,7.78952183 14.6213721,7.74419958 14.6722661,7.69276507 C14.8632017,7.50715177 14.9703534,7.25180873 14.9689813,6.98557173 Z M7.31829522,11.6425364 L5.65509356,11.6425364 L5.65509356,7.31821206 L7.31829522,7.31821206 L7.31829522,11.6425364 Z M14.2019127,7.22241164 C14.1412474,7.28449064 14.0578378,7.31908524 13.9710603,7.31821206 L12.640499,7.31821206 L12.640499,7.98349272 L13.63842,7.98349272 C13.8221206,7.98349272 13.9710603,8.13243243 13.9710603,8.31613306 C13.9713514,8.40577963 13.9345114,8.49151767 13.8692723,8.55297297 C13.8086071,8.61505198 13.7251975,8.64964657 13.63842,8.64877339 L12.3078586,8.64877339 L12.3078586,9.31405405 L13.3057796,9.31405405 C13.4894802,9.31405405 13.63842,9.46299376 13.63842,9.64669439 C13.638711,9.73634096 13.6018711,9.822079 13.536632,9.8835343 C13.4759667,9.94561331 13.3925572,9.9802079 13.3057796,9.97933472 L11.9752183,9.97933472 L11.9752183,10.6446154 L12.9731393,10.6446154 C13.1568399,10.6446154 13.3057796,10.7935551 13.3057796,10.9772557 C13.3060707,11.0669023 13.2692308,11.1526403 13.2039917,11.2140956 C13.1433264,11.2761746 13.0599168,11.3107692 12.9731393,11.309896 L7.9835343,11.3099122 L7.9835343,7.81051975 L9.52199584,6.58008316 C9.5595842,6.54993763 9.59022869,6.51205821 9.61180873,6.46898129 L10.2770894,5.13841996 C10.3001247,5.09222453 10.3120582,5.04133056 10.3120166,4.98972973 L10.3120166,3.7160499 C10.7114345,3.85621622 10.9783784,4.23380457 10.9772973,4.6570894 L10.9772973,6.32029106 C10.9772973,6.50399168 11.126237,6.65293139 11.3099376,6.65293139 L13.9710603,6.65293139 C14.1547609,6.65293139 14.3037006,6.8018711 14.3037006,6.98557173 C14.3040333,7.07517672 14.2671518,7.16091476 14.2019127,7.22241164 Z" id="Shape" fill-rule="nonzero"></path>
                                    </g>
                                </g>
                            </g>
                        </g>
                    </g>
                </g>
            </g>
        </g>
    </g>
</svg>