<?xml version="1.0" encoding="UTF-8"?>
<svg width="20px" height="20px" viewBox="0 0 20 20" version="1.1" xmlns="http://www.w3.org/2000/svg" xmlns:xlink="http://www.w3.org/1999/xlink">
    <!-- Generator: Sketch 51.3 (57544) - http://www.bohemiancoding.com/sketch -->
    <title>package</title>
    <desc>Created with Sketch.</desc>
    <defs></defs>
    <g id="Page-1" stroke="none" stroke-width="1" fill="none" fill-rule="evenodd">
        <g id="home-wawcadeiras" transform="translate(-503.000000, -2315.000000)" fill="#FF7000">
            <g id="meio" transform="translate(431.000000, 136.000000)">
                <g id="surpreenda-se" transform="translate(0.000000, 1867.000000)">
                    <g id="opcoes" transform="translate(2.000000, 294.000000)">
                        <g id="pronta-entrega">
                            <g id="txt" transform="translate(70.000000, 18.000000)">
                                <g id="package">
                                    <g id="Shape">
                                        <path d="M19.8604879,5.16666667 L15.778401,0.196581197 C15.676015,0.0726495726 15.5246617,0 15.3599537,0 L4.64058048,0 C4.47587251,0 4.32451923,0.0726495726 4.22213319,0.196581197 L0.140046296,5.16666667 C0.0643696581,5.25641026 0.0243055556,5.36752137 0.0243055556,5.48290598 L0.0243055556,19.4529915 C0.0243055556,19.7350427 0.264690171,19.965812 0.55849359,19.965812 L19.437589,19.965812 C19.7313925,19.965812 19.9717771,19.7350427 19.9717771,19.4529915 L19.9717771,5.48290598 C19.9762286,5.36752137 19.9361645,5.25641026 19.8604879,5.16666667 Z M18.4092771,5.05555556 L10.5344551,5.05555556 L10.5344551,1.02564103 L15.1017628,1.02564103 L18.4092771,5.05555556 Z M4.89877137,1.02564103 L9.46607906,1.02564103 L9.46607906,5.05555556 L1.59125712,5.05555556 L4.89877137,1.02564103 Z M1.09268162,18.9401709 L1.09268162,6.08119658 L18.903401,6.08119658 L18.903401,18.9401709 L1.09268162,18.9401709 Z" fill-rule="nonzero"></path>
                                        <path d="M12.5332087,10.2094017 L8.95414886,13.6452991 L7.4673255,12.2179487 C7.25810185,12.017094 6.91978276,12.017094 6.71055912,12.2179487 C6.50133547,12.4188034 6.50133547,12.7435897 6.71055912,12.9444444 L8.57576567,14.7350427 C8.67815171,14.8333333 8.81615028,14.8846154 8.95414886,14.8846154 C9.09214744,14.8846154 9.22569444,14.8333333 9.33253205,14.7350427 L13.2855235,10.9401709 C13.4947472,10.7393162 13.4947472,10.4145299 13.2855235,10.2136752 C13.0807514,10.008547 12.7424323,10.008547 12.5332087,10.2094017 Z" fill-rule="nonzero"></path>
                                    </g>
                                </g>
                            </g>
                        </g>
                    </g>
                </g>
            </g>
        </g>
    </g>
</svg>