<?xml version="1.0" encoding="UTF-8"?>
<svg width="12px" height="20px" viewBox="0 0 12 20" version="1.1" xmlns="http://www.w3.org/2000/svg" xmlns:xlink="http://www.w3.org/1999/xlink">
    <!-- Generator: Sketch 51.3 (57544) - http://www.bohemiancoding.com/sketch -->
    <title>chair</title>
    <desc>Created with Sketch.</desc>
    <defs></defs>
    <g id="Page-1" stroke="none" stroke-width="1" fill="none" fill-rule="evenodd">
        <g id="home-wawcadeiras" transform="translate(-1352.000000, -2315.000000)" fill="#FF7000">
            <g id="meio" transform="translate(431.000000, 136.000000)">
                <g id="surpreenda-se" transform="translate(0.000000, 1867.000000)">
                    <g id="opcoes" transform="translate(2.000000, 294.000000)">
                        <g id="surpresas" transform="translate(852.000000, 0.000000)">
                            <g id="txt" transform="translate(67.000000, 18.000000)">
                                <g id="chair">
                                    <g id="Shape">
                                        <path d="M10.4104228,8.33988183 C10.1169591,8.39074682 9.82517057,8.43460647 9.5390168,8.47283138 L9.28393029,5.8097283 C10.9949135,4.71582604 11.5024975,2.79559575 11.6383407,1.48056772 C11.6806774,1.05704799 11.5098075,0.640076764 11.1825353,0.368086004 C10.787037,0.0367019883 10.2544773,-0.0801047953 9.75663984,0.0552814425 C8.5252193,0.374177622 7.26181774,0.552814347 5.9903448,0.587993411 C4.71887181,0.552814347 3.45531797,0.374177622 2.22404971,0.0552814425 C1.72605996,-0.0801047953 1.19319567,0.0373111501 0.79815423,0.369456608 C0.470882066,0.640990487 0.299707602,1.05735259 0.341435166,1.48056772 C0.477125965,2.79529119 0.984405458,4.71521684 2.69477949,5.80911914 L2.44167275,8.47328827 C2.15551899,8.43460647 1.86373053,8.39074682 1.57026682,8.34018639 C1.06481481,8.24881212 0.551900585,8.45577485 0.251583821,8.87244152 C-0.0397477973,9.26961501 -0.0776681481,9.79867205 0.153813333,10.2334612 C0.572459805,10.9451145 1.19959185,11.5108735 1.9502315,11.8545931 L0.467836257,18.9531555 C0.376614269,19.3926657 0.646472943,19.8263889 1.08095758,19.9390838 C1.51544226,20.0517788 1.96195786,19.8036976 2.09597345,19.3753046 L3.28490495,15.6382493 L8.6960892,15.6382493 L9.88471614,19.373934 C10.0176657,19.8041545 10.4653996,20.0537585 10.9012549,19.9403021 C11.3369579,19.8269981 11.6065119,19.3908382 11.5128533,18.9504142 L10.0318287,11.8529179 C10.7824683,11.5093506 11.4096004,10.9434393 11.8282468,10.231786 C12.0597283,9.79699684 12.0216557,9.26809209 11.7304764,8.87076632 C11.4293981,8.45425193 10.9158748,8.24774612 10.4104228,8.33988183 Z M8.88005606,8.55369762 C8.65131579,8.57882554 8.43064694,8.60090764 8.21804947,8.62024854 L8.00606117,6.38660452 C8.22612086,6.32218565 8.44161185,6.2434515 8.65146807,6.15116351 L8.88005606,8.55369762 Z M5.9903448,6.65570175 C6.44660698,6.65737696 6.90210768,6.6183906 7.35136452,6.53935185 L7.55330168,8.67019981 C6.63011696,8.73142058 6.00191887,8.73340035 5.98973563,8.73340035 C5.97740008,8.73340035 5.34996343,8.73142058 4.42601731,8.67019981 L4.62795442,6.53935185 C5.07782043,6.61854288 5.53362573,6.65752924 5.9903448,6.65570175 Z M1.00344175,1.4123416 C0.985623782,1.20598807 1.07166788,1.00435552 1.23294347,0.874451774 C1.39406674,0.739065536 1.59813598,0.665661559 1.80844908,0.667489045 C1.89220881,0.668098207 1.9755117,0.6792154 2.05637793,0.700688343 C3.34201388,1.03603193 4.66206749,1.22152168 5.9903448,1.25335041 C7.31862207,1.22152168 8.63867567,1.03603193 9.92431166,0.700688343 C10.2115314,0.621040468 10.5194627,0.686525341 10.7494213,0.87612694 C10.9100877,1.006183 10.9955227,1.20766324 10.9772478,1.41371224 C10.7617568,3.50100511 9.7210039,5.9903448 5.9903448,5.9903448 C5.01736109,6.02384869 4.05321029,5.79663135 3.19779485,5.33199318 C3.19307384,5.32970881 3.18941887,5.32605384 3.18485014,5.32376951 C1.68235259,4.44246468 1.15040203,2.83519127 1.00344175,1.4123416 Z M3.33059212,6.1497929 C3.54029606,6.2420809 3.75593934,6.32081505 3.97599903,6.38523392 L3.76401072,8.61857333 C3.55126097,8.59999392 3.33059212,8.57775949 3.10200413,8.55202242 L3.33059212,6.1497929 Z M1.46122686,19.1750427 C1.43807871,19.2482943 1.36985259,19.2980933 1.29279361,19.2977887 C1.24025341,19.2980933 1.19045442,19.2744883 1.15740741,19.2335222 C1.12298979,19.1927083 1.10897903,19.1384929 1.1191825,19.086105 L2.56929216,12.1351121 C2.90280823,12.2701937 3.24317739,12.3877619 3.58902901,12.4873599 L1.46122686,19.1750427 Z M7.74564448,12.6516813 L8.06058113,13.6421784 L3.92010842,13.6421784 L4.23504507,12.6516813 C5.39245248,12.8965643 6.58823708,12.8965643 7.74564448,12.6516813 Z M3.49521809,14.9728923 L3.70674951,14.3075353 L8.27256943,14.3075353 L8.4841009,14.9728923 L3.49521809,14.9728923 Z M10.8608979,19.0835161 C10.8718628,19.1366655 10.8580044,19.1919469 10.8232822,19.2335222 C10.7902351,19.2744883 10.7404362,19.2980933 10.6878959,19.2977887 C10.6103801,19.2980933 10.5418494,19.2476852 10.5191581,19.173672 L8.39166058,12.4867507 C8.7375122,12.3871528 9.07788133,12.2695846 9.41139743,12.1343506 L10.8608979,19.0835161 Z M11.2387305,9.92004752 C10.7999817,10.7491167 9.72039474,11.4254386 8.11784234,11.8762183 C6.7265168,12.2677571 5.25417275,12.2677571 3.86284721,11.8762183 C2.26029481,11.4254386 1.18070784,10.7491167 0.741959064,9.92004752 C0.62819809,9.71003899 0.646929825,9.45297271 0.790235127,9.26169591 C0.941154971,9.05092593 1.20081018,8.94706386 1.45559212,8.9954922 C2.95458698,9.24570542 4.4706384,9.38048246 5.9903448,9.39875731 C7.50974659,9.38048246 9.02534113,9.24555314 10.5241837,8.9954922 C10.7788133,8.94706386 11.0384686,9.05092593 11.1895407,9.26169591 C11.3329983,9.45266815 11.3521869,9.70973442 11.2387305,9.92004752 Z" fill-rule="nonzero"></path>
                                    </g>
                                </g>
                            </g>
                        </g>
                    </g>
                </g>
            </g>
        </g>
    </g>
</svg>