<?xml version="1.0" encoding="UTF-8"?>
<svg width="40px" height="40px" viewBox="0 0 40 40" version="1.1" xmlns="http://www.w3.org/2000/svg" xmlns:xlink="http://www.w3.org/1999/xlink">
    <!-- Generator: Sketch 55.2 (78181) - https://sketchapp.com -->
    <title>Oval Copy</title>
    <desc>Created with Sketch.</desc>
    <g id="Oval-Copy" stroke="none" stroke-width="1" fill="none" fill-rule="evenodd">
        <circle fill="#e6e6e6" cx="20" cy="20" r="20"></circle>
        <path d="M30.9891477,23.1031927 C30.982282,21.5416054 30.9774095,20.4132087 30.2002535,19.420526 C29.3198902,18.296726 27.9620265,18.1062885 26.8612955,18.0738922 C27.0466701,17.2887207 27.1002671,16.4181807 27.0145562,15.4771569 C26.9910798,12.3432565 24.631706,10.090622 21.3571971,10.0013134 L21.310023,10 L16.3015858,10.0039401 L16.2477674,10.0037212 C14.2998942,10.0037212 12.7601995,10.5785359 11.6712067,11.7119672 C10.997258,12.4130836 10.1020558,13.6377936 10.0072645,15.6181244 L10.0032779,23.6033647 C9.99353304,23.7541824 10.0088148,23.9065324 10.0068215,24.0630414 C10.0068215,26.3349386 10.3746916,27.970293 11.5234828,29.1788048 C12.671388,30.3873167 14.3687729,31 16.5677989,31 C16.615416,31 16.6634761,30.9997811 16.7115362,30.9991244 L24.3628353,30.9991244 L24.3809962,30.9991244 C26.3428223,30.9829263 28.0005632,30.3428813 29.1750455,29.1483786 C30.347313,27.9560649 30.9785169,26.2572313 31,24.2361862 C30.9997785,24.2361862 30.9904766,23.4225586 30.9891477,23.1031927 Z M16.7077711,14.2590137 L20.9871123,14.2539792 C21.9957098,14.2697395 22.8005501,15.1626067 22.784161,16.1594484 C22.7682148,17.1464399 21.953851,17.8666 20.9587635,17.8666 C20.9490186,17.8666 16.6499661,17.8683511 16.6499661,17.8683511 C15.6413687,17.8523719 14.8369712,17.0315207 14.8531389,16.0351168 C14.8690851,15.0382751 15.6978448,14.2493824 16.7077711,14.2590137 Z M24.7513025,26.1394665 L16.1928416,26.1394665 C15.1844656,26.1394665 14.3665582,25.3315301 14.3665582,24.3344695 C14.3665582,23.3376278 15.1844656,22.5294725 16.1928416,22.5294725 L24.751524,22.5294725 C25.7603429,22.5294725 26.5778074,23.3376278 26.5778074,24.3344695 C26.5778074,25.3315301 25.7601214,26.1394665 24.7513025,26.1394665 Z" id="Shape" fill="color[0]" fill-rule="nonzero"></path>
    </g>
</svg>