<?xml version="1.0" encoding="UTF-8"?>
<svg width="12px" height="21px" viewBox="0 0 12 21" version="1.1" xmlns="http://www.w3.org/2000/svg" xmlns:xlink="http://www.w3.org/1999/xlink">
    <!-- Generator: Sketch 53.2 (72643) - https://sketchapp.com -->
    <title>facebook (64)</title>
    <desc>Created with Sketch.</desc>
    <g id="Home" stroke="none" stroke-width="1" fill="none" fill-rule="evenodd">
        <g id="home-like" transform="translate(-1225.000000, -280.000000)" fill="color[0]">
            <g id="Hover-ajuda" transform="translate(1192.000000, 67.000000)">
                <g id="Group-26" transform="translate(19.000000, 181.485281)">
                    <g id="Group-17" transform="translate(0.000000, 23.000000)">
                        <g id="Group-23">
                            <g id="facebook-(64)" transform="translate(14.666667, 9.333333)">
                                <g id="Path">
                                    <path d="M0.378273077,10.6519922 L2.75270769,10.6519922 L2.75270769,19.6774219 C2.75270769,19.855625 2.90907692,20 3.10208462,20 L7.12804231,20 C7.32105,20 7.47741923,19.855625 7.47741923,19.6774219 L7.47741923,10.6945312 L10.2070692,10.6945312 C10.38455,10.6945312 10.5338962,10.5715625 10.5541615,10.4087891 L10.9687346,7.08609375 C10.9801154,6.9946875 10.9487654,6.903125 10.8825115,6.83453125 C10.8162154,6.76589844 10.7213192,6.72660156 10.6217269,6.72660156 L7.47758846,6.72660156 L7.47758846,4.64375 C7.47758846,4.01589844 7.84371923,3.6975 8.56599615,3.6975 C8.66893077,3.6975 10.6217269,3.6975 10.6217269,3.6975 C10.8147346,3.6975 10.9711038,3.55304687 10.9711038,3.37492187 L10.9711038,0.324960938 C10.9711038,0.146757813 10.8147346,0.0023828125 10.6217269,0.0023828125 L7.78859231,0.0023828125 C7.76862308,0.001484375 7.72424231,0 7.65883462,0 C7.16726154,0 5.45858077,0.0891015625 4.10883846,1.23554687 C2.61334615,2.50601562 2.82124615,4.02714844 2.87091538,4.29089844 L2.87091538,6.72652344 L0.378230769,6.72652344 C0.185223077,6.72652344 0.0288538462,6.87089844 0.0288538462,7.04910156 L0.0288538462,10.329375 C0.0288961538,10.5075391 0.185265385,10.6519922 0.378273077,10.6519922 Z" fill-rule="nonzero"></path>
                                </g>
                            </g>
                        </g>
                    </g>
                </g>
            </g>
        </g>
    </g>
</svg>