<?xml version="1.0" encoding="UTF-8"?>
<svg width="17px" height="17px" viewBox="0 0 17 17" version="1.1" xmlns="http://www.w3.org/2000/svg" xmlns:xlink="http://www.w3.org/1999/xlink">
    <!-- Generator: Sketch 51.3 (57544) - http://www.bohemiancoding.com/sketch -->
    <title>phone-call (21)</title>
    <desc>Created with Sketch.</desc>
    <defs></defs>
    <g id="Page-1" stroke="none" stroke-width="1" fill="none" fill-rule="evenodd">
        <g id="home-wawcadeiras" transform="translate(-1243.000000, -90.000000)" fill="#FFB200">
            <g id="hover-atendimento" transform="translate(1219.000000, 65.000000)">
                <g id="txt" transform="translate(24.000000, 24.000000)">
                    <g id="fone">
                        <g id="phone-call-(21)" transform="translate(0.000000, 1.000000)">
                            <g id="Shape">
                                <path d="M13.4298565,10.5265865 C13.0819662,10.1643502 12.662346,9.97067932 12.2176203,9.97067932 C11.776481,9.97067932 11.3532743,10.1607637 10.991038,10.523 L9.85770464,11.6527468 C9.7644557,11.6025359 9.67120675,11.5559114 9.5815443,11.5092869 C9.45243038,11.44473 9.33048945,11.3837595 9.22648101,11.3192025 C8.16487764,10.6449409 7.2001097,9.76624895 6.27479325,8.62932911 C5.82648101,8.06266245 5.52521519,7.58565823 5.30643882,7.10148101 C5.60053165,6.83249367 5.87310549,6.55274684 6.13850633,6.28375949 C6.23892827,6.18333755 6.33935021,6.07932911 6.43977215,5.97890717 C7.19293671,5.22574262 7.19293671,4.25021519 6.43977215,3.49705063 L5.46065823,2.51793671 C5.34947679,2.40675527 5.23470886,2.29198734 5.12711392,2.17721941 C4.91192405,1.95485654 4.68597468,1.72532068 4.45285232,1.5101308 C4.10496203,1.165827 3.68892827,0.982915612 3.25137553,0.982915612 C2.81382278,0.982915612 2.39061603,1.165827 2.03196624,1.5101308 C2.02837975,1.5137173 2.02837975,1.5137173 2.02479325,1.5173038 L0.805383966,2.74747257 C0.346312236,3.2065443 0.0844978903,3.76603797 0.0271139241,4.41519409 C-0.0589620253,5.46245148 0.249476793,6.4379789 0.486185654,7.07637553 C1.06719831,8.64367511 1.9351308,10.0962068 3.22985654,11.6527468 C4.80074262,13.5284852 6.690827,15.0097089 8.84989873,16.0533797 C9.67479325,16.444308 10.7758481,16.9069662 12.0060169,16.9858692 C12.0813333,16.9894557 12.1602363,16.9930422 12.2319662,16.9930422 C13.0604473,16.9930422 13.7562278,16.6953629 14.3013755,16.1035907 C14.304962,16.0964177 14.312135,16.0928312 14.3157215,16.0856582 C14.5022194,15.8597089 14.7174093,15.6552785 14.9433586,15.4365021 C15.0975781,15.2894557 15.255384,15.1352363 15.4096034,14.9738439 C15.7646667,14.6044346 15.9511646,14.1740549 15.9511646,13.7329156 C15.9511646,13.2881899 15.7610802,12.8613966 15.3988439,12.5027468 L13.4298565,10.5265865 Z M14.7138228,14.3031688 C14.7102363,14.3031688 14.7102363,14.3067553 14.7138228,14.3031688 C14.5739494,14.4538017 14.4304895,14.5900886 14.27627,14.7407215 C14.0431477,14.9630844 13.8064388,15.1962068 13.5840759,15.4580211 C13.2218397,15.8453629 12.7950464,16.0282743 12.2355527,16.0282743 C12.1817553,16.0282743 12.1243713,16.0282743 12.0705738,16.0246878 C11.005384,15.9565443 10.0155105,15.5405105 9.27310549,15.1854473 C7.24314768,14.2027468 5.46065823,12.8075992 3.9794346,11.0394557 C2.75643882,9.56540506 1.9387173,8.20253586 1.39715612,6.73924473 C1.06361181,5.84620675 0.941670886,5.15042616 0.995468354,4.49409705 C1.03133333,4.07447679 1.19272574,3.7265865 1.49040506,3.42890717 L2.71340084,2.20591139 C2.88913924,2.04093249 3.07563713,1.95127004 3.25854852,1.95127004 C3.48449789,1.95127004 3.66740928,2.08755696 3.78217722,2.20232489 C3.78576371,2.20591139 3.78935021,2.20949789 3.79293671,2.21308439 C4.01171308,2.41751477 4.21972996,2.62911814 4.43850633,2.85506751 C4.54968776,2.96983544 4.6644557,3.08460338 4.77922363,3.20295781 L5.75833755,4.18207173 C6.13850633,4.56224051 6.13850633,4.9137173 5.75833755,5.29388608 C5.65432911,5.39789451 5.55390717,5.50190295 5.44989873,5.60232489 C5.14863291,5.91076371 4.86171308,6.19768354 4.54968776,6.47743038 C4.54251477,6.48460338 4.53534177,6.48818987 4.53175527,6.49536287 C4.22331646,6.80380169 4.28070042,7.10506751 4.34525738,7.30949789 C4.34884388,7.32025738 4.35243038,7.33101688 4.35601688,7.34177637 C4.61065823,7.95865401 4.96930802,8.53966667 5.5144557,9.23186076 L5.51804219,9.23544726 C6.50791561,10.4548565 7.5515865,11.4052785 8.70285232,12.1333376 C8.84989873,12.2265865 9.00053165,12.301903 9.14399156,12.3736329 C9.27310549,12.4381899 9.39504641,12.4991603 9.49905485,12.5637173 C9.51340084,12.5708903 9.52774684,12.5816498 9.54209283,12.5888228 C9.66403376,12.6497932 9.77880169,12.6784852 9.89715612,12.6784852 C10.1948354,12.6784852 10.3813333,12.4919873 10.4423038,12.4310169 L11.6688861,11.2044346 C11.790827,11.0824937 11.9844979,10.9354473 12.2104473,10.9354473 C12.4328101,10.9354473 12.6157215,11.0753207 12.726903,11.1972616 C12.7304895,11.2008481 12.7304895,11.2008481 12.7340759,11.2044346 L14.7102363,13.1805949 C15.0796456,13.5464177 15.0796456,13.923 14.7138228,14.3031688 Z" fill-rule="nonzero"></path>
                                <path d="M9.18344304,4.04219831 C10.1231055,4.20000422 10.976692,4.64472996 11.6581266,5.32616456 C12.3395612,6.00759916 12.7807004,6.86118565 12.9420928,7.8008481 C12.9815443,8.03755696 13.1859747,8.20253586 13.419097,8.20253586 C13.447789,8.20253586 13.4728945,8.19894937 13.5015865,8.19536287 C13.7669873,8.15232489 13.9427257,7.90127004 13.8996878,7.6358692 C13.7060169,6.49894937 13.1680422,5.46245148 12.3467342,4.64114346 C11.5254262,3.81983544 10.4889283,3.28186076 9.35200844,3.08818987 C9.08660759,3.0451519 8.83913924,3.2208903 8.79251477,3.48270464 C8.7458903,3.74451899 8.91804219,3.99916034 9.18344304,4.04219831 Z" fill-rule="nonzero"></path>
                                <path d="M16.9733165,7.49599578 C16.6541181,5.62384388 15.7718397,3.92025738 14.4161435,2.56456118 C13.0604473,1.20886498 11.3568608,0.326586498 9.48470886,0.00738818565 C9.22289451,-0.0392362869 8.97542616,0.140088608 8.92880169,0.401902954 C8.88576371,0.667303797 9.06150211,0.914772152 9.32690295,0.961396624 C10.998211,1.24472996 12.5224726,2.03734599 13.7347089,3.24599578 C14.9469451,4.45823207 15.7359747,5.98249367 16.019308,7.65380169 C16.0587595,7.89051055 16.2631899,8.05548945 16.4963122,8.05548945 C16.5250042,8.05548945 16.5501097,8.05190295 16.5788017,8.04831646 C16.840616,8.00886498 17.0199409,7.75781013 16.9733165,7.49599578 Z" fill-rule="nonzero"></path>
                            </g>
                        </g>
                    </g>
                </g>
            </g>
        </g>
    </g>
</svg>