<?xml version="1.0" encoding="UTF-8"?>
<svg width="33px" height="19px" viewBox="0 0 33 19" version="1.1" xmlns="http://www.w3.org/2000/svg" xmlns:xlink="http://www.w3.org/1999/xlink">
    <!-- Generator: Sketch 53.2 (72643) - https://sketchapp.com -->
    <title>Group 7</title>
    <desc>Created with Sketch.</desc>
    <g id="Home" stroke="none" stroke-width="1" fill="none" fill-rule="evenodd">
        <g id="home-like" transform="translate(-1301.000000, -106.000000)" fill="color[0]">
            <g id="Hover-ajuda" transform="translate(1192.000000, 67.000000)">
                <g id="Group-14" transform="translate(19.000000, 39.485281)">
                    <g id="Group-7" transform="translate(90.000000, 0.000000)">
                        <path d="M10.3385432,4.77376216 C10.7636784,5.28778919 11.0817865,5.85592432 11.2958405,6.47995135 C11.5069216,7.1016 11.5720297,7.73187027 11.4890838,8.36808649 L11.4890838,8.38562703 C11.3939486,9.09051892 10.9569216,9.7088973 10.3534081,10.0864649 C10.0174622,10.2942757 9.58638108,10.5529243 9.34854324,10.6658973 C8.35854324,11.1299784 7.28827297,12.1734919 6.43502973,13.2853838 C6.33692162,13.4132216 6.23881351,13.5470054 6.14070541,13.6864378 C5.83448919,14.1178162 5.56692162,14.5040054 5.33205676,14.8518432 C5.20719189,15.0242757 5.05854324,15.1405189 4.8980027,15.2029514 C4.73151622,15.2653838 4.49367838,15.2977892 4.17854324,15.2977892 C3.90205676,15.3278162 3.7325973,15.1877892 3.66421892,14.8904919 C3.66421892,14.8904919 3.66719189,14.8878162 3.66421892,14.8818703 C3.66124595,14.7867351 3.60178649,13.5172757 2.68611081,11.5016 C2.68313784,11.498627 2.68016486,11.4926811 2.68016486,11.4867351 C2.43340811,10.9426811 2.12124595,10.3391676 1.72881351,9.69403243 C0.863678378,8.25511351 0.426651351,7.18781622 0.209624324,6.45646486 C0.176921622,6.37322162 0.144218919,6.28403243 0.111516216,6.19187027 C0.0517594595,6.00457297 0.0193540541,5.75781622 0.00746216216,5.4513027 L0.00746216216,5.44862703 C-0.0074027027,5.27322162 0.00448918919,5.18968108 0.00448918919,5.18968108 C0.00746216216,4.76187027 0.0550297297,4.34565405 0.147191892,3.93805946 C0.289894595,3.33157297 0.509597297,2.90078919 0.816110811,2.64511351 C1.12232703,2.39241081 1.47313784,2.26457297 1.86854324,2.26457297 C2.26692162,2.2616 2.68611081,2.35673514 3.13205676,2.54997838 C3.57502973,2.74322162 4.00016486,2.98700541 4.40151622,3.27835676 C4.80286757,3.56970811 5.16557027,3.88187027 5.48665135,4.21484324 C5.70665135,4.44376216 5.88502973,4.65484324 6.02773243,4.85403243 C6.1080027,4.96403243 6.27746216,4.95481622 6.34286757,4.82995135 C6.66394865,4.21157297 7.03824595,3.81943784 7.4725973,3.65592432 C7.96611081,3.46832973 8.4623,3.47754595 8.95611081,3.68862703 C9.4525973,3.89970811 9.91340811,4.25943784 10.3385432,4.77376216 Z M25.8917703,10.1239541 C25.3179865,10.6257919 24.8452838,11.0345757 24.4733649,11.3497108 C25.3037162,11.5795216 26.1432838,11.4784405 26.9885,11.0482514 C27.8340135,10.6183595 28.558527,10.1022514 29.1605541,9.49992703 C29.7628784,8.8981973 30.1850405,8.33244054 30.4294189,7.80146757 C30.6726081,7.27138649 30.5941216,7.0061973 30.1930676,7.0061973 C29.9920946,7.0061973 29.6552568,7.1711973 29.1816622,7.5009 C28.7095541,7.8306027 28.1857162,8.22481892 27.612527,8.68295405 C27.0387432,9.14198108 26.4658514,9.62241351 25.8917703,10.1239541 Z M32.7947162,12.9836568 C32.9516892,13.0695757 32.9733919,13.1989 32.8592297,13.3707378 C32.6579595,13.7150081 32.3496622,14.1451973 31.9340405,14.6610081 C31.5181216,15.1771162 31.0314459,15.6792514 30.472527,16.1662243 C29.9127162,16.6540892 29.317527,17.0694135 28.6872568,17.4133865 C28.0560946,17.7570622 27.4258243,17.9294946 26.7955541,17.9294946 C25.5912027,17.9294946 24.6591757,17.5569811 24.0000676,16.8110622 C23.3397703,16.0660351 22.9818243,15.1485757 22.9247432,14.0586838 L20.8606081,18.1441432 C20.6307973,18.1441432 20.4012838,18.1013324 20.1723649,18.0154135 C19.9428514,17.9294946 19.7427703,17.8001703 19.5700405,17.6283324 C19.3982027,17.4564946 19.2840405,17.2483865 19.2260676,17.0051973 C19.1689865,16.7617108 19.2120946,16.4822514 19.3559865,16.1662243 C19.4329865,15.9726838 19.5215811,15.7577378 19.615527,15.5329811 C19.3435,15.8204676 19.0506622,16.1034946 18.7316622,16.380873 C18.1727432,16.8690351 17.5775541,17.2843595 16.9472838,17.6283324 C16.3161216,17.9720081 15.6858514,18.1441432 15.0552838,18.1441432 C14.2522838,18.1441432 13.7578784,17.7936297 13.5717703,17.0908189 C13.3850676,16.3886027 13.4061757,15.4782784 13.6359865,14.3598459 C13.8652027,13.2414135 14.2522838,12.0019811 14.7972297,10.6400622 C15.3412838,9.27844054 15.9290405,7.93792703 16.5602027,6.61881892 C17.190473,5.3006027 17.7996351,4.07484595 18.3879865,2.94214324 C18.9748514,1.80973784 19.4555811,0.928251351 19.8280946,0.297089189 C20.4877973,0.527197297 20.9179865,0.849764865 21.1189595,1.26479189 C21.3190405,1.68100811 21.3047703,2.13230541 21.0758514,2.61957568 C20.9893378,2.76317027 20.7529865,3.2216027 20.3659054,3.99576486 C19.9788243,4.76962973 19.5278243,5.69452162 19.0117162,6.76954865 C18.4953108,7.84487297 17.9717703,8.98411622 17.4416892,10.1887649 C16.9113108,11.3925216 16.4736892,12.5041162 16.1300135,13.5211703 C15.7863378,14.5394135 15.5782297,15.3855216 15.5065811,16.0586027 C15.4343378,16.7325757 15.6145,17.0694135 16.0443919,17.0694135 C16.4166081,17.0694135 16.832527,16.9183865 17.2909595,16.6178189 C17.7493919,16.3166568 18.2009865,15.9587108 18.6460405,15.5427919 C19.0905,15.1271703 19.4915541,14.7041162 19.8503919,14.273927 C20.1132027,13.9579 20.3332027,13.6891432 20.5112838,13.4661703 C20.8139324,12.7850622 21.1379865,12.0659 21.4840405,11.3066027 C21.9282027,10.3323595 22.4017973,9.32154865 22.9030405,8.27476486 C23.4048784,7.22857568 23.8995811,6.23173784 24.3868514,5.28603514 C24.8744189,4.33973784 25.3328514,3.47281892 25.7630405,2.68408919 C26.193527,1.89565676 26.5803108,1.27252162 26.9242838,0.813494595 C27.5833919,1.04300811 28.0138784,1.36587297 28.2145541,1.7811973 C28.4149324,2.19681892 28.4006622,2.64841351 28.1714459,3.13538649 C27.7695,3.93868378 27.4186892,4.65546757 27.1181216,5.28603514 C26.8166622,5.9169 26.5372027,6.48979189 26.2788514,7.0061973 C26.0213919,7.52200811 25.7912838,8.00244054 25.5912027,8.4466027 C25.3902297,8.89135946 25.1892568,9.31411622 24.9891757,9.71517027 C25.2757703,9.48595405 25.6405541,9.19252162 26.0856081,8.83368378 C26.5300676,8.47573784 26.9885,8.11749459 27.4617973,7.75865676 C27.9353919,7.40041351 28.3866892,7.08527838 28.8168784,6.81235946 C29.2461757,6.54033243 29.6050135,6.36106216 29.8916081,6.27484595 C30.7519865,6.04592703 31.3751216,6.18892703 31.7622027,6.70503514 C32.1492838,7.22084595 32.3431216,7.90908919 32.3431216,8.76917027 C32.3431216,9.42917027 32.1133108,10.0529 31.6548784,10.6400622 C31.1955541,11.2281162 30.6223649,11.7296568 29.9347162,12.1449811 C29.2461757,12.5609 28.4943108,12.8483865 27.6770405,13.0050622 C26.8597703,13.1632243 26.0778784,13.1278459 25.3328514,12.8977378 C25.2180946,14.0447108 25.4256081,14.9907108 25.9571757,15.7360351 C26.4869595,16.4822514 27.0961216,16.8544676 27.7843649,16.8544676 C28.2430946,16.8544676 28.7095541,16.7037378 29.1816622,16.402873 C29.6552568,16.1014135 30.0994189,15.7434676 30.5150405,15.3275486 C30.9300676,14.911927 31.3028784,14.4891703 31.633473,14.0586838 C31.9625811,13.6284946 32.2277703,13.2848189 32.4287432,13.0264676 C32.5149595,12.9126027 32.6365541,12.8977378 32.7947162,12.9836568 Z" id="Combined-Shape"></path>
                    </g>
                </g>
            </g>
        </g>
    </g>
</svg>