<?xml version="1.0" encoding="UTF-8"?>
<svg width="30px" height="30px" viewBox="0 0 30 30" version="1.1" xmlns="http://www.w3.org/2000/svg" xmlns:xlink="http://www.w3.org/1999/xlink">
    <!-- Generator: Sketch 53.2 (72643) - https://sketchapp.com -->
    <title>noun_help_2019791</title>
    <desc>Created with Sketch.</desc>
    <g id="Symbols" stroke="none" stroke-width="1" fill="none" fill-rule="evenodd">
        <g id="Topo" transform="translate(-1261.000000, -18.000000)" fill="color[0]">
            <g id="topo">
                <g transform="translate(315.000000, 0.000000)">
                    <g id="ajuda" transform="translate(946.000000, 17.000000)">
                        <g id="noun_help_2019791" transform="translate(0.000000, 1.000000)">
                            <g>
                                <path d="M15,30 C6.70212766,30 0,23.2978723 0,15 C0,6.70212766 6.70212766,0 15,0 C23.2978723,0 30,6.70212766 30,15 C30,23.2978723 23.2978723,30 15,30 Z M15,1.27659574 C7.43617021,1.27659574 1.27659574,7.43617021 1.27659574,15 C1.27659574,22.5638298 7.43617021,28.7234043 15,28.7234043 C22.5638298,28.7234043 28.7234043,22.5638298 28.7234043,15 C28.7234043,7.43617021 22.5638298,1.27659574 15,1.27659574 Z" id="Shape" fill-rule="nonzero"></path>
                                <path d="M14.8085106,18.8617021 C14.4574468,18.8617021 14.1702128,18.5744681 14.1702128,18.2234043 L14.1702128,16.1489362 C14.1702128,15.8297872 14.393617,15.5744681 14.6808511,15.5106383 C14.8085106,15.4787234 17.8723404,14.8723404 18.0957447,12.1595745 C18.0957447,10.5 17.3617021,9.44680851 15.9255319,9.06382979 C14.0425532,8.55319149 12.2553191,9.38297872 11.6808511,11.0744681 C11.5531915,11.393617 11.2021277,11.5851064 10.8510638,11.4574468 C10.5,11.3297872 10.3404255,10.9787234 10.4680851,10.6276596 C11.2659574,8.36170213 13.7553191,7.14893617 16.2446809,7.81914894 C18.2553191,8.36170213 19.3404255,9.89361702 19.3404255,12.1595745 L19.3404255,12.2234043 C19.1489362,14.8404255 16.9148936,16.1808511 15.3829787,16.6276596 L15.3829787,18.1914894 C15.4468085,18.5744681 15.1595745,18.8617021 14.8085106,18.8617021 Z" id="Path" fill-rule="nonzero"></path>
                                <circle id="Oval" fill-rule="nonzero" cx="14.9361702" cy="22.4042553" r="1.43617021"></circle>
                            </g>
                        </g>
                    </g>
                </g>
            </g>
        </g>
    </g>
</svg>