<?xml version="1.0" encoding="UTF-8"?>
<svg width="16px" height="16px" viewBox="0 0 16 16" version="1.1" xmlns="http://www.w3.org/2000/svg" xmlns:xlink="http://www.w3.org/1999/xlink">
    <!-- Generator: Sketch 51.3 (57544) - http://www.bohemiancoding.com/sketch -->
    <title>social-buttons-skype</title>
    <desc>Created with Sketch.</desc>
    <defs></defs>
    <g id="Page-1" stroke="none" stroke-width="1" fill="none" fill-rule="evenodd">
        <g id="home-wawcadeiras" transform="translate(-1243.000000, -141.000000)" fill="#FFB200">
            <g id="hover-atendimento" transform="translate(1219.000000, 65.000000)">
                <g id="txt" transform="translate(24.000000, 24.000000)">
                    <g id="skp" transform="translate(0.000000, 51.000000)">
                        <g id="social-buttons-skype" transform="translate(0.000000, 1.000000)">
                            <g id="Shape">
                                <path d="M15.2199754,9.05073333 C15.2649199,8.7214 15.2898891,8.386 15.2898891,8.04553333 C15.2898891,3.9558 12.0029897,0.6392 7.9500616,0.6392 C7.54756468,0.6392 7.15206571,0.672633333 6.76852567,0.736466667 C6.07937577,0.280466667 5.25940041,0.016 4.37752772,0.016 C1.95853799,0.0160333333 0,2.00616667 0,4.4594 C0,5.35213333 0.258661191,6.18203333 0.705117043,6.8782 C0.645190965,7.2592 0.6142423,7.64833333 0.6142423,8.04553333 C0.6142423,12.1363 3.8981191,15.4518667 7.95108008,15.4518667 C8.40850924,15.4518667 8.85394661,15.4062667 9.28640657,15.3272333 C9.95857084,15.7508 10.7525585,15.9970333 11.6005257,15.9970333 C14.020501,15.9970333 15.9800575,14.0079 15.9800575,11.5536333 C15.9810103,10.6264667 15.7023409,9.7631 15.2199754,9.05073333 Z M8.63819302,13.5032667 C6.30610267,13.6269 5.21547433,13.102 4.21572074,12.1515 C3.09910472,11.0885333 3.54756468,9.8766 4.45742916,9.8148 C5.36630801,9.753 5.91162218,10.8595333 6.39701027,11.1675667 C6.88141273,11.4746 8.7250924,12.1738 9.69889117,11.0439333 C10.7595565,9.81476667 8.99377413,9.17843333 7.69938398,8.9859 C5.8516961,8.70926667 3.51862012,7.69493333 3.70040246,5.69566667 C3.8821848,3.69943333 5.37232033,2.67396667 6.94133881,2.53006667 C8.940846,2.34563333 10.2432197,2.8371 11.2729035,3.72883333 C12.4634086,4.75936667 11.8192361,5.9105 11.0611581,6.0027 C10.3040986,6.0949 9.4571499,4.30843333 7.79025873,4.2821 C6.07241068,4.25473333 4.91186858,6.09593333 7.03221355,6.6188 C9.15354415,7.14166667 11.4237043,7.3565 12.2436797,9.32333333 C13.0626694,11.2901667 10.971269,13.3796333 8.63819302,13.5032667 Z" fill-rule="nonzero"></path>
                            </g>
                        </g>
                    </g>
                </g>
            </g>
        </g>
    </g>
</svg>