<?xml version="1.0" encoding="UTF-8"?>
<svg width="29px" height="20px" viewBox="0 0 29 20" version="1.1" xmlns="http://www.w3.org/2000/svg" xmlns:xlink="http://www.w3.org/1999/xlink">
    <!-- Generator: Sketch 53.2 (72643) - https://sketchapp.com -->
    <title>Combined Shape</title>
    <desc>Created with Sketch.</desc>
    <g id="Home" stroke="none" stroke-width="1" fill="none" fill-rule="evenodd">
        <g id="home-like" transform="translate(-1315.000000, -282.000000)" fill="color[0]" fill-rule="nonzero">
            <g id="Hover-ajuda" transform="translate(1192.000000, 67.000000)">
                <g id="Group-26" transform="translate(19.000000, 181.485281)">
                    <g id="Group-17" transform="translate(0.000000, 23.000000)">
                        <g id="Group-21" transform="translate(104.000000, 4.000000)">
                            <path d="M15.0738783,26.3396882 C15.0733031,26.3396882 15.0738783,26.3396882 15.0738783,26.3396882 C11.9469616,26.3396882 8.54271203,26.2409166 4.95636785,26.0476465 C2.83762763,25.9314543 1.19409197,24.2980259 0.960146372,22.0746799 C0.568840098,18.360475 0.568840098,14.6109359 0.960146372,10.930011 C1.19359894,8.72515378 2.83491593,7.09172537 4.95160184,6.95860563 C11.1368212,6.56935368 17.5010948,6.56935368 23.8769547,6.95860563 C26.0184568,7.08852063 27.6228782,8.68341006 27.8705467,10.9278745 C28.2607847,14.4815139 28.2613599,18.23056 27.8710397,22.0731186 C27.6455579,24.2949033 26.0426977,25.8918471 23.882789,26.0466604 C21.1645991,26.2409166 18.2007951,26.3396882 15.0738783,26.3396882 Z M14.3231459,8.47446549 C11.4576301,8.47446549 8.57315236,8.56452395 5.74986646,8.74132492 C4.26275357,8.83432252 3.1518572,9.95074598 2.98535494,11.5185168 C2.63285971,14.8265638 2.63285971,18.1966343 2.98535494,21.5361829 C3.1518572,23.1166147 4.2613182,24.2325106 5.74601364,24.3139023 C9.02566982,24.4901758 12.1378417,24.5803096 14.9946698,24.5803096 C17.8465874,24.5803096 20.5480184,24.4907033 23.0241728,24.3144299 C24.5224665,24.2068873 25.6357803,23.0914435 25.7935948,21.5381423 C26.14609,18.0818569 26.14609,14.7117864 25.7940481,11.5204763 C25.6207467,9.94780684 24.5093971,8.8309312 23.0295366,8.74132492 C20.118769,8.56407178 17.189115,8.47446549 14.3231459,8.47446549 Z M11.8421503,12.9117899 L18.8026688,16.5605031 L11.8421503,20.1600771 L11.8421503,12.9117899 Z" id="Combined-Shape"></path>
                        </g>
                    </g>
                </g>
            </g>
        </g>
    </g>
</svg>