<?xml version="1.0" encoding="UTF-8"?>
<svg width="20px" height="20px" viewBox="0 0 20 20" version="1.1" xmlns="http://www.w3.org/2000/svg" xmlns:xlink="http://www.w3.org/1999/xlink">
    <!-- Generator: Sketch 51.3 (57544) - http://www.bohemiancoding.com/sketch -->
    <title>whatsapp (92)</title>
    <desc>Created with Sketch.</desc>
    <defs></defs>
    <g id="Symbols" stroke="none" stroke-width="1" fill="none" fill-rule="evenodd">
        <g id="topo-waw" transform="translate(-1219.000000, -32.000000)">
            <g id="wpp">
                <g transform="translate(1219.000000, 32.000000)">
                    <g id="whatsapp-(92)">
                        <g id="Shape">
                            <path d="M0,20 L1.72,14.8403448 C0.847241379,13.3724138 0.344827586,11.6593103 0.344827586,9.82758621 C0.344827586,4.4 4.74482759,0 10.1724138,0 C15.6,0 20,4.4 20,9.82758621 C20,15.2551724 15.6,19.6551724 10.1724138,19.6551724 C8.52103448,19.6551724 6.96586207,19.2458621 5.6,18.5265517 L0,20 Z" fill="#2CB742" fill-rule="nonzero"></path>
                            <path d="M16.4424138,13.0982759 C15.9886207,12.2406897 14.3151724,11.26 14.3151724,11.26 C13.9365517,11.0441379 13.4796552,11.02 13.2637931,11.4048276 C13.2637931,11.4048276 12.72,12.0568966 12.5817241,12.1506897 C11.95,12.5786207 11.3648276,12.562069 10.7741379,11.9713793 L9.40137931,10.5986207 L8.02862069,9.22586207 C7.43793103,8.63517241 7.42137931,8.05 7.84931034,7.41827586 C7.94310345,7.28 8.59517241,6.7362069 8.59517241,6.7362069 C8.98,6.52 8.95586207,6.06344828 8.74,5.68482759 C8.74,5.68482759 7.75931034,4.01137931 6.90172414,3.55758621 C6.53689655,3.36448276 6.08896552,3.43206897 5.79724138,3.7237931 L5.19103448,4.33 C3.26793103,6.25310345 4.21482759,8.42413793 6.13793103,10.3472414 L7.89551724,12.1048276 L9.65310345,13.8624138 C11.5762069,15.7855172 13.7472414,16.7324138 15.6703448,14.8093103 L16.2765517,14.2031034 C16.5682759,13.9106897 16.6355172,13.4627586 16.4424138,13.0982759 Z" fill="#FFFFFF" fill-rule="nonzero"></path>
                        </g>
                    </g>
                </g>
            </g>
        </g>
    </g>
</svg>